<svg id="图层_1" data-name="图层 1" xmlns="http://www.w3.org/2000/svg" xmlns:xlink="http://www.w3.org/1999/xlink" viewBox="0 0 80 80"><defs><style>.cls-1{isolation:isolate;filter:url(#luminosity-invert);}.cls-2{fill:#020202;}.cls-3{fill:none;}.cls-4{clip-path:url(#clip-path);}.cls-5{fill:#8ff4ff;}.cls-6{fill:#8ff3ff;}.cls-7{fill:#8ef2ff;}.cls-8{fill:#8ef1ff;}.cls-9{fill:#8df0ff;}.cls-10{fill:#8defff;}.cls-11{fill:#8ceeff;}.cls-12{fill:#8cedff;}.cls-13{fill:#8cecff;}.cls-14{fill:#8bebff;}.cls-15{fill:#8beaff;}.cls-16{fill:#8ae9ff;}.cls-17{fill:#8ae8ff;}.cls-18{fill:#89e7ff;}.cls-19{fill:#89e6ff;}.cls-20{fill:#88e5ff;}.cls-21{fill:#88e4ff;}.cls-22{fill:#88e3ff;}.cls-23{fill:#87e2ff;}.cls-24{fill:#87e1ff;}.cls-25{fill:#86e0ff;}.cls-26{fill:#86dfff;}.cls-27{fill:#85deff;}.cls-28{fill:#85ddff;}.cls-29{fill:#85dcff;}.cls-30{fill:#84dbff;}.cls-31{fill:#84daff;}.cls-32{fill:#83d9ff;}.cls-33{fill:#83d8ff;}.cls-34{fill:#82d7ff;}.cls-35{fill:#82d6ff;}.cls-36{fill:#82d5ff;}.cls-37{fill:#81d4ff;}.cls-38{fill:#81d3ff;}.cls-39{fill:#80d2ff;}.cls-40{fill:#80d1ff;}.cls-41{fill:#7fd0ff;}.cls-42{fill:#7fcfff;}.cls-43{fill:#7fceff;}.cls-44{fill:#7ecdff;}.cls-45{fill:#7eccff;}.cls-46{fill:#7dcbff;}.cls-47{fill:#7dcaff;}.cls-48{fill:#7cc9ff;}.cls-49{fill:#7cc8ff;}.cls-50{fill:#7bc7ff;}.cls-51{fill:#7bc6ff;}.cls-52{fill:#7bc5ff;}.cls-53{fill:#7ac4ff;}.cls-54{fill:#7ac3ff;}.cls-55{fill:#79c2ff;}.cls-56{fill:#79c1ff;}.cls-57{fill:#78c0ff;}.cls-58{fill:#78beff;}.cls-59{fill:#78bdff;}.cls-60{fill:#77bcff;}.cls-61{fill:#7bf;}.cls-62{fill:#76baff;}.cls-63{fill:#76b9ff;}.cls-64{fill:#75b8ff;}.cls-65{fill:#75b7ff;}.cls-66{fill:#75b6ff;}.cls-67{fill:#74b5ff;}.cls-68{fill:#74b4ff;}.cls-69{fill:#73b3ff;}.cls-70{fill:#73b2ff;}.cls-71{fill:#72b1ff;}.cls-72{fill:#72b0ff;}.cls-73{fill:#71afff;}.cls-74{fill:#71aeff;}.cls-75{fill:#71adff;}.cls-76{fill:#70acff;}.cls-77{fill:#70abff;}.cls-78{fill:#6faaff;}.cls-79{fill:#6fa9ff;}.cls-80{fill:#6ea8ff;}.cls-81{fill:#6ea7ff;}.cls-82{fill:#6ea6ff;}.cls-83{fill:#6da5ff;}.cls-84{fill:#6da4ff;}.cls-85{fill:#6ca3ff;}.cls-86{fill:#6ca2ff;}.cls-87{fill:#6ba1ff;}.cls-88{fill:#6ba0ff;}.cls-89{fill:#6b9fff;}.cls-90{fill:#6a9eff;}.cls-91{fill:#6a9dff;}.cls-92{fill:#699cff;}.cls-93{fill:#699bff;}.cls-94{fill:#689aff;}.cls-95{fill:#6899ff;}.cls-96{fill:#6898ff;}.cls-97{fill:#6797ff;}.cls-98{fill:#6796ff;}.cls-99{fill:#6695ff;}.cls-100{fill:#6694ff;}.cls-101{fill:#6593ff;}.cls-102{fill:#6592ff;}.cls-103{fill:#6491ff;}.cls-104{fill:#6490ff;}.cls-105{fill:#648fff;}.cls-106{fill:#638eff;}.cls-107{fill:#638dff;}.cls-108{fill:#628cff;}.cls-109{fill:#628bff;}.cls-110{fill:#618aff;}.cls-111{fill:#6189ff;}.cls-112{clip-path:url(#clip-path-2);}.cls-113{mask:url(#mask);}.cls-114{opacity:0.5;}.cls-115{clip-path:url(#clip-path-3);}.cls-116{fill:#31c3bd;}.cls-117{fill:#32c2be;}.cls-118{fill:#32c1be;}.cls-119{fill:#32c0be;}.cls-120{fill:#32bfbf;}.cls-121{fill:#33bebf;}.cls-122{fill:#33bdc0;}.cls-123{fill:#33bcc0;}.cls-124{fill:#33bbc1;}.cls-125{fill:#34bac1;}.cls-126{fill:#34b9c2;}.cls-127{fill:#34b8c2;}.cls-128{fill:#34b7c3;}.cls-129{fill:#35b6c3;}.cls-130{fill:#35b5c3;}.cls-131{fill:#35b4c4;}.cls-132{fill:#35b3c4;}.cls-133{fill:#36b2c5;}.cls-134{fill:#36b1c5;}.cls-135{fill:#36b0c6;}.cls-136{fill:#36afc6;}.cls-137{fill:#37aec7;}.cls-138{fill:#37adc7;}.cls-139{fill:#37acc8;}.cls-140{fill:#38abc8;}.cls-141{fill:#38aac8;}.cls-142{fill:#38a9c9;}.cls-143{fill:#38a8c9;}.cls-144{fill:#39a7ca;}.cls-145{fill:#39a6ca;}.cls-146{fill:#39a5cb;}.cls-147{fill:#39a4cb;}.cls-148{fill:#3aa3cc;}.cls-149{fill:#3aa2cc;}.cls-150{fill:#3aa1cd;}.cls-151{fill:#3aa0cd;}.cls-152{fill:#3b9fcd;}.cls-153{fill:#3b9ece;}.cls-154{fill:#3b9dce;}.cls-155{fill:#3b9ccf;}.cls-156{fill:#3c9acf;}.cls-157{fill:#3c99d0;}.cls-158{fill:#3c98d0;}.cls-159{fill:#3c97d1;}.cls-160{fill:#3d96d1;}.cls-161{fill:#3d95d1;}.cls-162{fill:#3d94d2;}.cls-163{fill:#3d93d2;}.cls-164{fill:#3e92d3;}.cls-165{fill:#3e91d3;}.cls-166{fill:#3e90d4;}.cls-167{fill:#3e8fd4;}.cls-168{fill:#3f8ed5;}.cls-169{fill:#3f8dd5;}.cls-170{fill:#3f8cd6;}.cls-171{fill:#3f8bd6;}.cls-172{fill:#408ad6;}.cls-173{fill:#4089d7;}</style><clipPath id="clip-path"><path class="cls-3" d="M48.64,25.91H41.77L33.38,47.23,25,25.91H18.12L15.49,55h6.87L23.8,39l6.73,15.47h5.69L43,39,44.4,55h6.87L48.64,25.91ZM0,21.31H0V62.09H11.38V57.52H4.56V25.85h6.82V21.32H0Zm55.38,0h0v4.53H62.2V57.52H55.38v4.57H66.76V21.32H55.38Zm15.44.41c0,2,1.63,3,3,3.56,1.2.48,2.31.77,2.31,1.39s-.34.72-1.2.72A5.14,5.14,0,0,1,72,26.2l-1.83,2.55a8,8,0,0,0,4.66,1.68c3.37,0,5.14-1.73,5.14-4s-1.63-3.08-3.08-3.61c-1.2-.43-2.26-.67-2.26-1.3s.36-.67,1.06-.67a4.46,4.46,0,0,1,2.45,1L80,19.42a7.12,7.12,0,0,0-4.42-1.59c-2.84,0-4.76,1.54-4.76,3.89"/></clipPath><clipPath id="clip-path-2"><rect class="cls-3" y="17.83" width="80" height="44.33"/></clipPath><filter id="luminosity-invert" filterUnits="userSpaceOnUse" color-interpolation-filters="sRGB"><feColorMatrix values="-1 0 0 0 1 0 -1 0 0 1 0 0 -1 0 1 0 0 0 1 0"/></filter><mask id="mask" x="-2.65" y="13.88" width="84.41" height="50.95" maskUnits="userSpaceOnUse"><g class="cls-1"><polygon class="cls-2" points="23.79 39 30.51 54.47 33.36 47.24 24.96 25.91 23.79 39"/><polygon class="cls-2" points="48.62 25.91 42.94 39.07 44.37 54.97 51.24 54.97 48.62 25.91"/></g></mask><clipPath id="clip-path-3"><rect class="cls-3" x="-2.65" y="13.88" width="84.41" height="50.95"/></clipPath></defs><title>画板 4</title><g class="cls-4"><polygon class="cls-5" points="12.16 13.88 -2.62 39.49 -2.62 13.88 12.16 13.88"/><polygon class="cls-5" points="12.79 13.88 -2.62 40.58 -2.62 39.49 12.16 13.88 12.79 13.88"/><polygon class="cls-6" points="13.42 13.88 -2.62 41.67 -2.62 40.58 12.79 13.88 13.42 13.88"/><polygon class="cls-7" points="14.05 13.88 -2.62 42.76 -2.62 41.67 13.42 13.88 14.05 13.88"/><polygon class="cls-8" points="14.68 13.88 -2.62 43.84 -2.62 42.76 14.05 13.88 14.68 13.88"/><polygon class="cls-9" points="15.3 13.88 -2.62 44.93 -2.62 43.84 14.68 13.88 15.3 13.88"/><polygon class="cls-10" points="15.93 13.88 -2.62 46.02 -2.62 44.93 15.3 13.88 15.93 13.88"/><polygon class="cls-11" points="16.56 13.88 -2.62 47.11 -2.62 46.02 15.93 13.88 16.56 13.88"/><polygon class="cls-12" points="17.19 13.88 -2.62 48.2 -2.62 47.11 16.56 13.88 17.19 13.88"/><polygon class="cls-13" points="17.82 13.88 -2.62 49.29 -2.62 48.2 17.19 13.88 17.82 13.88"/><polygon class="cls-14" points="18.45 13.88 -2.62 50.38 -2.62 49.29 17.82 13.88 18.45 13.88"/><polygon class="cls-15" points="19.08 13.88 -2.62 51.47 -2.62 50.38 18.45 13.88 19.08 13.88"/><polygon class="cls-16" points="19.7 13.88 -2.62 52.56 -2.62 51.47 19.08 13.88 19.7 13.88"/><polygon class="cls-17" points="20.33 13.88 -2.62 53.64 -2.62 52.56 19.7 13.88 20.33 13.88"/><polygon class="cls-18" points="20.96 13.88 -2.62 54.73 -2.62 53.64 20.33 13.88 20.96 13.88"/><polygon class="cls-19" points="21.59 13.88 -2.62 55.82 -2.62 54.73 20.96 13.88 21.59 13.88"/><polygon class="cls-20" points="22.22 13.88 -2.62 56.91 -2.62 55.82 21.59 13.88 22.22 13.88"/><polygon class="cls-21" points="22.85 13.88 -2.62 58 -2.62 56.91 22.22 13.88 22.85 13.88"/><polygon class="cls-22" points="23.48 13.88 -2.62 59.09 -2.62 58 22.85 13.88 23.48 13.88"/><polygon class="cls-23" points="24.11 13.88 -2.62 60.18 -2.62 59.09 23.48 13.88 24.11 13.88"/><polygon class="cls-24" points="24.73 13.88 -2.62 61.27 -2.62 60.18 24.11 13.88 24.73 13.88"/><polygon class="cls-25" points="25.36 13.88 -2.62 62.35 -2.62 61.27 24.73 13.88 25.36 13.88"/><polygon class="cls-26" points="25.99 13.88 -2.62 63.44 -2.62 62.35 25.36 13.88 25.99 13.88"/><polygon class="cls-27" points="26.62 13.88 -2.62 64.53 -2.62 63.44 25.99 13.88 26.62 13.88"/><polygon class="cls-28" points="27.25 13.88 -2.17 64.83 -2.62 64.83 -2.62 64.53 26.62 13.88 27.25 13.88"/><polygon class="cls-29" points="27.88 13.88 -1.54 64.83 -2.17 64.83 27.25 13.88 27.88 13.88"/><polygon class="cls-30" points="28.51 13.88 -0.91 64.83 -1.54 64.83 27.88 13.88 28.51 13.88"/><polygon class="cls-31" points="29.13 13.88 -0.28 64.83 -0.91 64.83 28.51 13.88 29.13 13.88"/><polygon class="cls-32" points="29.76 13.88 0.35 64.83 -0.28 64.83 29.13 13.88 29.76 13.88"/><polygon class="cls-33" points="30.39 13.88 0.98 64.83 0.35 64.83 29.76 13.88 30.39 13.88"/><polygon class="cls-34" points="31.02 13.88 1.6 64.83 0.98 64.83 30.39 13.88 31.02 13.88"/><polygon class="cls-35" points="31.65 13.88 2.23 64.83 1.6 64.83 31.02 13.88 31.65 13.88"/><polygon class="cls-36" points="32.28 13.88 2.86 64.83 2.23 64.83 31.65 13.88 32.28 13.88"/><polygon class="cls-37" points="32.91 13.88 3.49 64.83 2.86 64.83 32.28 13.88 32.91 13.88"/><polygon class="cls-38" points="33.53 13.88 4.12 64.83 3.49 64.83 32.91 13.88 33.53 13.88"/><polygon class="cls-39" points="34.16 13.88 4.75 64.83 4.12 64.83 33.53 13.88 34.16 13.88"/><polygon class="cls-40" points="34.79 13.88 5.38 64.83 4.75 64.83 34.16 13.88 34.79 13.88"/><polygon class="cls-41" points="35.42 13.88 6.01 64.83 5.38 64.83 34.79 13.88 35.42 13.88"/><polygon class="cls-42" points="36.05 13.88 6.63 64.83 6.01 64.83 35.42 13.88 36.05 13.88"/><polygon class="cls-43" points="36.68 13.88 7.26 64.83 6.63 64.83 36.05 13.88 36.68 13.88"/><polygon class="cls-44" points="37.31 13.88 7.89 64.83 7.26 64.83 36.68 13.88 37.31 13.88"/><polygon class="cls-45" points="37.94 13.88 8.52 64.83 7.89 64.83 37.31 13.88 37.94 13.88"/><polygon class="cls-46" points="38.56 13.88 9.15 64.83 8.52 64.83 37.94 13.88 38.56 13.88"/><polygon class="cls-47" points="39.19 13.88 9.78 64.83 9.15 64.83 38.56 13.88 39.19 13.88"/><polygon class="cls-48" points="39.82 13.88 10.41 64.83 9.78 64.83 39.19 13.88 39.82 13.88"/><polygon class="cls-49" points="40.45 13.88 11.04 64.83 10.41 64.83 39.82 13.88 40.45 13.88"/><polygon class="cls-50" points="41.08 13.88 11.66 64.83 11.04 64.83 40.45 13.88 41.08 13.88"/><polygon class="cls-51" points="41.71 13.88 12.29 64.83 11.66 64.83 41.08 13.88 41.71 13.88"/><polygon class="cls-52" points="42.34 13.88 12.92 64.83 12.29 64.83 41.71 13.88 42.34 13.88"/><polygon class="cls-53" points="42.97 13.88 13.55 64.83 12.92 64.83 42.34 13.88 42.97 13.88"/><polygon class="cls-54" points="43.59 13.88 14.18 64.83 13.55 64.83 42.97 13.88 43.59 13.88"/><polygon class="cls-55" points="44.22 13.88 14.81 64.83 14.18 64.83 43.59 13.88 44.22 13.88"/><polygon class="cls-56" points="44.85 13.88 15.44 64.83 14.81 64.83 44.22 13.88 44.85 13.88"/><polygon class="cls-57" points="45.48 13.88 16.06 64.83 15.44 64.83 44.85 13.88 45.48 13.88"/><polygon class="cls-58" points="46.11 13.88 16.69 64.83 16.06 64.83 45.48 13.88 46.11 13.88"/><polygon class="cls-59" points="46.74 13.88 17.32 64.83 16.69 64.83 46.11 13.88 46.74 13.88"/><polygon class="cls-60" points="47.37 13.88 17.95 64.83 17.32 64.83 46.74 13.88 47.37 13.88"/><polygon class="cls-61" points="47.99 13.88 18.58 64.83 17.95 64.83 47.37 13.88 47.99 13.88"/><polygon class="cls-62" points="48.62 13.88 19.21 64.83 18.58 64.83 47.99 13.88 48.62 13.88"/><polygon class="cls-63" points="49.25 13.88 19.84 64.83 19.21 64.83 48.62 13.88 49.25 13.88"/><polygon class="cls-64" points="49.88 13.88 20.46 64.83 19.84 64.83 49.25 13.88 49.88 13.88"/><polygon class="cls-65" points="50.51 13.88 21.09 64.83 20.46 64.83 49.88 13.88 50.51 13.88"/><polygon class="cls-66" points="51.14 13.88 21.72 64.83 21.09 64.83 50.51 13.88 51.14 13.88"/><polygon class="cls-67" points="51.77 13.88 22.35 64.83 21.72 64.83 51.14 13.88 51.77 13.88"/><polygon class="cls-68" points="52.4 13.88 22.98 64.83 22.35 64.83 51.77 13.88 52.4 13.88"/><polygon class="cls-69" points="53.02 13.88 23.61 64.83 22.98 64.83 52.4 13.88 53.02 13.88"/><polygon class="cls-70" points="53.65 13.88 24.24 64.83 23.61 64.83 53.02 13.88 53.65 13.88"/><polygon class="cls-71" points="54.28 13.88 24.87 64.83 24.24 64.83 53.65 13.88 54.28 13.88"/><polygon class="cls-72" points="54.91 13.88 25.49 64.83 24.87 64.83 54.28 13.88 54.91 13.88"/><polygon class="cls-73" points="55.54 13.88 26.12 64.83 25.49 64.83 54.91 13.88 55.54 13.88"/><polygon class="cls-74" points="56.17 13.88 26.75 64.83 26.12 64.83 55.54 13.88 56.17 13.88"/><polygon class="cls-75" points="56.8 13.88 27.38 64.83 26.75 64.83 56.17 13.88 56.8 13.88"/><polygon class="cls-76" points="57.42 13.88 28.01 64.83 27.38 64.83 56.8 13.88 57.42 13.88"/><polygon class="cls-77" points="58.05 13.88 28.64 64.83 28.01 64.83 57.42 13.88 58.05 13.88"/><polygon class="cls-78" points="58.68 13.88 29.27 64.83 28.64 64.83 58.05 13.88 58.68 13.88"/><polygon class="cls-79" points="59.31 13.88 29.89 64.83 29.27 64.83 58.68 13.88 59.31 13.88"/><polygon class="cls-80" points="59.94 13.88 30.52 64.83 29.89 64.83 59.31 13.88 59.94 13.88"/><polygon class="cls-81" points="60.57 13.88 31.15 64.83 30.52 64.83 59.94 13.88 60.57 13.88"/><polygon class="cls-82" points="61.2 13.88 31.78 64.83 31.15 64.83 60.57 13.88 61.2 13.88"/><polygon class="cls-83" points="61.83 13.88 32.41 64.83 31.78 64.83 61.2 13.88 61.83 13.88"/><polygon class="cls-84" points="62.45 13.88 33.04 64.83 32.41 64.83 61.83 13.88 62.45 13.88"/><polygon class="cls-85" points="63.08 13.88 33.67 64.83 33.04 64.83 62.45 13.88 63.08 13.88"/><polygon class="cls-86" points="63.71 13.88 34.3 64.83 33.67 64.83 63.08 13.88 63.71 13.88"/><polygon class="cls-87" points="64.34 13.88 34.92 64.83 34.3 64.83 63.71 13.88 64.34 13.88"/><polygon class="cls-88" points="64.97 13.88 35.55 64.83 34.92 64.83 64.34 13.88 64.97 13.88"/><polygon class="cls-89" points="65.6 13.88 36.18 64.83 35.55 64.83 64.97 13.88 65.6 13.88"/><polygon class="cls-90" points="66.23 13.88 36.81 64.83 36.18 64.83 65.6 13.88 66.23 13.88"/><polygon class="cls-91" points="66.85 13.88 37.44 64.83 36.81 64.83 66.23 13.88 66.85 13.88"/><polygon class="cls-92" points="67.48 13.88 38.07 64.83 37.44 64.83 66.85 13.88 67.48 13.88"/><polygon class="cls-93" points="68.11 13.88 38.7 64.83 38.07 64.83 67.48 13.88 68.11 13.88"/><polygon class="cls-94" points="68.74 13.88 39.33 64.83 38.7 64.83 68.11 13.88 68.74 13.88"/><polygon class="cls-95" points="69.37 13.88 39.95 64.83 39.33 64.83 68.74 13.88 69.37 13.88"/><polygon class="cls-96" points="70 13.88 40.58 64.83 39.95 64.83 69.37 13.88 70 13.88"/><polygon class="cls-97" points="70.63 13.88 41.21 64.83 40.58 64.83 70 13.88 70.63 13.88"/><polygon class="cls-98" points="71.25 13.88 41.84 64.83 41.21 64.83 70.63 13.88 71.25 13.88"/><polygon class="cls-99" points="71.88 13.88 42.47 64.83 41.84 64.83 71.25 13.88 71.88 13.88"/><polygon class="cls-100" points="72.51 13.88 43.1 64.83 42.47 64.83 71.88 13.88 72.51 13.88"/><polygon class="cls-101" points="73.14 13.88 43.73 64.83 43.1 64.83 72.51 13.88 73.14 13.88"/><polygon class="cls-102" points="73.77 13.88 44.35 64.83 43.73 64.83 73.14 13.88 73.77 13.88"/><polygon class="cls-103" points="74.4 13.88 44.98 64.83 44.35 64.83 73.77 13.88 74.4 13.88"/><polygon class="cls-104" points="75.03 13.88 45.61 64.83 44.98 64.83 74.4 13.88 75.03 13.88"/><polygon class="cls-105" points="75.66 13.88 46.24 64.83 45.61 64.83 75.03 13.88 75.66 13.88"/><polygon class="cls-106" points="76.28 13.88 46.87 64.83 46.24 64.83 75.66 13.88 76.28 13.88"/><polygon class="cls-107" points="76.91 13.88 47.5 64.83 46.87 64.83 76.28 13.88 76.91 13.88"/><polygon class="cls-108" points="77.54 13.88 48.13 64.83 47.5 64.83 76.91 13.88 77.54 13.88"/><polygon class="cls-109" points="78.17 13.88 48.76 64.83 48.13 64.83 77.54 13.88 78.17 13.88"/><polygon class="cls-110" points="78.8 13.88 49.38 64.83 48.76 64.83 78.17 13.88 78.8 13.88"/><polygon class="cls-111" points="79.43 13.88 50.01 64.83 49.38 64.83 78.8 13.88 79.43 13.88"/><polygon class="cls-111" points="50.01 64.83 79.43 13.88 81.79 13.88 81.79 64.83 50.01 64.83"/></g><g class="cls-112"><g class="cls-113"><g class="cls-114"><g class="cls-115"><g class="cls-115"><rect class="cls-116" x="-0.59" y="13.88" width="1.4" height="50.95"/><rect class="cls-117" x="0.81" y="13.88" width="1.4" height="50.95"/><rect class="cls-118" x="2.21" y="13.88" width="1.4" height="50.95"/><rect class="cls-119" x="3.61" y="13.88" width="1.4" height="50.95"/><rect class="cls-120" x="5.01" y="13.88" width="1.4" height="50.95"/><rect class="cls-121" x="6.41" y="13.88" width="1.4" height="50.95"/><rect class="cls-122" x="7.81" y="13.88" width="1.4" height="50.95"/><rect class="cls-123" x="9.21" y="13.88" width="1.4" height="50.95"/><rect class="cls-124" x="10.61" y="13.88" width="1.4" height="50.95"/><rect class="cls-125" x="12.01" y="13.88" width="1.4" height="50.95"/><rect class="cls-126" x="13.41" y="13.88" width="1.4" height="50.95"/><rect class="cls-127" x="14.81" y="13.88" width="1.4" height="50.95"/><rect class="cls-128" x="16.21" y="13.88" width="1.4" height="50.95"/><rect class="cls-129" x="17.61" y="13.88" width="1.4" height="50.95"/><rect class="cls-130" x="19.01" y="13.88" width="1.4" height="50.95"/><rect class="cls-131" x="20.41" y="13.88" width="1.4" height="50.95"/><rect class="cls-132" x="21.81" y="13.88" width="1.4" height="50.95"/><rect class="cls-133" x="23.21" y="13.88" width="1.4" height="50.95"/><rect class="cls-134" x="24.61" y="13.88" width="1.4" height="50.95"/><rect class="cls-135" x="26.01" y="13.88" width="1.4" height="50.95"/><rect class="cls-136" x="27.41" y="13.88" width="1.4" height="50.95"/><rect class="cls-137" x="28.81" y="13.88" width="1.4" height="50.95"/><rect class="cls-138" x="30.21" y="13.88" width="1.4" height="50.95"/><rect class="cls-139" x="31.61" y="13.88" width="1.4" height="50.95"/><rect class="cls-140" x="33.01" y="13.88" width="1.4" height="50.95"/><rect class="cls-141" x="34.41" y="13.88" width="1.4" height="50.95"/><rect class="cls-142" x="35.81" y="13.88" width="1.4" height="50.95"/><rect class="cls-143" x="37.21" y="13.88" width="1.4" height="50.95"/><rect class="cls-144" x="38.61" y="13.88" width="1.4" height="50.95"/><rect class="cls-145" x="40.01" y="13.88" width="1.4" height="50.95"/><rect class="cls-146" x="41.41" y="13.88" width="1.4" height="50.95"/><rect class="cls-147" x="42.81" y="13.88" width="1.4" height="50.95"/><rect class="cls-148" x="44.21" y="13.88" width="1.4" height="50.95"/><rect class="cls-149" x="45.61" y="13.88" width="1.4" height="50.95"/><rect class="cls-150" x="47.01" y="13.88" width="1.4" height="50.95"/><rect class="cls-151" x="48.41" y="13.88" width="1.4" height="50.95"/><rect class="cls-152" x="49.81" y="13.88" width="1.4" height="50.95"/><rect class="cls-153" x="51.21" y="13.88" width="1.4" height="50.95"/><rect class="cls-154" x="52.61" y="13.88" width="1.4" height="50.95"/><rect class="cls-155" x="54.01" y="13.88" width="1.4" height="50.95"/><rect class="cls-156" x="55.41" y="13.88" width="1.4" height="50.95"/><rect class="cls-157" x="56.81" y="13.88" width="1.4" height="50.95"/><rect class="cls-158" x="58.21" y="13.88" width="1.4" height="50.95"/><rect class="cls-159" x="59.61" y="13.88" width="1.4" height="50.95"/><rect class="cls-160" x="61.02" y="13.88" width="1.4" height="50.95"/><rect class="cls-161" x="62.42" y="13.88" width="1.4" height="50.95"/><rect class="cls-162" x="63.82" y="13.88" width="1.4" height="50.95"/><rect class="cls-163" x="65.22" y="13.88" width="1.4" height="50.95"/><rect class="cls-164" x="66.62" y="13.88" width="1.4" height="50.95"/><rect class="cls-165" x="68.02" y="13.88" width="1.4" height="50.95"/><rect class="cls-166" x="69.42" y="13.88" width="1.4" height="50.95"/><rect class="cls-167" x="70.82" y="13.88" width="1.4" height="50.95"/><rect class="cls-168" x="72.22" y="13.88" width="1.4" height="50.95"/><rect class="cls-169" x="73.62" y="13.88" width="1.4" height="50.95"/><rect class="cls-170" x="75.02" y="13.88" width="1.4" height="50.95"/><rect class="cls-171" x="76.42" y="13.88" width="1.4" height="50.95"/><rect class="cls-172" x="77.82" y="13.88" width="1.4" height="50.95"/><rect class="cls-173" x="79.22" y="13.88" width="1.4" height="50.95"/></g></g></g></g></g></svg>