<svg width="18" height="18" xmlns="http://www.w3.org/2000/svg" data-name="图层 1">
 <defs>
  <clipPath id="clip-path">
   <path class="cls-3" d="m10.72096,3.4677l-1.38,0l-1.67,4.27l-1.68,-4.27l-1.38,0l-0.52,5.82l1.37,0l0.29,-3.2l1.35,3.09l1.14,0l1.34,-3.09l0.29,3.2l1.37,0l-0.52,-5.82zm-9.73,-0.92l0,0l0,0.9l0,0l0,7.25l2.28,0l0,-0.91l-1.37,0l0,-6.33l1.37,0l0,-0.9l-2.28,0l0,-0.01zm11.08,0l0,0l0,0.9l1.36,0l0,6.34l-1.36,0l0,0.91l2.28,0l0,-7.24l0,0l0,-0.9l-2.28,0l0,-0.01zm3.09,0.08a0.81,0.81 0 0 0 0.61,0.71c0.24,0.1 0.46,0.15 0.46,0.28s-0.07,0.14 -0.24,0.14a1,1 0 0 1 -0.59,-0.24l-0.41,0.52a1.6,1.6 0 0 0 0.93,0.34c0.67,0 1,-0.35 1,-0.8a0.77,0.77 0 0 0 -0.62,-0.72c-0.24,-0.09 -0.45,-0.13 -0.45,-0.26s0.07,-0.13 0.21,-0.13a0.89,0.89 0 0 1 0.49,0.2l0.44,-0.5a1.42,1.42 0 0 0 -0.88,-0.32c-0.57,0 -1,0.31 -1,0.78" fill="none" id="svg_1"/>
  </clipPath>
  <clipPath id="clip-path-2">
   <rect x="0.99096" class="cls-3" y="1.8577" width="16" height="8.87" fill="none" id="svg_2"/>
  </clipPath>
  <filter id="luminosity-invert" filterUnits="userSpaceOnUse" color-interpolation-filters="sRGB"/>
  <mask id="mask" x="-0.53" y="2.78" width="16.88" height="10.19" maskUnits="userSpaceOnUse">
   <g class="cls-1" isolation="isolate" filter="url(#luminosity-invert)" id="svg_3">
    <polygon class="cls-2" points="4.76 7.8 6.1 10.89 6.67 9.45 4.99 5.18 4.76 7.8" fill="#020202" id="svg_4"/>
    <polygon class="cls-2" points="9.72 5.18 8.59 7.81 8.88 10.99 10.25 10.99 9.72 5.18" fill="#020202" id="svg_5"/>
   </g>
  </mask>
  <clipPath id="clip-path-3">
   <rect class="cls-3" x="95.15215" y="52.1994" width="16.88" height="10.19" fill="none" id="svg_6"/>
  </clipPath>
 </defs>
 <title>画板 5</title>
 <g>
  <title>Layer 1</title>
  <g stroke="null" id="svg_180">
   <g stroke="null" class="cls-4" clip-path="url(#clip-path)" id="svg_7">
    <polygon stroke="null" class="cls-5" points="-1.3278038501739502,-1.234818935394287 -5.673764228820801,4.796244859695435 -5.673764228820801,-1.234818935394287 -1.3278038501739502,-1.234818935394287 " fill="#8ff4ff" id="svg_8"/>
    <polygon stroke="null" class="cls-5" points="-1.1369316577911377,-1.234818935394287 -5.673764228820801,5.0553905963897705 -5.673764228820801,4.796244859695435 -1.3278038501739502,-1.234818935394287 -1.1369316577911377,-1.234818935394287 " fill="#8ff4ff" id="svg_9"/>
    <polygon stroke="null" class="cls-6" points="-0.9607442021369934,-1.234818935394287 -5.673764228820801,5.302760362625122 -5.673764228820801,5.0553905963897705 -1.1369316577911377,-1.234818935394287 -0.9607442021369934,-1.234818935394287 " fill="#8ff3ff" id="svg_10"/>
    <polygon stroke="null" class="cls-7" points="-0.7698757648468018,-1.234818935394287 -5.673764228820801,5.561906099319458 -5.673764228820801,5.302760362625122 -0.9607442021369934,-1.234818935394287 -0.7698757648468018,-1.234818935394287 " fill="#8ef2ff" id="svg_11"/>
    <polygon stroke="null" class="cls-8" points="-0.5790054798126221,-1.234818935394287 -5.673764228820801,5.82105565071106 -5.673764228820801,5.561906099319458 -0.7698757648468018,-1.234818935394287 -0.5790054798126221,-1.234818935394287 " fill="#8ef1ff" id="svg_12"/>
    <polygon stroke="null" class="cls-9" points="-0.40281787514686584,-1.234818935394287 -5.673764228820801,6.0802013874053955 -5.673764228820801,5.82105565071106 -0.5790054798126221,-1.234818935394287 -0.40281787514686584,-1.234818935394287 " fill="#8df0ff" id="svg_13"/>
    <polygon stroke="null" class="cls-10" points="-0.21194912493228912,-1.234818935394287 -5.673764228820801,6.327569246292114 -5.673764228820801,6.0802013874053955 -0.40281787514686584,-1.234818935394287 -0.21194912493228912,-1.234818935394287 " fill="#8defff" id="svg_14"/>
    <polygon stroke="null" class="cls-11" points="-0.035759687423706055,-1.234818935394287 -5.673764228820801,6.586716890335083 -5.673764228820801,6.327569246292114 -0.21194912493228912,-1.234818935394287 -0.035759687423706055,-1.234818935394287 " fill="#8ceeff" id="svg_15"/>
    <polygon stroke="null" class="cls-12" points="0.15511202812194824,-1.234818935394287 -5.673764228820801,6.845864534378052 -5.673764228820801,6.586716890335083 -0.035759687423706055,-1.234818935394287 0.15511202812194824,-1.234818935394287 " fill="#8cedff" id="svg_16"/>
    <polygon stroke="null" class="cls-13" points="0.3312995433807373,-1.234818935394287 -5.673764228820801,7.105010271072388 -5.673764228820801,6.845864534378052 0.15511202812194824,-1.234818935394287 0.3312995433807373,-1.234818935394287 " fill="#8cecff" id="svg_17"/>
    <polygon stroke="null" class="cls-14" points="0.5221678614616394,-1.234818935394287 -5.673764228820801,7.364156007766724 -5.673764228820801,7.105010271072388 0.3312995433807373,-1.234818935394287 0.5221678614616394,-1.234818935394287 " fill="#8bebff" id="svg_18"/>
    <polygon stroke="null" class="cls-15" points="0.6983535289764404,-1.234818935394287 -5.673764228820801,7.611527681350708 -5.673764228820801,7.364156007766724 0.5221678614616394,-1.234818935394287 0.6983535289764404,-1.234818935394287 " fill="#8beaff" id="svg_19"/>
    <polygon stroke="null" class="cls-16" points="0.8892257213592529,-1.234818935394287 -5.673764228820801,7.870671510696411 -5.673764228820801,7.611527681350708 0.6983535289764404,-1.234818935394287 0.8892257213592529,-1.234818935394287 " fill="#8ae9ff" id="svg_20"/>
    <polygon stroke="null" class="cls-17" points="1.0800960063934326,-1.234818935394287 -5.673764228820801,8.12981915473938 -5.673764228820801,7.870671510696411 0.8892257213592529,-1.234818935394287 1.0800960063934326,-1.234818935394287 " fill="#8ae8ff" id="svg_21"/>
    <polygon stroke="null" class="cls-18" points="1.2562835216522217,-1.234818935394287 -5.673764228820801,8.388966798782349 -5.673764228820801,8.12981915473938 1.0800960063934326,-1.234818935394287 1.2562835216522217,-1.234818935394287 " fill="#89e7ff" id="svg_22"/>
    <polygon stroke="null" class="cls-19" points="1.4471518993377686,-1.234818935394287 -5.673764228820801,8.636334657669067 -5.673764228820801,8.388966798782349 1.2562835216522217,-1.234818935394287 1.4471518993377686,-1.234818935394287 " fill="#89e6ff" id="svg_23"/>
    <polygon stroke="null" class="cls-20" points="1.6233432292938232,-1.234818935394287 -5.673764228820801,8.895480394363403 -5.673764228820801,8.636334657669067 1.4471518993377686,-1.234818935394287 1.6233432292938232,-1.234818935394287 " fill="#88e5ff" id="svg_24"/>
    <polygon stroke="null" class="cls-21" points="1.8142116069793701,-1.234818935394287 -5.673764228820801,9.154631853103638 -5.673764228820801,8.895480394363403 1.6233432292938232,-1.234818935394287 1.8142116069793701,-1.234818935394287 " fill="#88e4ff" id="svg_25"/>
    <polygon stroke="null" class="cls-22" points="2.00508189201355,-1.234818935394287 -5.673764228820801,9.413777589797974 -5.673764228820801,9.154631853103638 1.8142116069793701,-1.234818935394287 2.00508189201355,-1.234818935394287 " fill="#88e3ff" id="svg_26"/>
    <polygon stroke="null" class="cls-23" points="2.1812713146209717,-1.234818935394287 -5.673764228820801,9.672929048538208 -5.673764228820801,9.413777589797974 2.00508189201355,-1.234818935394287 2.1812713146209717,-1.234818935394287 " fill="#87e2ff" id="svg_27"/>
    <polygon stroke="null" class="cls-24" points="2.3721415996551514,-1.234818935394287 -5.673764228820801,9.920295000076294 -5.673764228820801,9.672929048538208 2.1812713146209717,-1.234818935394287 2.3721415996551514,-1.234818935394287 " fill="#87e1ff" id="svg_28"/>
    <polygon stroke="null" class="cls-25" points="2.5483272075653076,-1.234818935394287 -5.673764228820801,10.17944073677063 -5.673764228820801,9.920295000076294 2.3721415996551514,-1.234818935394287 2.5483272075653076,-1.234818935394287 " fill="#86e0ff" id="svg_29"/>
    <polygon stroke="null" class="cls-26" points="2.7391974925994873,-1.234818935394287 -5.673764228820801,10.43859314918518 -5.673764228820801,10.17944073677063 2.5483272075653076,-1.234818935394287 2.7391974925994873,-1.234818935394287 " fill="#86dfff" id="svg_30"/>
    <polygon stroke="null" class="cls-27" points="2.9153850078582764,-1.234818935394287 -5.673764228820801,10.697735071182251 -5.673764228820801,10.43859314918518 2.7391974925994873,-1.234818935394287 2.9153850078582764,-1.234818935394287 " fill="#85deff" id="svg_31"/>
    <polygon stroke="null" class="cls-28" points="3.106255292892456,-1.234818935394287 -5.526939868927002,10.768411874771118 -5.673764228820801,10.768411874771118 -5.673764228820801,10.697735071182251 2.9153850078582764,-1.234818935394287 3.106255292892456,-1.234818935394287 " fill="#85ddff" id="svg_32"/>
    <polygon stroke="null" class="cls-29" points="3.297123670578003,-1.234818935394287 -5.350753307342529,10.768411874771118 -5.526939868927002,10.768411874771118 3.106255292892456,-1.234818935394287 3.297123670578003,-1.234818935394287 " fill="#85dcff" id="svg_33"/>
    <polygon stroke="null" class="cls-30" points="3.473313093185425,-1.234818935394287 -5.159884452819824,10.768411874771118 -5.350753307342529,10.768411874771118 3.297123670578003,-1.234818935394287 3.473313093185425,-1.234818935394287 " fill="#84dbff" id="svg_34"/>
    <polygon stroke="null" class="cls-31" points="3.6641833782196045,-1.234818935394287 -4.983696937561035,10.768411874771118 -5.159884452819824,10.768411874771118 3.473313093185425,-1.234818935394287 3.6641833782196045,-1.234818935394287 " fill="#84daff" id="svg_35"/>
    <polygon stroke="null" class="cls-32" points="3.8403689861297607,-1.234818935394287 -4.7928266525268555,10.768411874771118 -4.983696937561035,10.768411874771118 3.6641833782196045,-1.234818935394287 3.8403689861297607,-1.234818935394287 " fill="#83d9ff" id="svg_36"/>
    <polygon stroke="null" class="cls-33" points="4.031241416931152,-1.234818935394287 -4.601956367492676,10.768411874771118 -4.7928266525268555,10.768411874771118 3.8403689861297607,-1.234818935394287 4.031241416931152,-1.234818935394287 " fill="#83d8ff" id="svg_37"/>
    <polygon stroke="null" class="cls-34" points="4.207428932189941,-1.234818935394287 -4.4257707595825195,10.768411874771118 -4.601956367492676,10.768411874771118 4.031241416931152,-1.234818935394287 4.207428932189941,-1.234818935394287 " fill="#82d7ff" id="svg_38"/>
    <polygon stroke="null" class="cls-35" points="4.398297309875488,-1.234818935394287 -4.23490047454834,10.768411874771118 -4.4257707595825195,10.768411874771118 4.207428932189941,-1.234818935394287 4.398297309875488,-1.234818935394287 " fill="#82d6ff" id="svg_39"/>
    <polygon stroke="null" class="cls-36" points="4.589169502258301,-1.234818935394287 -4.058713436126709,10.768411874771118 -4.23490047454834,10.768411874771118 4.398297309875488,-1.234818935394287 4.589169502258301,-1.234818935394287 " fill="#82d5ff" id="svg_40"/>
    <polygon stroke="null" class="cls-37" points="4.76535701751709,-1.234818935394287 -3.86784291267395,10.768411874771118 -4.058713436126709,10.768411874771118 4.589169502258301,-1.234818935394287 4.76535701751709,-1.234818935394287 " fill="#81d4ff" id="svg_41"/>
    <polygon stroke="null" class="cls-38" points="4.956229209899902,-1.234818935394287 -3.6916534900665283,10.768411874771118 -3.86784291267395,10.768411874771118 4.76535701751709,-1.234818935394287 4.956229209899902,-1.234818935394287 " fill="#81d3ff" id="svg_42"/>
    <polygon stroke="null" class="cls-39" points="5.132414817810059,-1.234818935394287 -3.5007851123809814,10.768411874771118 -3.6916534900665283,10.768411874771118 4.956229209899902,-1.234818935394287 5.132414817810059,-1.234818935394287 " fill="#80d2ff" id="svg_43"/>
    <polygon stroke="null" class="cls-40" points="5.323286533355713,-1.234818935394287 -3.3245975971221924,10.768411874771118 -3.5007851123809814,10.768411874771118 5.132414817810059,-1.234818935394287 5.323286533355713,-1.234818935394287 " fill="#80d1ff" id="svg_44"/>
    <polygon stroke="null" class="cls-41" points="5.49947452545166,-1.234818935394287 -3.1337249279022217,10.768411874771118 -3.3245975971221924,10.768411874771118 5.323286533355713,-1.234818935394287 5.49947452545166,-1.234818935394287 " fill="#7fd0ff" id="svg_45"/>
    <polygon stroke="null" class="cls-42" points="5.690342903137207,-1.234818935394287 -2.942857027053833,10.768411874771118 -3.1337249279022217,10.768411874771118 5.49947452545166,-1.234818935394287 5.690342903137207,-1.234818935394287 " fill="#7fcfff" id="svg_46"/>
    <polygon stroke="null" class="cls-43" points="5.881214618682861,-1.234818935394287 -2.766669273376465,10.768411874771118 -2.942857027053833,10.768411874771118 5.690342903137207,-1.234818935394287 5.881214618682861,-1.234818935394287 " fill="#7fceff" id="svg_47"/>
    <polygon stroke="null" class="cls-44" points="6.057402610778809,-1.234818935394287 -2.5757968425750732,10.768411874771118 -2.766669273376465,10.768411874771118 5.881214618682861,-1.234818935394287 6.057402610778809,-1.234818935394287 " fill="#7ecdff" id="svg_48"/>
    <polygon stroke="null" class="cls-45" points="6.2482709884643555,-1.234818935394287 -2.399609327316284,10.768411874771118 -2.5757968425750732,10.768411874771118 6.057402610778809,-1.234818935394287 6.2482709884643555,-1.234818935394287 " fill="#7eccff" id="svg_49"/>
    <polygon stroke="null" class="cls-46" points="6.424461364746094,-1.234818935394287 -2.2087390422821045,10.768411874771118 -2.399609327316284,10.768411874771118 6.2482709884643555,-1.234818935394287 6.424461364746094,-1.234818935394287 " fill="#7dcbff" id="svg_50"/>
    <polygon stroke="null" class="cls-47" points="6.615331649780273,-1.234818935394287 -2.0178706645965576,10.768411874771118 -2.2087390422821045,10.768411874771118 6.424461364746094,-1.234818935394287 6.615331649780273,-1.234818935394287 " fill="#7dcaff" id="svg_51"/>
    <polygon stroke="null" class="cls-48" points="6.791521072387695,-1.234818935394287 -1.8416831493377686,10.768411874771118 -2.0178706645965576,10.768411874771118 6.615331649780273,-1.234818935394287 6.791521072387695,-1.234818935394287 " fill="#7cc9ff" id="svg_52"/>
    <polygon stroke="null" class="cls-49" points="6.982388973236084,-1.234818935394287 -1.6508135795593262,10.768411874771118 -1.8416831493377686,10.768411874771118 6.791521072387695,-1.234818935394287 6.982388973236084,-1.234818935394287 " fill="#7cc8ff" id="svg_53"/>
    <polygon stroke="null" class="cls-50" points="7.173259735107422,-1.234818935394287 -1.4746259450912476,10.768411874771118 -1.6508135795593262,10.768411874771118 6.982388973236084,-1.234818935394287 7.173259735107422,-1.234818935394287 " fill="#7bc7ff" id="svg_54"/>
    <polygon stroke="null" class="cls-51" points="7.349443435668945,-1.234818935394287 -1.2837550640106201,10.768411874771118 -1.4746259450912476,10.768411874771118 7.173259735107422,-1.234818935394287 7.349443435668945,-1.234818935394287 " fill="#7bc6ff" id="svg_55"/>
    <polygon stroke="null" class="cls-52" points="7.540315628051758,-1.234818935394287 -1.1075680255889893,10.768411874771118 -1.2837550640106201,10.768411874771118 7.349443435668945,-1.234818935394287 7.540315628051758,-1.234818935394287 " fill="#7bc5ff" id="svg_56"/>
    <polygon stroke="null" class="cls-53" points="7.716501235961914,-1.234818935394287 -0.9166991710662842,10.768411874771118 -1.1075680255889893,10.768411874771118 7.540315628051758,-1.234818935394287 7.716501235961914,-1.234818935394287 " fill="#7ac4ff" id="svg_57"/>
    <polygon stroke="null" class="cls-54" points="7.907371520996094,-1.234818935394287 -0.7258293628692627,10.768411874771118 -0.9166991710662842,10.768411874771118 7.716501235961914,-1.234818935394287 7.907371520996094,-1.234818935394287 " fill="#7ac3ff" id="svg_58"/>
    <polygon stroke="null" class="cls-55" points="8.08355712890625,-1.234818935394287 -0.5496399402618408,10.768411874771118 -0.7258293628692627,10.768411874771118 7.907371520996094,-1.234818935394287 8.08355712890625,-1.234818935394287 " fill="#79c2ff" id="svg_59"/>
    <polygon stroke="null" class="cls-56" points="8.274431228637695,-1.234818935394287 -0.35876959562301636,10.768411874771118 -0.5496399402618408,10.768411874771118 8.08355712890625,-1.234818935394287 8.274431228637695,-1.234818935394287 " fill="#79c1ff" id="svg_60"/>
    <polygon stroke="null" class="cls-57" points="8.465299606323242,-1.234818935394287 -0.18258215487003326,10.768411874771118 -0.35876959562301636,10.768411874771118 8.274431228637695,-1.234818935394287 8.465299606323242,-1.234818935394287 " fill="#78c0ff" id="svg_61"/>
    <polygon stroke="null" class="cls-58" points="8.641487121582031,-1.234818935394287 0.008286237716674805,10.768411874771118 -0.18258215487003326,10.768411874771118 8.465299606323242,-1.234818935394287 8.641487121582031,-1.234818935394287 " fill="#78beff" id="svg_62"/>
    <polygon stroke="null" class="cls-59" points="8.832357406616211,-1.234818935394287 0.18447567522525787,10.768411874771118 0.008286237716674805,10.768411874771118 8.641487121582031,-1.234818935394287 8.832357406616211,-1.234818935394287 " fill="#78bdff" id="svg_63"/>
    <polygon stroke="null" class="cls-60" points="9.008546829223633,-1.234818935394287 0.3753478527069092,10.768411874771118 0.18447567522525787,10.768411874771118 8.832357406616211,-1.234818935394287 9.008546829223633,-1.234818935394287 " fill="#77bcff" id="svg_64"/>
    <polygon stroke="null" class="cls-61" points="9.19941520690918,-1.234818935394287 0.5662142634391785,10.768411874771118 0.3753478527069092,10.768411874771118 9.008546829223633,-1.234818935394287 9.19941520690918,-1.234818935394287 " fill="#7bf" id="svg_65"/>
    <polygon stroke="null" class="cls-62" points="9.375608444213867,-1.234818935394287 0.7424018383026123,10.768411874771118 0.5662142634391785,10.768411874771118 9.19941520690918,-1.234818935394287 9.375608444213867,-1.234818935394287 " fill="#76baff" id="svg_66"/>
    <polygon stroke="null" class="cls-63" points="9.566474914550781,-1.234818935394287 0.9332721829414368,10.768411874771118 0.7424018383026123,10.768411874771118 9.375608444213867,-1.234818935394287 9.566474914550781,-1.234818935394287 " fill="#76b9ff" id="svg_67"/>
    <polygon stroke="null" class="cls-64" points="9.757345199584961,-1.234818935394287 1.1094615459442139,10.768411874771118 0.9332721829414368,10.768411874771118 9.566474914550781,-1.234818935394287 9.757345199584961,-1.234818935394287 " fill="#75b8ff" id="svg_68"/>
    <polygon stroke="null" class="cls-65" points="9.93353271484375,-1.234818935394287 1.3003299236297607,10.768411874771118 1.1094615459442139,10.768411874771118 9.757345199584961,-1.234818935394287 9.93353271484375,-1.234818935394287 " fill="#75b7ff" id="svg_69"/>
    <polygon stroke="null" class="cls-66" points="10.124404907226562,-1.234818935394287 1.4765193462371826,10.768411874771118 1.3003299236297607,10.768411874771118 9.93353271484375,-1.234818935394287 10.124404907226562,-1.234818935394287 " fill="#75b6ff" id="svg_70"/>
    <polygon stroke="null" class="cls-67" points="10.300588607788086,-1.234818935394287 1.6673896312713623,10.768411874771118 1.4765193462371826,10.768411874771118 10.124404907226562,-1.234818935394287 10.300588607788086,-1.234818935394287 " fill="#74b5ff" id="svg_71"/>
    <polygon stroke="null" class="cls-68" points="10.491456985473633,-1.234818935394287 1.8582580089569092,10.768411874771118 1.6673896312713623,10.768411874771118 10.300588607788086,-1.234818935394287 10.491456985473633,-1.234818935394287 " fill="#74b4ff" id="svg_72"/>
    <polygon stroke="null" class="cls-69" points="10.682329177856445,-1.234818935394287 2.0344436168670654,10.768411874771118 1.8582580089569092,10.768411874771118 10.491456985473633,-1.234818935394287 10.682329177856445,-1.234818935394287 " fill="#73b3ff" id="svg_73"/>
    <polygon stroke="null" class="cls-70" points="10.858514785766602,-1.234818935394287 2.225315809249878,10.768411874771118 2.0344436168670654,10.768411874771118 10.682329177856445,-1.234818935394287 10.858514785766602,-1.234818935394287 " fill="#73b2ff" id="svg_74"/>
    <polygon stroke="null" class="cls-71" points="11.049388885498047,-1.234818935394287 2.4015052318573,10.768411874771118 2.225315809249878,10.768411874771118 10.858514785766602,-1.234818935394287 11.049388885498047,-1.234818935394287 " fill="#72b1ff" id="svg_75"/>
    <polygon stroke="null" class="cls-72" points="11.225578308105469,-1.234818935394287 2.5923736095428467,10.768411874771118 2.4015052318573,10.768411874771118 11.049388885498047,-1.234818935394287 11.225578308105469,-1.234818935394287 " fill="#72b0ff" id="svg_76"/>
    <polygon stroke="null" class="cls-73" points="11.416444778442383,-1.234818935394287 2.768559217453003,10.768411874771118 2.5923736095428467,10.768411874771118 11.225578308105469,-1.234818935394287 11.416444778442383,-1.234818935394287 " fill="#71afff" id="svg_77"/>
    <polygon stroke="null" class="cls-74" points="11.592630386352539,-1.234818935394287 2.9594314098358154,10.768411874771118 2.768559217453003,10.768411874771118 11.416444778442383,-1.234818935394287 11.592630386352539,-1.234818935394287 " fill="#71aeff" id="svg_78"/>
    <polygon stroke="null" class="cls-75" points="11.783504486083984,-1.234818935394287 3.1502997875213623,10.768411874771118 2.9594314098358154,10.768411874771118 11.592630386352539,-1.234818935394287 11.783504486083984,-1.234818935394287 " fill="#71adff" id="svg_79"/>
    <polygon stroke="null" class="cls-76" points="11.959688186645508,-1.234818935394287 3.326489210128784,10.768411874771118 3.1502997875213623,10.768411874771118 11.783504486083984,-1.234818935394287 11.959688186645508,-1.234818935394287 " fill="#70acff" id="svg_80"/>
    <polygon stroke="null" class="cls-77" points="12.150566101074219,-1.234818935394287 3.517359495162964,10.768411874771118 3.326489210128784,10.768411874771118 11.959688186645508,-1.234818935394287 12.150566101074219,-1.234818935394287 " fill="#70abff" id="svg_81"/>
    <polygon stroke="null" class="cls-78" points="12.341434478759766,-1.234818935394287 3.693545341491699,10.768411874771118 3.517359495162964,10.768411874771118 12.150566101074219,-1.234818935394287 12.341434478759766,-1.234818935394287 " fill="#6faaff" id="svg_82"/>
    <polygon stroke="null" class="cls-79" points="12.517616271972656,-1.234818935394287 3.8844192028045654,10.768411874771118 3.693545341491699,10.768411874771118 12.341434478759766,-1.234818935394287 12.517616271972656,-1.234818935394287 " fill="#6fa9ff" id="svg_83"/>
    <polygon stroke="null" class="cls-80" points="12.708488464355469,-1.234818935394287 4.075285911560059,10.768411874771118 3.8844192028045654,10.768411874771118 12.517616271972656,-1.234818935394287 12.708488464355469,-1.234818935394287 " fill="#6ea8ff" id="svg_84"/>
    <polygon stroke="null" class="cls-81" points="12.88467788696289,-1.234818935394287 4.251477241516113,10.768411874771118 4.075285911560059,10.768411874771118 12.708488464355469,-1.234818935394287 12.88467788696289,-1.234818935394287 " fill="#6ea7ff" id="svg_85"/>
    <polygon stroke="null" class="cls-82" points="13.075544357299805,-1.234818935394287 4.442347526550293,10.768411874771118 4.251477241516113,10.768411874771118 12.88467788696289,-1.234818935394287 13.075544357299805,-1.234818935394287 " fill="#6ea6ff" id="svg_86"/>
    <polygon stroke="null" class="cls-83" points="13.266410827636719,-1.234818935394287 4.618535041809082,10.768411874771118 4.442347526550293,10.768411874771118 13.075544357299805,-1.234818935394287 13.266410827636719,-1.234818935394287 " fill="#6da5ff" id="svg_87"/>
    <polygon stroke="null" class="cls-84" points="13.442604064941406,-1.234818935394287 4.809405326843262,10.768411874771118 4.618535041809082,10.768411874771118 13.266410827636719,-1.234818935394287 13.442604064941406,-1.234818935394287 " fill="#6da4ff" id="svg_88"/>
    <polygon stroke="null" class="cls-85" points="13.63347053527832,-1.234818935394287 4.985592842102051,10.768411874771118 4.809405326843262,10.768411874771118 13.442604064941406,-1.234818935394287 13.63347053527832,-1.234818935394287 " fill="#6ca3ff" id="svg_89"/>
    <polygon stroke="null" class="cls-86" points="13.809659957885742,-1.234818935394287 5.1764631271362305,10.768411874771118 4.985592842102051,10.768411874771118 13.63347053527832,-1.234818935394287 13.809659957885742,-1.234818935394287 " fill="#6ca2ff" id="svg_90"/>
    <polygon stroke="null" class="cls-87" points="14.000528335571289,-1.234818935394287 5.367331504821777,10.768411874771118 5.1764631271362305,10.768411874771118 13.809659957885742,-1.234818935394287 14.000528335571289,-1.234818935394287 " fill="#6ba1ff" id="svg_91"/>
    <polygon stroke="null" class="cls-88" points="14.176717758178711,-1.234818935394287 5.543519020080566,10.768411874771118 5.367331504821777,10.768411874771118 14.000528335571289,-1.234818935394287 14.176717758178711,-1.234818935394287 " fill="#6ba0ff" id="svg_92"/>
    <polygon stroke="null" class="cls-89" points="14.367586135864258,-1.234818935394287 5.734389305114746,10.768411874771118 5.543519020080566,10.768411874771118 14.176717758178711,-1.234818935394287 14.367586135864258,-1.234818935394287 " fill="#6b9fff" id="svg_93"/>
    <polygon stroke="null" class="cls-90" points="14.54377555847168,-1.234818935394287 5.910576820373535,10.768411874771118 5.734389305114746,10.768411874771118 14.367586135864258,-1.234818935394287 14.54377555847168,-1.234818935394287 " fill="#6a9eff" id="svg_94"/>
    <polygon stroke="null" class="cls-91" points="14.734643936157227,-1.234818935394287 6.101445198059082,10.768411874771118 5.910576820373535,10.768411874771118 14.54377555847168,-1.234818935394287 14.734643936157227,-1.234818935394287 " fill="#6a9dff" id="svg_95"/>
    <polygon stroke="null" class="cls-92" points="14.925521850585938,-1.234818935394287 6.277634620666504,10.768411874771118 6.101445198059082,10.768411874771118 14.734643936157227,-1.234818935394287 14.925521850585938,-1.234818935394287 " fill="#699cff" id="svg_96"/>
    <polygon stroke="null" class="cls-93" points="15.101701736450195,-1.234818935394287 6.468503475189209,10.768411874771118 6.277634620666504,10.768411874771118 14.925521850585938,-1.234818935394287 15.101701736450195,-1.234818935394287 " fill="#699bff" id="svg_97"/>
    <polygon stroke="null" class="cls-94" points="15.292573928833008,-1.234818935394287 6.659379959106445,10.768411874771118 6.468503475189209,10.768411874771118 15.101701736450195,-1.234818935394287 15.292573928833008,-1.234818935394287 " fill="#689aff" id="svg_98"/>
    <polygon stroke="null" class="cls-95" points="15.468759536743164,-1.234818935394287 6.835561752319336,10.768411874771118 6.659379959106445,10.768411874771118 15.292573928833008,-1.234818935394287 15.468759536743164,-1.234818935394287 " fill="#6899ff" id="svg_99"/>
    <polygon stroke="null" class="cls-96" points="15.659631729125977,-1.234818935394287 7.026437282562256,10.768411874771118 6.835561752319336,10.768411874771118 15.468759536743164,-1.234818935394287 15.659631729125977,-1.234818935394287 " fill="#6898ff" id="svg_100"/>
    <polygon stroke="null" class="cls-97" points="15.850500106811523,-1.234818935394287 7.20262336730957,10.768411874771118 7.026437282562256,10.768411874771118 15.659631729125977,-1.234818935394287 15.850500106811523,-1.234818935394287 " fill="#6797ff" id="svg_101"/>
    <polygon stroke="null" class="cls-98" points="16.026691436767578,-1.234818935394287 7.393487930297852,10.768411874771118 7.20262336730957,10.768411874771118 15.850500106811523,-1.234818935394287 16.026691436767578,-1.234818935394287 " fill="#6796ff" id="svg_102"/>
    <polygon stroke="null" class="cls-99" points="16.217561721801758,-1.234818935394287 7.569674968719482,10.768411874771118 7.393487930297852,10.768411874771118 16.026691436767578,-1.234818935394287 16.217561721801758,-1.234818935394287 " fill="#6695ff" id="svg_103"/>
    <polygon stroke="null" class="cls-100" points="16.393754959106445,-1.234818935394287 7.760549545288086,10.768411874771118 7.569674968719482,10.768411874771118 16.217561721801758,-1.234818935394287 16.393754959106445,-1.234818935394287 " fill="#6694ff" id="svg_104"/>
    <polygon stroke="null" class="cls-101" points="16.58462142944336,-1.234818935394287 7.936735153198242,10.768411874771118 7.760549545288086,10.768411874771118 16.393754959106445,-1.234818935394287 16.58462142944336,-1.234818935394287 " fill="#6593ff" id="svg_105"/>
    <polygon stroke="null" class="cls-102" points="16.760812759399414,-1.234818935394287 8.127607345581055,10.768411874771118 7.936735153198242,10.768411874771118 16.58462142944336,-1.234818935394287 16.760812759399414,-1.234818935394287 " fill="#6592ff" id="svg_106"/>
    <polygon stroke="null" class="cls-103" points="16.95168685913086,-1.234818935394287 8.318483352661133,10.768411874771118 8.127607345581055,10.768411874771118 16.760812759399414,-1.234818935394287 16.95168685913086,-1.234818935394287 " fill="#6491ff" id="svg_107"/>
    <polygon stroke="null" class="cls-104" points="17.142549514770508,-1.234818935394287 8.494665145874023,10.768411874771118 8.318483352661133,10.768411874771118 16.95168685913086,-1.234818935394287 17.142549514770508,-1.234818935394287 " fill="#6490ff" id="svg_108"/>
    <polygon stroke="null" class="cls-105" points="17.318742752075195,-1.234818935394287 8.685531616210938,10.768411874771118 8.494665145874023,10.768411874771118 17.142549514770508,-1.234818935394287 17.318742752075195,-1.234818935394287 " fill="#648fff" id="svg_109"/>
    <polygon stroke="null" class="cls-106" points="17.509618759155273,-1.234818935394287 8.861722946166992,10.768411874771118 8.685531616210938,10.768411874771118 17.318742752075195,-1.234818935394287 17.509618759155273,-1.234818935394287 " fill="#638eff" id="svg_110"/>
    <polygon stroke="null" class="cls-107" points="17.68580436706543,-1.234818935394287 9.052593231201172,10.768411874771118 8.861722946166992,10.768411874771118 17.509618759155273,-1.234818935394287 17.68580436706543,-1.234818935394287 " fill="#638dff" id="svg_111"/>
    <polygon stroke="null" class="cls-108" points="17.876678466796875,-1.234818935394287 9.243467330932617,10.768411874771118 9.052593231201172,10.768411874771118 17.68580436706543,-1.234818935394287 17.876678466796875,-1.234818935394287 " fill="#628cff" id="svg_112"/>
    <polygon stroke="null" class="cls-109" points="18.052867889404297,-1.234818935394287 9.419652938842773,10.768411874771118 9.243467330932617,10.768411874771118 17.876678466796875,-1.234818935394287 18.052867889404297,-1.234818935394287 " fill="#628bff" id="svg_113"/>
    <polygon stroke="null" class="cls-110" points="18.243730545043945,-1.234818935394287 9.610525131225586,10.768411874771118 9.419652938842773,10.768411874771118 18.052867889404297,-1.234818935394287 18.243730545043945,-1.234818935394287 " fill="#618aff" id="svg_114"/>
    <polygon stroke="null" class="cls-111" points="18.434614181518555,-1.234818935394287 9.786706924438477,10.768411874771118 9.610525131225586,10.768411874771118 18.243730545043945,-1.234818935394287 18.434614181518555,-1.234818935394287 " fill="#6189ff" id="svg_115"/>
    <polygon stroke="null" class="cls-111" points="9.786706924438477,10.768411874771118 18.434614181518555,-1.234818935394287 19.12468147277832,-1.234818935394287 19.12468147277832,10.768411874771118 9.786706924438477,10.768411874771118 " fill="#6189ff" id="svg_116"/>
   </g>
   <g stroke="null" class="cls-112" clip-path="url(#clip-path-2)" id="svg_117">
    <g stroke="null" class="cls-113" mask="url(#mask)" id="svg_118">
     <g stroke="null" class="cls-114" opacity="0.5" id="svg_119">
      <g stroke="null" class="cls-115" clip-path="url(#clip-path-3)" id="svg_120">
       <g stroke="null" class="cls-115" clip-path="url(#clip-path-3)" id="svg_121">
        <rect stroke="null" class="cls-116" x="-0.35987" y="-1.23483" width="0.32982" height="12.00323" fill="#31c3bd" id="svg_122"/>
        <rect stroke="null" class="cls-117" x="-0.03004" y="-1.23483" width="0.32982" height="12.00323" fill="#32c2be" id="svg_123"/>
        <rect stroke="null" class="cls-118" x="0.29978" y="-1.23483" width="0.32982" height="12.00323" fill="#32c1be" id="svg_124"/>
        <rect stroke="null" class="cls-119" x="0.6296" y="-1.23483" width="0.32982" height="12.00323" fill="#32c0be" id="svg_125"/>
        <rect stroke="null" class="cls-120" x="0.95943" y="-1.23483" width="0.32982" height="12.00323" fill="#32bfbf" id="svg_126"/>
        <rect stroke="null" class="cls-121" x="1.28925" y="-1.23483" width="0.32982" height="12.00323" fill="#33bebf" id="svg_127"/>
        <rect stroke="null" class="cls-122" x="1.61908" y="-1.23483" width="0.32982" height="12.00323" fill="#33bdc0" id="svg_128"/>
        <rect stroke="null" class="cls-123" x="1.9489" y="-1.23483" width="0.32982" height="12.00323" fill="#33bcc0" id="svg_129"/>
        <rect stroke="null" class="cls-124" x="2.27872" y="-1.23483" width="0.32982" height="12.00323" fill="#33bbc1" id="svg_130"/>
        <rect stroke="null" class="cls-125" x="2.60855" y="-1.23483" width="0.32982" height="12.00323" fill="#34bac1" id="svg_131"/>
        <rect stroke="null" class="cls-126" x="2.93837" y="-1.23483" width="0.32982" height="12.00323" fill="#34b9c2" id="svg_132"/>
        <rect stroke="null" class="cls-127" x="3.26819" y="-1.23483" width="0.32982" height="12.00323" fill="#34b8c2" id="svg_133"/>
        <rect stroke="null" class="cls-128" x="3.59802" y="-1.23483" width="0.32982" height="12.00323" fill="#34b7c3" id="svg_134"/>
        <rect stroke="null" class="cls-129" x="3.92784" y="-1.23483" width="0.32982" height="12.00323" fill="#35b6c3" id="svg_135"/>
        <rect stroke="null" class="cls-130" x="4.25767" y="-1.23483" width="0.32982" height="12.00323" fill="#35b5c3" id="svg_136"/>
        <rect stroke="null" class="cls-131" x="4.58749" y="-1.23483" width="0.32982" height="12.00323" fill="#35b4c4" id="svg_137"/>
        <rect stroke="null" class="cls-132" x="4.91731" y="-1.23483" width="0.32982" height="12.00323" fill="#35b3c4" id="svg_138"/>
        <rect stroke="null" class="cls-133" x="5.24714" y="-1.23483" width="0.32982" height="12.00323" fill="#36b2c5" id="svg_139"/>
        <rect stroke="null" class="cls-134" x="5.649" y="-1.23483" width="0.32982" height="12.00323" fill="#36b1c5" id="svg_140"/>
        <rect stroke="null" class="cls-135" x="5.97883" y="-1.23483" width="0.32982" height="12.00323" fill="#36b0c6" id="svg_141"/>
        <rect stroke="null" class="cls-136" x="6.30865" y="-1.23483" width="0.32982" height="12.00323" fill="#36afc6" id="svg_142"/>
        <rect stroke="null" class="cls-137" x="6.63847" y="-1.23483" width="0.32982" height="12.00323" fill="#37aec7" id="svg_143"/>
        <rect stroke="null" class="cls-138" x="6.9683" y="-1.23483" width="0.32982" height="12.00323" fill="#37adc7" id="svg_144"/>
        <rect stroke="null" class="cls-139" x="7.29812" y="-1.23483" width="0.32982" height="12.00323" fill="#37acc8" id="svg_145"/>
        <rect stroke="null" class="cls-140" x="7.62795" y="-1.23483" width="0.32982" height="12.00323" fill="#38abc8" id="svg_146"/>
        <rect stroke="null" class="cls-141" x="7.95777" y="-1.23483" width="0.32982" height="12.00323" fill="#38aac8" id="svg_147"/>
        <rect stroke="null" class="cls-142" x="8.28759" y="-1.23483" width="0.32982" height="12.00323" fill="#38a9c9" id="svg_148"/>
        <rect stroke="null" class="cls-143" x="8.61742" y="-1.23483" width="0.32982" height="12.00323" fill="#38a8c9" id="svg_149"/>
        <rect stroke="null" class="cls-144" x="8.94724" y="-1.23483" width="0.32982" height="12.00323" fill="#39a7ca" id="svg_150"/>
        <rect stroke="null" class="cls-145" x="9.27707" y="-1.23483" width="0.32982" height="12.00323" fill="#39a6ca" id="svg_151"/>
        <rect stroke="null" class="cls-146" x="9.60689" y="-1.23483" width="0.32982" height="12.00323" fill="#39a5cb" id="svg_152"/>
        <rect stroke="null" class="cls-147" x="9.93671" y="-1.23483" width="0.32982" height="12.00323" fill="#39a4cb" id="svg_153"/>
        <rect stroke="null" class="cls-148" x="10.26654" y="-1.23483" width="0.32982" height="12.00323" fill="#3aa3cc" id="svg_154"/>
        <rect stroke="null" class="cls-149" x="10.59636" y="-1.23483" width="0.32982" height="12.00323" fill="#3aa2cc" id="svg_155"/>
        <rect stroke="null" class="cls-150" x="10.92618" y="-1.23483" width="0.32982" height="12.00323" fill="#3aa1cd" id="svg_156"/>
        <rect stroke="null" class="cls-151" x="11.25601" y="-1.23483" width="0.32982" height="12.00323" fill="#3aa0cd" id="svg_157"/>
        <rect stroke="null" class="cls-152" x="11.58583" y="-1.23483" width="0.32982" height="12.00323" fill="#3b9fcd" id="svg_158"/>
        <rect stroke="null" class="cls-153" x="11.91566" y="-1.23483" width="0.32982" height="12.00323" fill="#3b9ece" id="svg_159"/>
        <rect stroke="null" class="cls-154" x="12.24548" y="-1.23483" width="0.32982" height="12.00323" fill="#3b9dce" id="svg_160"/>
        <rect stroke="null" class="cls-155" x="12.5753" y="-1.23483" width="0.32982" height="12.00323" fill="#3b9ccf" id="svg_161"/>
        <rect stroke="null" class="cls-156" x="12.90513" y="-1.23483" width="0.32982" height="12.00323" fill="#3c9acf" id="svg_162"/>
        <rect stroke="null" class="cls-157" x="13.23495" y="-1.23483" width="0.32982" height="12.00323" fill="#3c99d0" id="svg_163"/>
        <rect stroke="null" class="cls-158" x="13.56477" y="-1.23483" width="0.32982" height="12.00323" fill="#3c98d0" id="svg_164"/>
        <rect stroke="null" class="cls-159" x="13.8946" y="-1.23483" width="0.32982" height="12.00323" fill="#3c97d1" id="svg_165"/>
        <rect stroke="null" class="cls-160" x="14.22442" y="-1.23483" width="0.32982" height="12.00323" fill="#3d96d1" id="svg_166"/>
        <rect stroke="null" class="cls-161" x="14.55425" y="-1.23483" width="0.32982" height="12.00323" fill="#3d95d1" id="svg_167"/>
        <rect stroke="null" class="cls-162" x="14.88407" y="-1.23483" width="0.32982" height="12.00323" fill="#3d94d2" id="svg_168"/>
        <rect stroke="null" class="cls-163" x="15.21389" y="-1.23483" width="0.32982" height="12.00323" fill="#3d93d2" id="svg_169"/>
        <rect stroke="null" class="cls-164" x="15.54372" y="-1.23483" width="0.32982" height="12.00323" fill="#3e92d3" id="svg_170"/>
        <rect stroke="null" class="cls-165" x="15.87354" y="-1.23483" width="0.32982" height="12.00323" fill="#3e91d3" id="svg_171"/>
        <rect stroke="null" class="cls-166" x="16.20336" y="-1.23483" width="0.32982" height="12.00323" fill="#3e90d4" id="svg_172"/>
        <rect stroke="null" class="cls-167" x="16.53319" y="-1.23483" width="0.32982" height="12.00323" fill="#3e8fd4" id="svg_173"/>
        <rect stroke="null" class="cls-168" x="16.86301" y="-1.23483" width="0.32982" height="12.00323" fill="#3f8ed5" id="svg_174"/>
        <rect stroke="null" class="cls-169" x="17.19284" y="-1.23483" width="0.32982" height="12.00323" fill="#3f8dd5" id="svg_175"/>
        <rect stroke="null" class="cls-170" x="17.52266" y="-1.23483" width="0.32982" height="12.00323" fill="#3f8cd6" id="svg_176"/>
        <rect stroke="null" class="cls-171" x="17.85248" y="-1.23483" width="0.32982" height="12.00323" fill="#3f8bd6" id="svg_177"/>
        <rect stroke="null" class="cls-172" x="18.18231" y="-1.23483" width="0.32982" height="12.00323" fill="#408ad6" id="svg_178"/>
        <rect stroke="null" class="cls-173" x="18.51213" y="-1.23483" width="0.32982" height="12.00323" fill="#4089d7" id="svg_179"/>
       </g>
      </g>
     </g>
    </g>
   </g>
   <path stroke="#000" fill="#fff" opacity="NaN" d="m-3.24513,3.75389" id="svg_181"/>
  </g>
  <g id="svg_184">
   <metadata>Created by potrace 1.15, written by Peter Selinger 2001-2017</metadata>
   <g id="svg_185" transform="translate(0 1280) scale(0.1 -0.1)" fill="#000000">
    <path id="svg_186" d="m-1808.34717,17980.37158c-1261,-110 -2368,-843 -2959,-1961c-414,-785 -529,-1723 -315,-2584c237,-951 844,-1771 1688,-2278c1121,-673 2523,-695 3659,-59c119,67 333,204 402,258l30,24l1965,-1964c1529,-1528 1977,-1970 2020,-1994c199,-110 430,-72 600,98c169,169 208,403 98,599c-24,44 -466,492 -1994,2021l-1964,1965l24,30c54,69 189,279 257,400c427,762 564,1652 388,2517c-115,570 -355,1077 -740,1567c-103,131 -411,441 -539,543c-570,452 -1194,718 -1890,803c-150,19 -583,27 -730,15zm592,-925c953,-101 1780,-684 2192,-1545c115,-241 187,-467 231,-725c135,-793 -71,-1588 -574,-2212c-96,-120 -295,-318 -414,-413c-412,-329 -897,-529 -1432,-591c-137,-16 -456,-16 -595,0c-529,60 -1024,266 -1440,597c-109,87 -327,305 -414,414c-311,390 -508,848 -583,1355c-25,171 -25,593 0,755c51,330 131,585 269,862c323,647 891,1142 1573,1372c193,66 426,116 620,135c145,14 419,12 567,-4z"/>
   </g>
  </g>
  <ellipse stroke="#000000" stroke-width="0.8" fill="none" cx="7.64786" cy="6.65411" id="svg_182" rx="4.71869" ry="4.74994"/>
  <path stroke="#000" stroke-width="0.8" fill="none" opacity="undefined" d="m10.55407,10.65406l2.81246,3.18746" id="svg_183"/>
 </g>
</svg>