<svg width="16" height="16" xmlns="http://www.w3.org/2000/svg" data-name="图层 1">
 <defs>
  <clipPath id="clip-path">
   <path class="cls-3" d="m9.83406,2.05825l-1.38,0l-1.67,4.27l-1.68,-4.27l-1.38,0l-0.52,5.82l1.37,0l0.29,-3.2l1.35,3.09l1.14,0l1.34,-3.09l0.29,3.2l1.37,0l-0.52,-5.82zm-9.73,-0.92l0,0l0,0.9l0,0l0,7.25l2.28,0l0,-0.91l-1.37,0l0,-6.33l1.37,0l0,-0.9l-2.28,0l0,-0.01zm11.08,0l0,0l0,0.9l1.36,0l0,6.34l-1.36,0l0,0.91l2.28,0l0,-7.24l0,0l0,-0.9l-2.28,0l0,-0.01zm3.09,0.08a0.81,0.81 0 0 0 0.61,0.71c0.24,0.1 0.46,0.15 0.46,0.28s-0.07,0.14 -0.24,0.14a1,1 0 0 1 -0.59,-0.24l-0.41,0.52a1.6,1.6 0 0 0 0.93,0.34c0.67,0 1,-0.35 1,-0.8a0.77,0.77 0 0 0 -0.62,-0.72c-0.24,-0.09 -0.45,-0.13 -0.45,-0.26s0.07,-0.13 0.21,-0.13a0.89,0.89 0 0 1 0.49,0.2l0.44,-0.5a1.42,1.42 0 0 0 -0.88,-0.32c-0.57,0 -1,0.31 -1,0.78" fill="none" id="svg_1"/>
  </clipPath>
  <clipPath id="clip-path-2">
   <rect x="0.10406" class="cls-3" y="0.44825" width="16" height="8.87" fill="none" id="svg_2"/>
  </clipPath>
  <filter id="luminosity-invert" filterUnits="userSpaceOnUse" color-interpolation-filters="sRGB"/>
  <mask id="mask" x="-0.53" y="2.78" width="16.88" height="10.19" maskUnits="userSpaceOnUse">
   <g class="cls-1" isolation="isolate" filter="url(#luminosity-invert)" id="svg_3">
    <polygon class="cls-2" points="4.76 7.8 6.1 10.89 6.67 9.45 4.99 5.18 4.76 7.8" fill="#020202" id="svg_4"/>
    <polygon class="cls-2" points="9.72 5.18 8.59 7.81 8.88 10.99 10.25 10.99 9.72 5.18" fill="#020202" id="svg_5"/>
   </g>
  </mask>
  <clipPath id="clip-path-3">
   <rect class="cls-3" x="93.37834" y="49.38049" width="16.88" height="10.19" fill="none" id="svg_6"/>
  </clipPath>
 </defs>
 <title>画板 5</title>
 <g>
  <title>Layer 1</title>
  <g stroke="null" id="svg_180">
   <g stroke="null" class="cls-4" clip-path="url(#clip-path)" id="svg_7">
    <polygon stroke="null" class="cls-5" points="-2.2147116661071777,-2.644274227321148 -6.560671806335449,3.3867893293499947 -6.560671806335449,-2.644274227321148 -2.2147116661071777,-2.644274227321148 " fill="#8ff4ff" id="svg_8"/>
    <polygon stroke="null" class="cls-5" points="-2.0238394737243652,-2.644274227321148 -6.560671806335449,3.6459350660443306 -6.560671806335449,3.3867893293499947 -2.2147116661071777,-2.644274227321148 -2.0238394737243652,-2.644274227321148 " fill="#8ff4ff" id="svg_9"/>
    <polygon stroke="null" class="cls-6" points="-1.8476526737213135,-2.644274227321148 -6.560671806335449,3.893304832279682 -6.560671806335449,3.6459350660443306 -2.0238394737243652,-2.644274227321148 -1.8476526737213135,-2.644274227321148 " fill="#8ff3ff" id="svg_10"/>
    <polygon stroke="null" class="cls-7" points="-1.6567833423614502,-2.644274227321148 -6.560671806335449,4.152450568974018 -6.560671806335449,3.893304832279682 -1.8476526737213135,-2.644274227321148 -1.6567833423614502,-2.644274227321148 " fill="#8ef2ff" id="svg_11"/>
    <polygon stroke="null" class="cls-8" points="-1.4659132957458496,-2.644274227321148 -6.560671806335449,4.41160012036562 -6.560671806335449,4.152450568974018 -1.6567833423614502,-2.644274227321148 -1.4659132957458496,-2.644274227321148 " fill="#8ef1ff" id="svg_12"/>
    <polygon stroke="null" class="cls-9" points="-1.2897260189056396,-2.644274227321148 -6.560671806335449,4.670745857059956 -6.560671806335449,4.41160012036562 -1.4659132957458496,-2.644274227321148 -1.2897260189056396,-2.644274227321148 " fill="#8df0ff" id="svg_13"/>
    <polygon stroke="null" class="cls-10" points="-1.0988566875457764,-2.644274227321148 -6.560671806335449,4.918113715946674 -6.560671806335449,4.670745857059956 -1.2897260189056396,-2.644274227321148 -1.0988566875457764,-2.644274227321148 " fill="#8defff" id="svg_14"/>
    <polygon stroke="null" class="cls-11" points="-0.9226671457290649,-2.644274227321148 -6.560671806335449,5.177261359989643 -6.560671806335449,4.918113715946674 -1.0988566875457764,-2.644274227321148 -0.9226671457290649,-2.644274227321148 " fill="#8ceeff" id="svg_15"/>
    <polygon stroke="null" class="cls-12" points="-0.7317959070205688,-2.644274227321148 -6.560671806335449,5.436409004032612 -6.560671806335449,5.177261359989643 -0.9226671457290649,-2.644274227321148 -0.7317959070205688,-2.644274227321148 " fill="#8cedff" id="svg_16"/>
    <polygon stroke="null" class="cls-13" points="-0.5556080937385559,-2.644274227321148 -6.560671806335449,5.695554740726948 -6.560671806335449,5.436409004032612 -0.7317959070205688,-2.644274227321148 -0.5556080937385559,-2.644274227321148 " fill="#8cecff" id="svg_17"/>
    <polygon stroke="null" class="cls-14" points="-0.3647400140762329,-2.644274227321148 -6.560671806335449,5.954700477421284 -6.560671806335449,5.695554740726948 -0.5556080937385559,-2.644274227321148 -0.3647400140762329,-2.644274227321148 " fill="#8bebff" id="svg_18"/>
    <polygon stroke="null" class="cls-15" points="-0.188554048538208,-2.644274227321148 -6.560671806335449,6.202072151005268 -6.560671806335449,5.954700477421284 -0.3647400140762329,-2.644274227321148 -0.188554048538208,-2.644274227321148 " fill="#8beaff" id="svg_19"/>
    <polygon stroke="null" class="cls-16" points="0.0023181214928627014,-2.644274227321148 -6.560671806335449,6.461215980350971 -6.560671806335449,6.202072151005268 -0.188554048538208,-2.644274227321148 0.0023181214928627014,-2.644274227321148 " fill="#8ae9ff" id="svg_20"/>
    <polygon stroke="null" class="cls-17" points="0.19318822026252747,-2.644274227321148 -6.560671806335449,6.72036362439394 -6.560671806335449,6.461215980350971 0.0023181214928627014,-2.644274227321148 0.19318822026252747,-2.644274227321148 " fill="#8ae8ff" id="svg_21"/>
    <polygon stroke="null" class="cls-18" points="0.36937591433525085,-2.644274227321148 -6.560671806335449,6.979511268436909 -6.560671806335449,6.72036362439394 0.19318822026252747,-2.644274227321148 0.36937591433525085,-2.644274227321148 " fill="#89e7ff" id="svg_22"/>
    <polygon stroke="null" class="cls-19" points="0.5602441430091858,-2.644274227321148 -6.560671806335449,7.2268791273236275 -6.560671806335449,6.979511268436909 0.36937591433525085,-2.644274227321148 0.5602441430091858,-2.644274227321148 " fill="#89e6ff" id="svg_23"/>
    <polygon stroke="null" class="cls-20" points="0.7364355325698853,-2.644274227321148 -6.560671806335449,7.486024864017963 -6.560671806335449,7.2268791273236275 0.5602441430091858,-2.644274227321148 0.7364355325698853,-2.644274227321148 " fill="#88e5ff" id="svg_24"/>
    <polygon stroke="null" class="cls-21" points="0.9273040890693665,-2.644274227321148 -6.560671806335449,7.745175369083881 -6.560671806335449,7.486024864017963 0.7364355325698853,-2.644274227321148 0.9273040890693665,-2.644274227321148 " fill="#88e4ff" id="svg_25"/>
    <polygon stroke="null" class="cls-22" points="1.1181740760803223,-2.644274227321148 -6.560671806335449,8.004321105778217 -6.560671806335449,7.745175369083881 0.9273040890693665,-2.644274227321148 1.1181740760803223,-2.644274227321148 " fill="#88e3ff" id="svg_26"/>
    <polygon stroke="null" class="cls-23" points="1.2943634986877441,-2.644274227321148 -6.560671806335449,8.263472564518452 -6.560671806335449,8.004321105778217 1.1181740760803223,-2.644274227321148 1.2943634986877441,-2.644274227321148 " fill="#87e2ff" id="svg_27"/>
    <polygon stroke="null" class="cls-24" points="1.4852337837219238,-2.644274227321148 -6.560671806335449,8.510838516056538 -6.560671806335449,8.263472564518452 1.2943634986877441,-2.644274227321148 1.4852337837219238,-2.644274227321148 " fill="#87e1ff" id="svg_28"/>
    <polygon stroke="null" class="cls-25" points="1.6614196300506592,-2.644274227321148 -6.560671806335449,8.769984252750874 -6.560671806335449,8.510838516056538 1.4852337837219238,-2.644274227321148 1.6614196300506592,-2.644274227321148 " fill="#86e0ff" id="svg_29"/>
    <polygon stroke="null" class="cls-26" points="1.8522896766662598,-2.644274227321148 -6.560671806335449,9.02913761883974 -6.560671806335449,8.769984252750874 1.6614196300506592,-2.644274227321148 1.8522896766662598,-2.644274227321148 " fill="#86dfff" id="svg_30"/>
    <polygon stroke="null" class="cls-27" points="2.028477191925049,-2.644274227321148 -6.560671806335449,9.288279540836811 -6.560671806335449,9.02913761883974 1.8522896766662598,-2.644274227321148 2.028477191925049,-2.644274227321148 " fill="#85deff" id="svg_31"/>
    <polygon stroke="null" class="cls-28" points="2.2193474769592285,-2.644274227321148 -6.413847923278809,9.358956344425678 -6.560671806335449,9.358956344425678 -6.560671806335449,9.288279540836811 2.028477191925049,-2.644274227321148 2.2193474769592285,-2.644274227321148 " fill="#85ddff" id="svg_32"/>
    <polygon stroke="null" class="cls-29" points="2.4102158546447754,-2.644274227321148 -6.2376604080200195,9.358956344425678 -6.413847923278809,9.358956344425678 2.2193474769592285,-2.644274227321148 2.4102158546447754,-2.644274227321148 " fill="#85dcff" id="svg_33"/>
    <polygon stroke="null" class="cls-30" points="2.5864055156707764,-2.644274227321148 -6.046792030334473,9.358956344425678 -6.2376604080200195,9.358956344425678 2.4102158546447754,-2.644274227321148 2.5864055156707764,-2.644274227321148 " fill="#84dbff" id="svg_34"/>
    <polygon stroke="null" class="cls-31" points="2.777275562286377,-2.644274227321148 -5.870604515075684,9.358956344425678 -6.046792030334473,9.358956344425678 2.5864055156707764,-2.644274227321148 2.777275562286377,-2.644274227321148 " fill="#84daff" id="svg_35"/>
    <polygon stroke="null" class="cls-32" points="2.953461170196533,-2.644274227321148 -5.679734230041504,9.358956344425678 -5.870604515075684,9.358956344425678 2.777275562286377,-2.644274227321148 2.953461170196533,-2.644274227321148 " fill="#83d9ff" id="svg_36"/>
    <polygon stroke="null" class="cls-33" points="3.1443333625793457,-2.644274227321148 -5.488863945007324,9.358956344425678 -5.679734230041504,9.358956344425678 2.953461170196533,-2.644274227321148 3.1443333625793457,-2.644274227321148 " fill="#83d8ff" id="svg_37"/>
    <polygon stroke="null" class="cls-34" points="3.3205208778381348,-2.644274227321148 -5.312678813934326,9.358956344425678 -5.488863945007324,9.358956344425678 3.1443333625793457,-2.644274227321148 3.3205208778381348,-2.644274227321148 " fill="#82d7ff" id="svg_38"/>
    <polygon stroke="null" class="cls-35" points="3.5113892555236816,-2.644274227321148 -5.1218085289001465,9.358956344425678 -5.312678813934326,9.358956344425678 3.3205208778381348,-2.644274227321148 3.5113892555236816,-2.644274227321148 " fill="#82d6ff" id="svg_39"/>
    <polygon stroke="null" class="cls-36" points="3.702261447906494,-2.644274227321148 -4.945621013641357,9.358956344425678 -5.1218085289001465,9.358956344425678 3.5113892555236816,-2.644274227321148 3.702261447906494,-2.644274227321148 " fill="#82d5ff" id="svg_40"/>
    <polygon stroke="null" class="cls-37" points="3.878448963165283,-2.644274227321148 -4.754750728607178,9.358956344425678 -4.945621013641357,9.358956344425678 3.702261447906494,-2.644274227321148 3.878448963165283,-2.644274227321148 " fill="#81d4ff" id="svg_41"/>
    <polygon stroke="null" class="cls-38" points="4.069321155548096,-2.644274227321148 -4.578561305999756,9.358956344425678 -4.754750728607178,9.358956344425678 3.878448963165283,-2.644274227321148 4.069321155548096,-2.644274227321148 " fill="#81d3ff" id="svg_42"/>
    <polygon stroke="null" class="cls-39" points="4.245506763458252,-2.644274227321148 -4.387692928314209,9.358956344425678 -4.578561305999756,9.358956344425678 4.069321155548096,-2.644274227321148 4.245506763458252,-2.644274227321148 " fill="#80d2ff" id="svg_43"/>
    <polygon stroke="null" class="cls-40" points="4.4363789558410645,-2.644274227321148 -4.21150541305542,9.358956344425678 -4.387692928314209,9.358956344425678 4.245506763458252,-2.644274227321148 4.4363789558410645,-2.644274227321148 " fill="#80d1ff" id="svg_44"/>
    <polygon stroke="null" class="cls-41" points="4.6125664710998535,-2.644274227321148 -4.020632743835449,9.358956344425678 -4.21150541305542,9.358956344425678 4.4363789558410645,-2.644274227321148 4.6125664710998535,-2.644274227321148 " fill="#7fd0ff" id="svg_45"/>
    <polygon stroke="null" class="cls-42" points="4.8034348487854,-2.644274227321148 -3.8297648429870605,9.358956344425678 -4.020632743835449,9.358956344425678 4.6125664710998535,-2.644274227321148 4.8034348487854,-2.644274227321148 " fill="#7fcfff" id="svg_46"/>
    <polygon stroke="null" class="cls-43" points="4.994307041168213,-2.644274227321148 -3.6535773277282715,9.358956344425678 -3.8297648429870605,9.358956344425678 4.8034348487854,-2.644274227321148 4.994307041168213,-2.644274227321148 " fill="#7fceff" id="svg_47"/>
    <polygon stroke="null" class="cls-44" points="5.170494556427002,-2.644274227321148 -3.462704658508301,9.358956344425678 -3.6535773277282715,9.358956344425678 4.994307041168213,-2.644274227321148 5.170494556427002,-2.644274227321148 " fill="#7ecdff" id="svg_48"/>
    <polygon stroke="null" class="cls-45" points="5.361362934112549,-2.644274227321148 -3.2865171432495117,9.358956344425678 -3.462704658508301,9.358956344425678 5.170494556427002,-2.644274227321148 5.361362934112549,-2.644274227321148 " fill="#7eccff" id="svg_49"/>
    <polygon stroke="null" class="cls-46" points="5.537553310394287,-2.644274227321148 -3.095646858215332,9.358956344425678 -3.2865171432495117,9.358956344425678 5.361362934112549,-2.644274227321148 5.537553310394287,-2.644274227321148 " fill="#7dcbff" id="svg_50"/>
    <polygon stroke="null" class="cls-47" points="5.728423595428467,-2.644274227321148 -2.904778480529785,9.358956344425678 -3.095646858215332,9.358956344425678 5.537553310394287,-2.644274227321148 5.728423595428467,-2.644274227321148 " fill="#7dcaff" id="svg_51"/>
    <polygon stroke="null" class="cls-48" points="5.904613018035889,-2.644274227321148 -2.728590965270996,9.358956344425678 -2.904778480529785,9.358956344425678 5.728423595428467,-2.644274227321148 5.904613018035889,-2.644274227321148 " fill="#7cc9ff" id="svg_52"/>
    <polygon stroke="null" class="cls-49" points="6.0954813957214355,-2.644274227321148 -2.5377211570739746,9.358956344425678 -2.728590965270996,9.358956344425678 5.904613018035889,-2.644274227321148 6.0954813957214355,-2.644274227321148 " fill="#7cc8ff" id="svg_53"/>
    <polygon stroke="null" class="cls-50" points="6.286351680755615,-2.644274227321148 -2.3615336418151855,9.358956344425678 -2.5377211570739746,9.358956344425678 6.0954813957214355,-2.644274227321148 6.286351680755615,-2.644274227321148 " fill="#7bc7ff" id="svg_54"/>
    <polygon stroke="null" class="cls-51" points="6.4625349044799805,-2.644274227321148 -2.1706628799438477,9.358956344425678 -2.3615336418151855,9.358956344425678 6.286351680755615,-2.644274227321148 6.4625349044799805,-2.644274227321148 " fill="#7bc6ff" id="svg_55"/>
    <polygon stroke="null" class="cls-52" points="6.653407096862793,-2.644274227321148 -1.994476079940796,9.358956344425678 -2.1706628799438477,9.358956344425678 6.4625349044799805,-2.644274227321148 6.653407096862793,-2.644274227321148 " fill="#7bc5ff" id="svg_56"/>
    <polygon stroke="null" class="cls-53" points="6.829592704772949,-2.644274227321148 -1.8036072254180908,9.358956344425678 -1.994476079940796,9.358956344425678 6.653407096862793,-2.644274227321148 6.829592704772949,-2.644274227321148 " fill="#7ac4ff" id="svg_57"/>
    <polygon stroke="null" class="cls-54" points="7.020462989807129,-2.644274227321148 -1.6127369403839111,9.358956344425678 -1.8036072254180908,9.358956344425678 6.829592704772949,-2.644274227321148 7.020462989807129,-2.644274227321148 " fill="#7ac3ff" id="svg_58"/>
    <polygon stroke="null" class="cls-55" points="7.196648597717285,-2.644274227321148 -1.4365476369857788,9.358956344425678 -1.6127369403839111,9.358956344425678 7.020462989807129,-2.644274227321148 7.196648597717285,-2.644274227321148 " fill="#79c2ff" id="svg_59"/>
    <polygon stroke="null" class="cls-56" points="7.3875226974487305,-2.644274227321148 -1.2456775903701782,9.358956344425678 -1.4365476369857788,9.358956344425678 7.196648597717285,-2.644274227321148 7.3875226974487305,-2.644274227321148 " fill="#79c1ff" id="svg_60"/>
    <polygon stroke="null" class="cls-57" points="7.578392028808594,-2.644274227321148 -1.06948983669281,9.358956344425678 -1.2456775903701782,9.358956344425678 7.3875226974487305,-2.644274227321148 7.578392028808594,-2.644274227321148 " fill="#78c0ff" id="svg_61"/>
    <polygon stroke="null" class="cls-58" points="7.754578590393066,-2.644274227321148 -0.878621518611908,9.358956344425678 -1.06948983669281,9.358956344425678 7.578392028808594,-2.644274227321148 7.754578590393066,-2.644274227321148 " fill="#78beff" id="svg_62"/>
    <polygon stroke="null" class="cls-59" points="7.945448875427246,-2.644274227321148 -0.7024317979812622,9.358956344425678 -0.878621518611908,9.358956344425678 7.754578590393066,-2.644274227321148 7.945448875427246,-2.644274227321148 " fill="#78bdff" id="svg_63"/>
    <polygon stroke="null" class="cls-60" points="8.121639251708984,-2.644274227321148 -0.511559784412384,9.358956344425678 -0.7024317979812622,9.358956344425678 7.945448875427246,-2.644274227321148 8.121639251708984,-2.644274227321148 " fill="#77bcff" id="svg_64"/>
    <polygon stroke="null" class="cls-61" points="8.312506675720215,-2.644274227321148 -0.32069411873817444,9.358956344425678 -0.511559784412384,9.358956344425678 8.121639251708984,-2.644274227321148 8.312506675720215,-2.644274227321148 " fill="#7bf" id="svg_65"/>
    <polygon stroke="null" class="cls-62" points="8.488699913024902,-2.644274227321148 -0.14450591802597046,9.358956344425678 -0.32069411873817444,9.358956344425678 8.312506675720215,-2.644274227321148 8.488699913024902,-2.644274227321148 " fill="#76baff" id="svg_66"/>
    <polygon stroke="null" class="cls-63" points="8.679567337036133,-2.644274227321148 0.04636448994278908,9.358956344425678 -0.14450591802597046,9.358956344425678 8.488699913024902,-2.644274227321148 8.679567337036133,-2.644274227321148 " fill="#76b9ff" id="svg_67"/>
    <polygon stroke="null" class="cls-64" points="8.870437622070312,-2.644274227321148 0.22255384922027588,9.358956344425678 0.04636448994278908,9.358956344425678 8.679567337036133,-2.644274227321148 8.870437622070312,-2.644274227321148 " fill="#75b8ff" id="svg_68"/>
    <polygon stroke="null" class="cls-65" points="9.046624183654785,-2.644274227321148 0.41342222690582275,9.358956344425678 0.22255384922027588,9.358956344425678 8.870437622070312,-2.644274227321148 9.046624183654785,-2.644274227321148 " fill="#75b7ff" id="svg_69"/>
    <polygon stroke="null" class="cls-66" points="9.237496376037598,-2.644274227321148 0.5896116495132446,9.358956344425678 0.41342222690582275,9.358956344425678 9.046624183654785,-2.644274227321148 9.237496376037598,-2.644274227321148 " fill="#75b6ff" id="svg_70"/>
    <polygon stroke="null" class="cls-67" points="9.413680076599121,-2.644274227321148 0.7804821133613586,9.358956344425678 0.5896116495132446,9.358956344425678 9.237496376037598,-2.644274227321148 9.413680076599121,-2.644274227321148 " fill="#74b5ff" id="svg_71"/>
    <polygon stroke="null" class="cls-68" points="9.604549407958984,-2.644274227321148 0.9713502526283264,9.358956344425678 0.7804821133613586,9.358956344425678 9.413680076599121,-2.644274227321148 9.604549407958984,-2.644274227321148 " fill="#74b4ff" id="svg_72"/>
    <polygon stroke="null" class="cls-69" points="9.795421600341797,-2.644274227321148 1.147536039352417,9.358956344425678 0.9713502526283264,9.358956344425678 9.604549407958984,-2.644274227321148 9.795421600341797,-2.644274227321148 " fill="#73b3ff" id="svg_73"/>
    <polygon stroke="null" class="cls-70" points="9.971606254577637,-2.644274227321148 1.3384082317352295,9.358956344425678 1.147536039352417,9.358956344425678 9.795421600341797,-2.644274227321148 9.971606254577637,-2.644274227321148 " fill="#73b2ff" id="svg_74"/>
    <polygon stroke="null" class="cls-71" points="10.162480354309082,-2.644274227321148 1.5145974159240723,9.358956344425678 1.3384082317352295,9.358956344425678 9.971606254577637,-2.644274227321148 10.162480354309082,-2.644274227321148 " fill="#72b1ff" id="svg_75"/>
    <polygon stroke="null" class="cls-72" points="10.33867073059082,-2.644274227321148 1.7054660320281982,9.358956344425678 1.5145974159240723,9.358956344425678 10.162480354309082,-2.644274227321148 10.33867073059082,-2.644274227321148 " fill="#72b0ff" id="svg_76"/>
    <polygon stroke="null" class="cls-73" points="10.529536247253418,-2.644274227321148 1.8816514015197754,9.358956344425678 1.7054660320281982,9.358956344425678 10.33867073059082,-2.644274227321148 10.529536247253418,-2.644274227321148 " fill="#71afff" id="svg_77"/>
    <polygon stroke="null" class="cls-74" points="10.705721855163574,-2.644274227321148 2.072523593902588,9.358956344425678 1.8816514015197754,9.358956344425678 10.529536247253418,-2.644274227321148 10.705721855163574,-2.644274227321148 " fill="#71aeff" id="svg_78"/>
    <polygon stroke="null" class="cls-75" points="10.89659595489502,-2.644274227321148 2.2633919715881348,9.358956344425678 2.072523593902588,9.358956344425678 10.705721855163574,-2.644274227321148 10.89659595489502,-2.644274227321148 " fill="#71adff" id="svg_79"/>
    <polygon stroke="null" class="cls-76" points="11.07278060913086,-2.644274227321148 2.4395813941955566,9.358956344425678 2.2633919715881348,9.358956344425678 10.89659595489502,-2.644274227321148 11.07278060913086,-2.644274227321148 " fill="#70acff" id="svg_80"/>
    <polygon stroke="null" class="cls-77" points="11.263657569885254,-2.644274227321148 2.6304516792297363,9.358956344425678 2.4395813941955566,9.358956344425678 11.07278060913086,-2.644274227321148 11.263657569885254,-2.644274227321148 " fill="#70abff" id="svg_81"/>
    <polygon stroke="null" class="cls-78" points="11.4545259475708,-2.644274227321148 2.8066372871398926,9.358956344425678 2.6304516792297363,9.358956344425678 11.263657569885254,-2.644274227321148 11.4545259475708,-2.644274227321148 " fill="#6faaff" id="svg_82"/>
    <polygon stroke="null" class="cls-79" points="11.630708694458008,-2.644274227321148 2.997511386871338,9.358956344425678 2.8066372871398926,9.358956344425678 11.4545259475708,-2.644274227321148 11.630708694458008,-2.644274227321148 " fill="#6fa9ff" id="svg_83"/>
    <polygon stroke="null" class="cls-80" points="11.82158088684082,-2.644274227321148 3.188377857208252,9.358956344425678 2.997511386871338,9.358956344425678 11.630708694458008,-2.644274227321148 11.82158088684082,-2.644274227321148 " fill="#6ea8ff" id="svg_84"/>
    <polygon stroke="null" class="cls-81" points="11.997770309448242,-2.644274227321148 3.3645691871643066,9.358956344425678 3.188377857208252,9.358956344425678 11.82158088684082,-2.644274227321148 11.997770309448242,-2.644274227321148 " fill="#6ea7ff" id="svg_85"/>
    <polygon stroke="null" class="cls-82" points="12.18863582611084,-2.644274227321148 3.5554394721984863,9.358956344425678 3.3645691871643066,9.358956344425678 11.997770309448242,-2.644274227321148 12.18863582611084,-2.644274227321148 " fill="#6ea6ff" id="svg_86"/>
    <polygon stroke="null" class="cls-83" points="12.379502296447754,-2.644274227321148 3.7316269874572754,9.358956344425678 3.5554394721984863,9.358956344425678 12.18863582611084,-2.644274227321148 12.379502296447754,-2.644274227321148 " fill="#6da5ff" id="svg_87"/>
    <polygon stroke="null" class="cls-84" points="12.555696487426758,-2.644274227321148 3.922497272491455,9.358956344425678 3.7316269874572754,9.358956344425678 12.379502296447754,-2.644274227321148 12.555696487426758,-2.644274227321148 " fill="#6da4ff" id="svg_88"/>
    <polygon stroke="null" class="cls-85" points="12.746562957763672,-2.644274227321148 4.098684787750244,9.358956344425678 3.922497272491455,9.358956344425678 12.555696487426758,-2.644274227321148 12.746562957763672,-2.644274227321148 " fill="#6ca3ff" id="svg_89"/>
    <polygon stroke="null" class="cls-86" points="12.922751426696777,-2.644274227321148 4.289555072784424,9.358956344425678 4.098684787750244,9.358956344425678 12.746562957763672,-2.644274227321148 12.922751426696777,-2.644274227321148 " fill="#6ca2ff" id="svg_90"/>
    <polygon stroke="null" class="cls-87" points="13.113619804382324,-2.644274227321148 4.480423450469971,9.358956344425678 4.289555072784424,9.358956344425678 12.922751426696777,-2.644274227321148 13.113619804382324,-2.644274227321148 " fill="#6ba1ff" id="svg_91"/>
    <polygon stroke="null" class="cls-88" points="13.289810180664062,-2.644274227321148 4.65661096572876,9.358956344425678 4.480423450469971,9.358956344425678 13.113619804382324,-2.644274227321148 13.289810180664062,-2.644274227321148 " fill="#6ba0ff" id="svg_92"/>
    <polygon stroke="null" class="cls-89" points="13.48067855834961,-2.644274227321148 4.8474812507629395,9.358956344425678 4.65661096572876,9.358956344425678 13.289810180664062,-2.644274227321148 13.48067855834961,-2.644274227321148 " fill="#6b9fff" id="svg_93"/>
    <polygon stroke="null" class="cls-90" points="13.656867980957031,-2.644274227321148 5.0236687660217285,9.358956344425678 4.8474812507629395,9.358956344425678 13.48067855834961,-2.644274227321148 13.656867980957031,-2.644274227321148 " fill="#6a9eff" id="svg_94"/>
    <polygon stroke="null" class="cls-91" points="13.847735404968262,-2.644274227321148 5.214537143707275,9.358956344425678 5.0236687660217285,9.358956344425678 13.656867980957031,-2.644274227321148 13.847735404968262,-2.644274227321148 " fill="#6a9dff" id="svg_95"/>
    <polygon stroke="null" class="cls-92" points="14.038614273071289,-2.644274227321148 5.390726566314697,9.358956344425678 5.214537143707275,9.358956344425678 13.847735404968262,-2.644274227321148 14.038614273071289,-2.644274227321148 " fill="#699cff" id="svg_96"/>
    <polygon stroke="null" class="cls-93" points="14.214794158935547,-2.644274227321148 5.5815958976745605,9.358956344425678 5.390726566314697,9.358956344425678 14.038614273071289,-2.644274227321148 14.214794158935547,-2.644274227321148 " fill="#699bff" id="svg_97"/>
    <polygon stroke="null" class="cls-94" points="14.405665397644043,-2.644274227321148 5.772471904754639,9.358956344425678 5.5815958976745605,9.358956344425678 14.214794158935547,-2.644274227321148 14.405665397644043,-2.644274227321148 " fill="#689aff" id="svg_98"/>
    <polygon stroke="null" class="cls-95" points="14.581851959228516,-2.644274227321148 5.948653697967529,9.358956344425678 5.772471904754639,9.358956344425678 14.405665397644043,-2.644274227321148 14.581851959228516,-2.644274227321148 " fill="#6899ff" id="svg_99"/>
    <polygon stroke="null" class="cls-96" points="14.772724151611328,-2.644274227321148 6.139529705047607,9.358956344425678 5.948653697967529,9.358956344425678 14.581851959228516,-2.644274227321148 14.772724151611328,-2.644274227321148 " fill="#6898ff" id="svg_100"/>
    <polygon stroke="null" class="cls-97" points="14.963594436645508,-2.644274227321148 6.315715312957764,9.358956344425678 6.139529705047607,9.358956344425678 14.772724151611328,-2.644274227321148 14.963594436645508,-2.644274227321148 " fill="#6797ff" id="svg_101"/>
    <polygon stroke="null" class="cls-98" points="15.139788627624512,-2.644274227321148 6.506579399108887,9.358956344425678 6.315715312957764,9.358956344425678 14.963594436645508,-2.644274227321148 15.139788627624512,-2.644274227321148 " fill="#6796ff" id="svg_102"/>
    <polygon stroke="null" class="cls-99" points="15.330655097961426,-2.644274227321148 6.682767868041992,9.358956344425678 6.506579399108887,9.358956344425678 15.139788627624512,-2.644274227321148 15.330655097961426,-2.644274227321148 " fill="#6695ff" id="svg_103"/>
    <polygon stroke="null" class="cls-100" points="15.506854057312012,-2.644274227321148 6.873641014099121,9.358956344425678 6.682767868041992,9.358956344425678 15.330655097961426,-2.644274227321148 15.506854057312012,-2.644274227321148 " fill="#6694ff" id="svg_104"/>
    <polygon stroke="null" class="cls-101" points="15.69771671295166,-2.644274227321148 7.049826622009277,9.358956344425678 6.873641014099121,9.358956344425678 15.506854057312012,-2.644274227321148 15.69771671295166,-2.644274227321148 " fill="#6593ff" id="svg_105"/>
    <polygon stroke="null" class="cls-102" points="15.873910903930664,-2.644274227321148 7.240699768066406,9.358956344425678 7.049826622009277,9.358956344425678 15.69771671295166,-2.644274227321148 15.873910903930664,-2.644274227321148 " fill="#6592ff" id="svg_106"/>
    <polygon stroke="null" class="cls-103" points="16.064788818359375,-2.644274227321148 7.431574821472168,9.358956344425678 7.240699768066406,9.358956344425678 15.873910903930664,-2.644274227321148 16.064788818359375,-2.644274227321148 " fill="#6491ff" id="svg_107"/>
    <polygon stroke="null" class="cls-104" points="16.25564956665039,-2.644274227321148 7.607757568359375,9.358956344425678 7.431574821472168,9.358956344425678 16.064788818359375,-2.644274227321148 16.25564956665039,-2.644274227321148 " fill="#6490ff" id="svg_108"/>
    <polygon stroke="null" class="cls-105" points="16.431842803955078,-2.644274227321148 7.798624038696289,9.358956344425678 7.607757568359375,9.358956344425678 16.25564956665039,-2.644274227321148 16.431842803955078,-2.644274227321148 " fill="#648fff" id="svg_109"/>
    <polygon stroke="null" class="cls-106" points="16.62271499633789,-2.644274227321148 7.974814414978027,9.358956344425678 7.798624038696289,9.358956344425678 16.431842803955078,-2.644274227321148 16.62271499633789,-2.644274227321148 " fill="#638eff" id="svg_110"/>
    <polygon stroke="null" class="cls-107" points="16.798906326293945,-2.644274227321148 8.165685653686523,9.358956344425678 7.974814414978027,9.358956344425678 16.62271499633789,-2.644274227321148 16.798906326293945,-2.644274227321148 " fill="#638dff" id="svg_111"/>
    <polygon stroke="null" class="cls-108" points="16.989776611328125,-2.644274227321148 8.356559753417969,9.358956344425678 8.165685653686523,9.358956344425678 16.798906326293945,-2.644274227321148 16.989776611328125,-2.644274227321148 " fill="#628cff" id="svg_112"/>
    <polygon stroke="null" class="cls-109" points="17.165958404541016,-2.644274227321148 8.532745361328125,9.358956344425678 8.356559753417969,9.358956344425678 16.989776611328125,-2.644274227321148 17.165958404541016,-2.644274227321148 " fill="#628bff" id="svg_113"/>
    <polygon stroke="null" class="cls-110" points="17.356826782226562,-2.644274227321148 8.723616600036621,9.358956344425678 8.532745361328125,9.358956344425678 17.165958404541016,-2.644274227321148 17.356826782226562,-2.644274227321148 " fill="#618aff" id="svg_114"/>
    <polygon stroke="null" class="cls-111" points="17.547714233398438,-2.644274227321148 8.899798393249512,9.358956344425678 8.723616600036621,9.358956344425678 17.356826782226562,-2.644274227321148 17.547714233398438,-2.644274227321148 " fill="#6189ff" id="svg_115"/>
    <polygon stroke="null" class="cls-111" points="8.899798393249512,9.358956344425678 17.547714233398438,-2.644274227321148 18.23778533935547,-2.644274227321148 18.23778533935547,9.358956344425678 8.899798393249512,9.358956344425678 " fill="#6189ff" id="svg_116"/>
   </g>
   <g stroke="null" class="cls-112" clip-path="url(#clip-path-2)" id="svg_117">
    <g stroke="null" class="cls-113" mask="url(#mask)" id="svg_118">
     <g stroke="null" class="cls-114" opacity="0.5" id="svg_119">
      <g stroke="null" class="cls-115" clip-path="url(#clip-path-3)" id="svg_120">
       <g stroke="null" class="cls-115" clip-path="url(#clip-path-3)" id="svg_121">
        <rect stroke="null" class="cls-116" x="-1.24677" y="-2.64428" width="0.32982" height="12.00323" fill="#31c3bd" id="svg_122"/>
        <rect stroke="null" class="cls-117" x="-0.91695" y="-2.64428" width="0.32982" height="12.00323" fill="#32c2be" id="svg_123"/>
        <rect stroke="null" class="cls-118" x="-0.58713" y="-2.64428" width="0.32982" height="12.00323" fill="#32c1be" id="svg_124"/>
        <rect stroke="null" class="cls-119" x="-0.2573" y="-2.64428" width="0.32982" height="12.00323" fill="#32c0be" id="svg_125"/>
        <rect stroke="null" class="cls-120" x="0.07252" y="-2.64428" width="0.32982" height="12.00323" fill="#32bfbf" id="svg_126"/>
        <rect stroke="null" class="cls-121" x="0.40235" y="-2.64428" width="0.32982" height="12.00323" fill="#33bebf" id="svg_127"/>
        <rect stroke="null" class="cls-122" x="0.73217" y="-2.64428" width="0.32982" height="12.00323" fill="#33bdc0" id="svg_128"/>
        <rect stroke="null" class="cls-123" x="1.06199" y="-2.64428" width="0.32982" height="12.00323" fill="#33bcc0" id="svg_129"/>
        <rect stroke="null" class="cls-124" x="1.39182" y="-2.64428" width="0.32982" height="12.00323" fill="#33bbc1" id="svg_130"/>
        <rect stroke="null" class="cls-125" x="1.72164" y="-2.64428" width="0.32982" height="12.00323" fill="#34bac1" id="svg_131"/>
        <rect stroke="null" class="cls-126" x="2.05146" y="-2.64428" width="0.32982" height="12.00323" fill="#34b9c2" id="svg_132"/>
        <rect stroke="null" class="cls-127" x="2.38129" y="-2.64428" width="0.32982" height="12.00323" fill="#34b8c2" id="svg_133"/>
        <rect stroke="null" class="cls-128" x="2.71111" y="-2.64428" width="0.32982" height="12.00323" fill="#34b7c3" id="svg_134"/>
        <rect stroke="null" class="cls-129" x="3.04094" y="-2.64428" width="0.32982" height="12.00323" fill="#35b6c3" id="svg_135"/>
        <rect stroke="null" class="cls-130" x="3.37076" y="-2.64428" width="0.32982" height="12.00323" fill="#35b5c3" id="svg_136"/>
        <rect stroke="null" class="cls-131" x="3.70058" y="-2.64428" width="0.32982" height="12.00323" fill="#35b4c4" id="svg_137"/>
        <rect stroke="null" class="cls-132" x="4.03041" y="-2.64428" width="0.32982" height="12.00323" fill="#35b3c4" id="svg_138"/>
        <rect stroke="null" class="cls-133" x="4.36023" y="-2.64428" width="0.32982" height="12.00323" fill="#36b2c5" id="svg_139"/>
        <rect stroke="null" class="cls-134" x="4.7621" y="-2.64428" width="0.32982" height="12.00323" fill="#36b1c5" id="svg_140"/>
        <rect stroke="null" class="cls-135" x="5.09192" y="-2.64428" width="0.32982" height="12.00323" fill="#36b0c6" id="svg_141"/>
        <rect stroke="null" class="cls-136" x="5.42175" y="-2.64428" width="0.32982" height="12.00323" fill="#36afc6" id="svg_142"/>
        <rect stroke="null" class="cls-137" x="5.75157" y="-2.64428" width="0.32982" height="12.00323" fill="#37aec7" id="svg_143"/>
        <rect stroke="null" class="cls-138" x="6.08139" y="-2.64428" width="0.32982" height="12.00323" fill="#37adc7" id="svg_144"/>
        <rect stroke="null" class="cls-139" x="6.41122" y="-2.64428" width="0.32982" height="12.00323" fill="#37acc8" id="svg_145"/>
        <rect stroke="null" class="cls-140" x="6.74104" y="-2.64428" width="0.32982" height="12.00323" fill="#38abc8" id="svg_146"/>
        <rect stroke="null" class="cls-141" x="7.07086" y="-2.64428" width="0.32982" height="12.00323" fill="#38aac8" id="svg_147"/>
        <rect stroke="null" class="cls-142" x="7.40069" y="-2.64428" width="0.32982" height="12.00323" fill="#38a9c9" id="svg_148"/>
        <rect stroke="null" class="cls-143" x="7.73051" y="-2.64428" width="0.32982" height="12.00323" fill="#38a8c9" id="svg_149"/>
        <rect stroke="null" class="cls-144" x="8.06034" y="-2.64428" width="0.32982" height="12.00323" fill="#39a7ca" id="svg_150"/>
        <rect stroke="null" class="cls-145" x="8.39016" y="-2.64428" width="0.32982" height="12.00323" fill="#39a6ca" id="svg_151"/>
        <rect stroke="null" class="cls-146" x="8.71998" y="-2.64428" width="0.32982" height="12.00323" fill="#39a5cb" id="svg_152"/>
        <rect stroke="null" class="cls-147" x="9.04981" y="-2.64428" width="0.32982" height="12.00323" fill="#39a4cb" id="svg_153"/>
        <rect stroke="null" class="cls-148" x="9.37963" y="-2.64428" width="0.32982" height="12.00323" fill="#3aa3cc" id="svg_154"/>
        <rect stroke="null" class="cls-149" x="9.70945" y="-2.64428" width="0.32982" height="12.00323" fill="#3aa2cc" id="svg_155"/>
        <rect stroke="null" class="cls-150" x="10.03928" y="-2.64428" width="0.32982" height="12.00323" fill="#3aa1cd" id="svg_156"/>
        <rect stroke="null" class="cls-151" x="10.3691" y="-2.64428" width="0.32982" height="12.00323" fill="#3aa0cd" id="svg_157"/>
        <rect stroke="null" class="cls-152" x="10.69893" y="-2.64428" width="0.32982" height="12.00323" fill="#3b9fcd" id="svg_158"/>
        <rect stroke="null" class="cls-153" x="11.02875" y="-2.64428" width="0.32982" height="12.00323" fill="#3b9ece" id="svg_159"/>
        <rect stroke="null" class="cls-154" x="11.35857" y="-2.64428" width="0.32982" height="12.00323" fill="#3b9dce" id="svg_160"/>
        <rect stroke="null" class="cls-155" x="11.6884" y="-2.64428" width="0.32982" height="12.00323" fill="#3b9ccf" id="svg_161"/>
        <rect stroke="null" class="cls-156" x="12.01822" y="-2.64428" width="0.32982" height="12.00323" fill="#3c9acf" id="svg_162"/>
        <rect stroke="null" class="cls-157" x="12.34804" y="-2.64428" width="0.32982" height="12.00323" fill="#3c99d0" id="svg_163"/>
        <rect stroke="null" class="cls-158" x="12.67787" y="-2.64428" width="0.32982" height="12.00323" fill="#3c98d0" id="svg_164"/>
        <rect stroke="null" class="cls-159" x="13.00769" y="-2.64428" width="0.32982" height="12.00323" fill="#3c97d1" id="svg_165"/>
        <rect stroke="null" class="cls-160" x="13.33752" y="-2.64428" width="0.32982" height="12.00323" fill="#3d96d1" id="svg_166"/>
        <rect stroke="null" class="cls-161" x="13.66734" y="-2.64428" width="0.32982" height="12.00323" fill="#3d95d1" id="svg_167"/>
        <rect stroke="null" class="cls-162" x="13.99716" y="-2.64428" width="0.32982" height="12.00323" fill="#3d94d2" id="svg_168"/>
        <rect stroke="null" class="cls-163" x="14.32699" y="-2.64428" width="0.32982" height="12.00323" fill="#3d93d2" id="svg_169"/>
        <rect stroke="null" class="cls-164" x="14.65681" y="-2.64428" width="0.32982" height="12.00323" fill="#3e92d3" id="svg_170"/>
        <rect stroke="null" class="cls-165" x="14.98663" y="-2.64428" width="0.32982" height="12.00323" fill="#3e91d3" id="svg_171"/>
        <rect stroke="null" class="cls-166" x="15.31646" y="-2.64428" width="0.32982" height="12.00323" fill="#3e90d4" id="svg_172"/>
        <rect stroke="null" class="cls-167" x="15.64628" y="-2.64428" width="0.32982" height="12.00323" fill="#3e8fd4" id="svg_173"/>
        <rect stroke="null" class="cls-168" x="15.97611" y="-2.64428" width="0.32982" height="12.00323" fill="#3f8ed5" id="svg_174"/>
        <rect stroke="null" class="cls-169" x="16.30593" y="-2.64428" width="0.32982" height="12.00323" fill="#3f8dd5" id="svg_175"/>
        <rect stroke="null" class="cls-170" x="16.63575" y="-2.64428" width="0.32982" height="12.00323" fill="#3f8cd6" id="svg_176"/>
        <rect stroke="null" class="cls-171" x="16.96558" y="-2.64428" width="0.32982" height="12.00323" fill="#3f8bd6" id="svg_177"/>
        <rect stroke="null" class="cls-172" x="17.2954" y="-2.64428" width="0.32982" height="12.00323" fill="#408ad6" id="svg_178"/>
        <rect stroke="null" class="cls-173" x="17.62523" y="-2.64428" width="0.32982" height="12.00323" fill="#4089d7" id="svg_179"/>
       </g>
      </g>
     </g>
    </g>
   </g>
   <path stroke="#000" fill="#fff" opacity="NaN" d="m-4.13204,2.34444" id="svg_181"/>
  </g>
  <g transform="rotate(-90 7.50836 12.7548)" stroke="null" stroke-width="1.4" id="svg_223">
   <line stroke="#000" id="svg_216" y2="11.84429" x2="7.22986" y1="11.84429" x1="4.41259" fill="none"/>
   <line stroke="#000" id="svg_217" y2="11.84429" x2="7.22986" y1="11.84429" x1="4.41259" fill="none"/>
   <line stroke="#000" id="svg_218" y2="13.8214" x2="7.22986" y1="13.8214" x1="4.41259" fill="none"/>
   <line stroke="#000" id="svg_219" y2="13.09299" x2="10.55203" y1="9.34689" x1="6.90999" fill="none"/>
   <path transform="rotate(90 8.73101 14.3418)" stroke="#000" id="svg_220" d="m6.90999,12.46864l3.64204,3.7461" opacity="undefined" fill="none"/>
  </g>
 </g>
</svg>