<svg id="图层_1" data-name="图层 1" xmlns="http://www.w3.org/2000/svg" xmlns:xlink="http://www.w3.org/1999/xlink" viewBox="0 0 16 16"><defs><style>.cls-1{isolation:isolate;filter:url(#luminosity-invert);}.cls-2{fill:#020202;}.cls-3{fill:none;}.cls-4{clip-path:url(#clip-path);}.cls-5{fill:#8ff4ff;}.cls-6{fill:#8ff3ff;}.cls-7{fill:#8ef2ff;}.cls-8{fill:#8ef1ff;}.cls-9{fill:#8df0ff;}.cls-10{fill:#8defff;}.cls-11{fill:#8ceeff;}.cls-12{fill:#8cedff;}.cls-13{fill:#8cecff;}.cls-14{fill:#8bebff;}.cls-15{fill:#8beaff;}.cls-16{fill:#8ae9ff;}.cls-17{fill:#8ae8ff;}.cls-18{fill:#89e7ff;}.cls-19{fill:#89e6ff;}.cls-20{fill:#88e5ff;}.cls-21{fill:#88e4ff;}.cls-22{fill:#88e3ff;}.cls-23{fill:#87e2ff;}.cls-24{fill:#87e1ff;}.cls-25{fill:#86e0ff;}.cls-26{fill:#86dfff;}.cls-27{fill:#85deff;}.cls-28{fill:#85ddff;}.cls-29{fill:#85dcff;}.cls-30{fill:#84dbff;}.cls-31{fill:#84daff;}.cls-32{fill:#83d9ff;}.cls-33{fill:#83d8ff;}.cls-34{fill:#82d7ff;}.cls-35{fill:#82d6ff;}.cls-36{fill:#82d5ff;}.cls-37{fill:#81d4ff;}.cls-38{fill:#81d3ff;}.cls-39{fill:#80d2ff;}.cls-40{fill:#80d1ff;}.cls-41{fill:#7fd0ff;}.cls-42{fill:#7fcfff;}.cls-43{fill:#7fceff;}.cls-44{fill:#7ecdff;}.cls-45{fill:#7eccff;}.cls-46{fill:#7dcbff;}.cls-47{fill:#7dcaff;}.cls-48{fill:#7cc9ff;}.cls-49{fill:#7cc8ff;}.cls-50{fill:#7bc7ff;}.cls-51{fill:#7bc6ff;}.cls-52{fill:#7bc5ff;}.cls-53{fill:#7ac4ff;}.cls-54{fill:#7ac3ff;}.cls-55{fill:#79c2ff;}.cls-56{fill:#79c1ff;}.cls-57{fill:#78c0ff;}.cls-58{fill:#78beff;}.cls-59{fill:#78bdff;}.cls-60{fill:#77bcff;}.cls-61{fill:#7bf;}.cls-62{fill:#76baff;}.cls-63{fill:#76b9ff;}.cls-64{fill:#75b8ff;}.cls-65{fill:#75b7ff;}.cls-66{fill:#75b6ff;}.cls-67{fill:#74b5ff;}.cls-68{fill:#74b4ff;}.cls-69{fill:#73b3ff;}.cls-70{fill:#73b2ff;}.cls-71{fill:#72b1ff;}.cls-72{fill:#72b0ff;}.cls-73{fill:#71afff;}.cls-74{fill:#71aeff;}.cls-75{fill:#71adff;}.cls-76{fill:#70acff;}.cls-77{fill:#70abff;}.cls-78{fill:#6faaff;}.cls-79{fill:#6fa9ff;}.cls-80{fill:#6ea8ff;}.cls-81{fill:#6ea7ff;}.cls-82{fill:#6ea6ff;}.cls-83{fill:#6da5ff;}.cls-84{fill:#6da4ff;}.cls-85{fill:#6ca3ff;}.cls-86{fill:#6ca2ff;}.cls-87{fill:#6ba1ff;}.cls-88{fill:#6ba0ff;}.cls-89{fill:#6b9fff;}.cls-90{fill:#6a9eff;}.cls-91{fill:#6a9dff;}.cls-92{fill:#699cff;}.cls-93{fill:#699bff;}.cls-94{fill:#689aff;}.cls-95{fill:#6899ff;}.cls-96{fill:#6898ff;}.cls-97{fill:#6797ff;}.cls-98{fill:#6796ff;}.cls-99{fill:#6695ff;}.cls-100{fill:#6694ff;}.cls-101{fill:#6593ff;}.cls-102{fill:#6592ff;}.cls-103{fill:#6491ff;}.cls-104{fill:#6490ff;}.cls-105{fill:#648fff;}.cls-106{fill:#638eff;}.cls-107{fill:#638dff;}.cls-108{fill:#628cff;}.cls-109{fill:#628bff;}.cls-110{fill:#618aff;}.cls-111{fill:#6189ff;}.cls-112{clip-path:url(#clip-path-2);}.cls-113{mask:url(#mask);}.cls-114{opacity:0.5;}.cls-115{clip-path:url(#clip-path-3);}.cls-116{fill:#31c3bd;}.cls-117{fill:#32c2be;}.cls-118{fill:#32c1be;}.cls-119{fill:#32c0be;}.cls-120{fill:#32bfbf;}.cls-121{fill:#33bebf;}.cls-122{fill:#33bdc0;}.cls-123{fill:#33bcc0;}.cls-124{fill:#33bbc1;}.cls-125{fill:#34bac1;}.cls-126{fill:#34b9c2;}.cls-127{fill:#34b8c2;}.cls-128{fill:#34b7c3;}.cls-129{fill:#35b6c3;}.cls-130{fill:#35b5c3;}.cls-131{fill:#35b4c4;}.cls-132{fill:#35b3c4;}.cls-133{fill:#36b2c5;}.cls-134{fill:#36b1c5;}.cls-135{fill:#36b0c6;}.cls-136{fill:#36afc6;}.cls-137{fill:#37aec7;}.cls-138{fill:#37adc7;}.cls-139{fill:#37acc8;}.cls-140{fill:#38abc8;}.cls-141{fill:#38aac8;}.cls-142{fill:#38a9c9;}.cls-143{fill:#38a8c9;}.cls-144{fill:#39a7ca;}.cls-145{fill:#39a6ca;}.cls-146{fill:#39a5cb;}.cls-147{fill:#39a4cb;}.cls-148{fill:#3aa3cc;}.cls-149{fill:#3aa2cc;}.cls-150{fill:#3aa1cd;}.cls-151{fill:#3aa0cd;}.cls-152{fill:#3b9fcd;}.cls-153{fill:#3b9ece;}.cls-154{fill:#3b9dce;}.cls-155{fill:#3b9ccf;}.cls-156{fill:#3c9acf;}.cls-157{fill:#3c99d0;}.cls-158{fill:#3c98d0;}.cls-159{fill:#3c97d1;}.cls-160{fill:#3d96d1;}.cls-161{fill:#3d95d1;}.cls-162{fill:#3d94d2;}.cls-163{fill:#3d93d2;}.cls-164{fill:#3e92d3;}.cls-165{fill:#3e91d3;}.cls-166{fill:#3e90d4;}.cls-167{fill:#3e8fd4;}.cls-168{fill:#3f8ed5;}.cls-169{fill:#3f8dd5;}.cls-170{fill:#3f8cd6;}.cls-171{fill:#3f8bd6;}.cls-172{fill:#408ad6;}.cls-173{fill:#4089d7;}</style><clipPath id="clip-path"><path class="cls-3" d="M9.73,5.18H8.35L6.68,9.45,5,5.18H3.62L3.1,11H4.47l.29-3.2,1.35,3.09H7.25L8.59,7.8,8.88,11h1.37L9.73,5.18ZM0,4.26H0v.9H0v7.25H2.28V11.5H.91V5.17H2.28v-.9H0Zm11.08,0h0v.9h1.36V11.5H11.08v.91h2.28V5.17h0v-.9H11.08Zm3.09.08a.81.81,0,0,0,.61.71c.24.1.46.15.46.28s-.07.14-.24.14a1,1,0,0,1-.59-.24L14,5.75a1.6,1.6,0,0,0,.93.34c.67,0,1-.35,1-.8a.77.77,0,0,0-.62-.72c-.24-.09-.45-.13-.45-.26s.07-.13.21-.13a.89.89,0,0,1,.49.2L16,3.88a1.42,1.42,0,0,0-.88-.32c-.57,0-1,.31-1,.78"/></clipPath><clipPath id="clip-path-2"><rect class="cls-3" y="3.57" width="16" height="8.87"/></clipPath><filter id="luminosity-invert" filterUnits="userSpaceOnUse" color-interpolation-filters="sRGB"><feColorMatrix values="-1 0 0 0 1 0 -1 0 0 1 0 0 -1 0 1 0 0 0 1 0"/></filter><mask id="mask" x="-0.53" y="2.78" width="16.88" height="10.19" maskUnits="userSpaceOnUse"><g class="cls-1"><polygon class="cls-2" points="4.76 7.8 6.1 10.89 6.67 9.45 4.99 5.18 4.76 7.8"/><polygon class="cls-2" points="9.72 5.18 8.59 7.81 8.88 10.99 10.25 10.99 9.72 5.18"/></g></mask><clipPath id="clip-path-3"><rect class="cls-3" x="-0.53" y="2.78" width="16.88" height="10.19"/></clipPath></defs><title>画板 5</title><g class="cls-4"><polygon class="cls-5" points="2.43 2.78 -0.53 7.9 -0.53 2.78 2.43 2.78"/><polygon class="cls-5" points="2.56 2.78 -0.53 8.12 -0.53 7.9 2.43 2.78 2.56 2.78"/><polygon class="cls-6" points="2.68 2.78 -0.53 8.33 -0.53 8.12 2.56 2.78 2.68 2.78"/><polygon class="cls-7" points="2.81 2.78 -0.53 8.55 -0.53 8.33 2.68 2.78 2.81 2.78"/><polygon class="cls-8" points="2.94 2.78 -0.53 8.77 -0.53 8.55 2.81 2.78 2.94 2.78"/><polygon class="cls-9" points="3.06 2.78 -0.53 8.99 -0.53 8.77 2.94 2.78 3.06 2.78"/><polygon class="cls-10" points="3.19 2.78 -0.53 9.2 -0.53 8.99 3.06 2.78 3.19 2.78"/><polygon class="cls-11" points="3.31 2.78 -0.53 9.42 -0.53 9.2 3.19 2.78 3.31 2.78"/><polygon class="cls-12" points="3.44 2.78 -0.53 9.64 -0.53 9.42 3.31 2.78 3.44 2.78"/><polygon class="cls-13" points="3.56 2.78 -0.53 9.86 -0.53 9.64 3.44 2.78 3.56 2.78"/><polygon class="cls-14" points="3.69 2.78 -0.53 10.08 -0.53 9.86 3.56 2.78 3.69 2.78"/><polygon class="cls-15" points="3.81 2.78 -0.53 10.29 -0.53 10.08 3.69 2.78 3.81 2.78"/><polygon class="cls-16" points="3.94 2.78 -0.53 10.51 -0.53 10.29 3.81 2.78 3.94 2.78"/><polygon class="cls-17" points="4.07 2.78 -0.53 10.73 -0.53 10.51 3.94 2.78 4.07 2.78"/><polygon class="cls-18" points="4.19 2.78 -0.53 10.95 -0.53 10.73 4.07 2.78 4.19 2.78"/><polygon class="cls-19" points="4.32 2.78 -0.53 11.16 -0.53 10.95 4.19 2.78 4.32 2.78"/><polygon class="cls-20" points="4.44 2.78 -0.53 11.38 -0.53 11.16 4.32 2.78 4.44 2.78"/><polygon class="cls-21" points="4.57 2.78 -0.53 11.6 -0.53 11.38 4.44 2.78 4.57 2.78"/><polygon class="cls-22" points="4.7 2.78 -0.53 11.82 -0.53 11.6 4.57 2.78 4.7 2.78"/><polygon class="cls-23" points="4.82 2.78 -0.53 12.04 -0.53 11.82 4.7 2.78 4.82 2.78"/><polygon class="cls-24" points="4.95 2.78 -0.53 12.25 -0.53 12.04 4.82 2.78 4.95 2.78"/><polygon class="cls-25" points="5.07 2.78 -0.53 12.47 -0.53 12.25 4.95 2.78 5.07 2.78"/><polygon class="cls-26" points="5.2 2.78 -0.53 12.69 -0.53 12.47 5.07 2.78 5.2 2.78"/><polygon class="cls-27" points="5.32 2.78 -0.53 12.91 -0.53 12.69 5.2 2.78 5.32 2.78"/><polygon class="cls-28" points="5.45 2.78 -0.43 12.97 -0.53 12.97 -0.53 12.91 5.32 2.78 5.45 2.78"/><polygon class="cls-29" points="5.58 2.78 -0.31 12.97 -0.43 12.97 5.45 2.78 5.58 2.78"/><polygon class="cls-30" points="5.7 2.78 -0.18 12.97 -0.31 12.97 5.58 2.78 5.7 2.78"/><polygon class="cls-31" points="5.83 2.78 -0.06 12.97 -0.18 12.97 5.7 2.78 5.83 2.78"/><polygon class="cls-32" points="5.95 2.78 0.07 12.97 -0.06 12.97 5.83 2.78 5.95 2.78"/><polygon class="cls-33" points="6.08 2.78 0.2 12.97 0.07 12.97 5.95 2.78 6.08 2.78"/><polygon class="cls-34" points="6.2 2.78 0.32 12.97 0.2 12.97 6.08 2.78 6.2 2.78"/><polygon class="cls-35" points="6.33 2.78 0.45 12.97 0.32 12.97 6.2 2.78 6.33 2.78"/><polygon class="cls-36" points="6.46 2.78 0.57 12.97 0.45 12.97 6.33 2.78 6.46 2.78"/><polygon class="cls-37" points="6.58 2.78 0.7 12.97 0.57 12.97 6.46 2.78 6.58 2.78"/><polygon class="cls-38" points="6.71 2.78 0.82 12.97 0.7 12.97 6.58 2.78 6.71 2.78"/><polygon class="cls-39" points="6.83 2.78 0.95 12.97 0.82 12.97 6.71 2.78 6.83 2.78"/><polygon class="cls-40" points="6.96 2.78 1.07 12.97 0.95 12.97 6.83 2.78 6.96 2.78"/><polygon class="cls-41" points="7.08 2.78 1.2 12.97 1.07 12.97 6.96 2.78 7.08 2.78"/><polygon class="cls-42" points="7.21 2.78 1.33 12.97 1.2 12.97 7.08 2.78 7.21 2.78"/><polygon class="cls-43" points="7.34 2.78 1.45 12.97 1.33 12.97 7.21 2.78 7.34 2.78"/><polygon class="cls-44" points="7.46 2.78 1.58 12.97 1.45 12.97 7.34 2.78 7.46 2.78"/><polygon class="cls-45" points="7.59 2.78 1.7 12.97 1.58 12.97 7.46 2.78 7.59 2.78"/><polygon class="cls-46" points="7.71 2.78 1.83 12.97 1.7 12.97 7.59 2.78 7.71 2.78"/><polygon class="cls-47" points="7.84 2.78 1.96 12.97 1.83 12.97 7.71 2.78 7.84 2.78"/><polygon class="cls-48" points="7.96 2.78 2.08 12.97 1.96 12.97 7.84 2.78 7.96 2.78"/><polygon class="cls-49" points="8.09 2.78 2.21 12.97 2.08 12.97 7.96 2.78 8.09 2.78"/><polygon class="cls-50" points="8.22 2.78 2.33 12.97 2.21 12.97 8.09 2.78 8.22 2.78"/><polygon class="cls-51" points="8.34 2.78 2.46 12.97 2.33 12.97 8.22 2.78 8.34 2.78"/><polygon class="cls-52" points="8.47 2.78 2.58 12.97 2.46 12.97 8.34 2.78 8.47 2.78"/><polygon class="cls-53" points="8.59 2.78 2.71 12.97 2.58 12.97 8.47 2.78 8.59 2.78"/><polygon class="cls-54" points="8.72 2.78 2.84 12.97 2.71 12.97 8.59 2.78 8.72 2.78"/><polygon class="cls-55" points="8.84 2.78 2.96 12.97 2.84 12.97 8.72 2.78 8.84 2.78"/><polygon class="cls-56" points="8.97 2.78 3.09 12.97 2.96 12.97 8.84 2.78 8.97 2.78"/><polygon class="cls-57" points="9.1 2.78 3.21 12.97 3.09 12.97 8.97 2.78 9.1 2.78"/><polygon class="cls-58" points="9.22 2.78 3.34 12.97 3.21 12.97 9.1 2.78 9.22 2.78"/><polygon class="cls-59" points="9.35 2.78 3.46 12.97 3.34 12.97 9.22 2.78 9.35 2.78"/><polygon class="cls-60" points="9.47 2.78 3.59 12.97 3.46 12.97 9.35 2.78 9.47 2.78"/><polygon class="cls-61" points="9.6 2.78 3.72 12.97 3.59 12.97 9.47 2.78 9.6 2.78"/><polygon class="cls-62" points="9.72 2.78 3.84 12.97 3.72 12.97 9.6 2.78 9.72 2.78"/><polygon class="cls-63" points="9.85 2.78 3.97 12.97 3.84 12.97 9.72 2.78 9.85 2.78"/><polygon class="cls-64" points="9.98 2.78 4.09 12.97 3.97 12.97 9.85 2.78 9.98 2.78"/><polygon class="cls-65" points="10.1 2.78 4.22 12.97 4.09 12.97 9.98 2.78 10.1 2.78"/><polygon class="cls-66" points="10.23 2.78 4.34 12.97 4.22 12.97 10.1 2.78 10.23 2.78"/><polygon class="cls-67" points="10.35 2.78 4.47 12.97 4.34 12.97 10.23 2.78 10.35 2.78"/><polygon class="cls-68" points="10.48 2.78 4.6 12.97 4.47 12.97 10.35 2.78 10.48 2.78"/><polygon class="cls-69" points="10.61 2.78 4.72 12.97 4.6 12.97 10.48 2.78 10.61 2.78"/><polygon class="cls-70" points="10.73 2.78 4.85 12.97 4.72 12.97 10.61 2.78 10.73 2.78"/><polygon class="cls-71" points="10.86 2.78 4.97 12.97 4.85 12.97 10.73 2.78 10.86 2.78"/><polygon class="cls-72" points="10.98 2.78 5.1 12.97 4.97 12.97 10.86 2.78 10.98 2.78"/><polygon class="cls-73" points="11.11 2.78 5.22 12.97 5.1 12.97 10.98 2.78 11.11 2.78"/><polygon class="cls-74" points="11.23 2.78 5.35 12.97 5.22 12.97 11.11 2.78 11.23 2.78"/><polygon class="cls-75" points="11.36 2.78 5.48 12.97 5.35 12.97 11.23 2.78 11.36 2.78"/><polygon class="cls-76" points="11.48 2.78 5.6 12.97 5.48 12.97 11.36 2.78 11.48 2.78"/><polygon class="cls-77" points="11.61 2.78 5.73 12.97 5.6 12.97 11.48 2.78 11.61 2.78"/><polygon class="cls-78" points="11.74 2.78 5.85 12.97 5.73 12.97 11.61 2.78 11.74 2.78"/><polygon class="cls-79" points="11.86 2.78 5.98 12.97 5.85 12.97 11.74 2.78 11.86 2.78"/><polygon class="cls-80" points="11.99 2.78 6.11 12.97 5.98 12.97 11.86 2.78 11.99 2.78"/><polygon class="cls-81" points="12.11 2.78 6.23 12.97 6.11 12.97 11.99 2.78 12.11 2.78"/><polygon class="cls-82" points="12.24 2.78 6.36 12.97 6.23 12.97 12.11 2.78 12.24 2.78"/><polygon class="cls-83" points="12.37 2.78 6.48 12.97 6.36 12.97 12.24 2.78 12.37 2.78"/><polygon class="cls-84" points="12.49 2.78 6.61 12.97 6.48 12.97 12.37 2.78 12.49 2.78"/><polygon class="cls-85" points="12.62 2.78 6.73 12.97 6.61 12.97 12.49 2.78 12.62 2.78"/><polygon class="cls-86" points="12.74 2.78 6.86 12.97 6.73 12.97 12.62 2.78 12.74 2.78"/><polygon class="cls-87" points="12.87 2.78 6.99 12.97 6.86 12.97 12.74 2.78 12.87 2.78"/><polygon class="cls-88" points="12.99 2.78 7.11 12.97 6.99 12.97 12.87 2.78 12.99 2.78"/><polygon class="cls-89" points="13.12 2.78 7.24 12.97 7.11 12.97 12.99 2.78 13.12 2.78"/><polygon class="cls-90" points="13.24 2.78 7.36 12.97 7.24 12.97 13.12 2.78 13.24 2.78"/><polygon class="cls-91" points="13.37 2.78 7.49 12.97 7.36 12.97 13.24 2.78 13.37 2.78"/><polygon class="cls-92" points="13.5 2.78 7.61 12.97 7.49 12.97 13.37 2.78 13.5 2.78"/><polygon class="cls-93" points="13.62 2.78 7.74 12.97 7.61 12.97 13.5 2.78 13.62 2.78"/><polygon class="cls-94" points="13.75 2.78 7.87 12.97 7.74 12.97 13.62 2.78 13.75 2.78"/><polygon class="cls-95" points="13.87 2.78 7.99 12.97 7.87 12.97 13.75 2.78 13.87 2.78"/><polygon class="cls-96" points="14 2.78 8.12 12.97 7.99 12.97 13.87 2.78 14 2.78"/><polygon class="cls-97" points="14.13 2.78 8.24 12.97 8.12 12.97 14 2.78 14.13 2.78"/><polygon class="cls-98" points="14.25 2.78 8.37 12.97 8.24 12.97 14.13 2.78 14.25 2.78"/><polygon class="cls-99" points="14.38 2.78 8.49 12.97 8.37 12.97 14.25 2.78 14.38 2.78"/><polygon class="cls-100" points="14.5 2.78 8.62 12.97 8.49 12.97 14.38 2.78 14.5 2.78"/><polygon class="cls-101" points="14.63 2.78 8.74 12.97 8.62 12.97 14.5 2.78 14.63 2.78"/><polygon class="cls-102" points="14.75 2.78 8.87 12.97 8.74 12.97 14.63 2.78 14.75 2.78"/><polygon class="cls-103" points="14.88 2.78 9 12.97 8.87 12.97 14.75 2.78 14.88 2.78"/><polygon class="cls-104" points="15.01 2.78 9.12 12.97 9 12.97 14.88 2.78 15.01 2.78"/><polygon class="cls-105" points="15.13 2.78 9.25 12.97 9.12 12.97 15.01 2.78 15.13 2.78"/><polygon class="cls-106" points="15.26 2.78 9.37 12.97 9.25 12.97 15.13 2.78 15.26 2.78"/><polygon class="cls-107" points="15.38 2.78 9.5 12.97 9.37 12.97 15.26 2.78 15.38 2.78"/><polygon class="cls-108" points="15.51 2.78 9.63 12.97 9.5 12.97 15.38 2.78 15.51 2.78"/><polygon class="cls-109" points="15.63 2.78 9.75 12.97 9.63 12.97 15.51 2.78 15.63 2.78"/><polygon class="cls-110" points="15.76 2.78 9.88 12.97 9.75 12.97 15.63 2.78 15.76 2.78"/><polygon class="cls-111" points="15.89 2.78 10 12.97 9.88 12.97 15.76 2.78 15.89 2.78"/><polygon class="cls-111" points="10 12.97 15.89 2.78 16.36 2.78 16.36 12.97 10 12.97"/></g><g class="cls-112"><g class="cls-113"><g class="cls-114"><g class="cls-115"><g class="cls-115"><rect class="cls-116" x="-0.12" y="2.78" width="0.28" height="10.19"/><rect class="cls-117" x="0.16" y="2.78" width="0.28" height="10.19"/><rect class="cls-118" x="0.44" y="2.78" width="0.28" height="10.19"/><rect class="cls-119" x="0.72" y="2.78" width="0.28" height="10.19"/><rect class="cls-120" x="1" y="2.78" width="0.28" height="10.19"/><rect class="cls-121" x="1.28" y="2.78" width="0.28" height="10.19"/><rect class="cls-122" x="1.56" y="2.78" width="0.28" height="10.19"/><rect class="cls-123" x="1.84" y="2.78" width="0.28" height="10.19"/><rect class="cls-124" x="2.12" y="2.78" width="0.28" height="10.19"/><rect class="cls-125" x="2.4" y="2.78" width="0.28" height="10.19"/><rect class="cls-126" x="2.68" y="2.78" width="0.28" height="10.19"/><rect class="cls-127" x="2.96" y="2.78" width="0.28" height="10.19"/><rect class="cls-128" x="3.24" y="2.78" width="0.28" height="10.19"/><rect class="cls-129" x="3.52" y="2.78" width="0.28" height="10.19"/><rect class="cls-130" x="3.8" y="2.78" width="0.28" height="10.19"/><rect class="cls-131" x="4.08" y="2.78" width="0.28" height="10.19"/><rect class="cls-132" x="4.36" y="2.78" width="0.28" height="10.19"/><rect class="cls-133" x="4.64" y="2.78" width="0.28" height="10.19"/><rect class="cls-134" x="4.92" y="2.78" width="0.28" height="10.19"/><rect class="cls-135" x="5.2" y="2.78" width="0.28" height="10.19"/><rect class="cls-136" x="5.48" y="2.78" width="0.28" height="10.19"/><rect class="cls-137" x="5.76" y="2.78" width="0.28" height="10.19"/><rect class="cls-138" x="6.04" y="2.78" width="0.28" height="10.19"/><rect class="cls-139" x="6.32" y="2.78" width="0.28" height="10.19"/><rect class="cls-140" x="6.6" y="2.78" width="0.28" height="10.19"/><rect class="cls-141" x="6.88" y="2.78" width="0.28" height="10.19"/><rect class="cls-142" x="7.16" y="2.78" width="0.28" height="10.19"/><rect class="cls-143" x="7.44" y="2.78" width="0.28" height="10.19"/><rect class="cls-144" x="7.72" y="2.78" width="0.28" height="10.19"/><rect class="cls-145" x="8" y="2.78" width="0.28" height="10.19"/><rect class="cls-146" x="8.28" y="2.78" width="0.28" height="10.19"/><rect class="cls-147" x="8.56" y="2.78" width="0.28" height="10.19"/><rect class="cls-148" x="8.84" y="2.78" width="0.28" height="10.19"/><rect class="cls-149" x="9.12" y="2.78" width="0.28" height="10.19"/><rect class="cls-150" x="9.4" y="2.78" width="0.28" height="10.19"/><rect class="cls-151" x="9.68" y="2.78" width="0.28" height="10.19"/><rect class="cls-152" x="9.96" y="2.78" width="0.28" height="10.19"/><rect class="cls-153" x="10.24" y="2.78" width="0.28" height="10.19"/><rect class="cls-154" x="10.52" y="2.78" width="0.28" height="10.19"/><rect class="cls-155" x="10.8" y="2.78" width="0.28" height="10.19"/><rect class="cls-156" x="11.08" y="2.78" width="0.28" height="10.19"/><rect class="cls-157" x="11.36" y="2.78" width="0.28" height="10.19"/><rect class="cls-158" x="11.64" y="2.78" width="0.28" height="10.19"/><rect class="cls-159" x="11.92" y="2.78" width="0.28" height="10.19"/><rect class="cls-160" x="12.2" y="2.78" width="0.28" height="10.19"/><rect class="cls-161" x="12.48" y="2.78" width="0.28" height="10.19"/><rect class="cls-162" x="12.76" y="2.78" width="0.28" height="10.19"/><rect class="cls-163" x="13.04" y="2.78" width="0.28" height="10.19"/><rect class="cls-164" x="13.32" y="2.78" width="0.28" height="10.19"/><rect class="cls-165" x="13.6" y="2.78" width="0.28" height="10.19"/><rect class="cls-166" x="13.88" y="2.78" width="0.28" height="10.19"/><rect class="cls-167" x="14.16" y="2.78" width="0.28" height="10.19"/><rect class="cls-168" x="14.44" y="2.78" width="0.28" height="10.19"/><rect class="cls-169" x="14.72" y="2.78" width="0.28" height="10.19"/><rect class="cls-170" x="15" y="2.78" width="0.28" height="10.19"/><rect class="cls-171" x="15.28" y="2.78" width="0.28" height="10.19"/><rect class="cls-172" x="15.56" y="2.78" width="0.28" height="10.19"/><rect class="cls-173" x="15.84" y="2.78" width="0.28" height="10.19"/></g></g></g></g></g></svg>