<svg width="25" height="25" xmlns="http://www.w3.org/2000/svg" data-name="图层 1">
 <defs>
  <clipPath id="clip-path">
   <path class="cls-3" d="m18.47089,9.03015l-1.38,0l-1.67,4.27l-1.68,-4.27l-1.38,0l-0.52,5.82l1.37,0l0.29,-3.2l1.35,3.09l1.14,0l1.34,-3.09l0.29,3.2l1.37,0l-0.52,-5.82zm-9.73,-0.92l0,0l0,0.9l0,0l0,7.25l2.28,0l0,-0.91l-1.37,0l0,-6.33l1.37,0l0,-0.9l-2.28,0l0,-0.01zm11.08,0l0,0l0,0.9l1.36,0l0,6.34l-1.36,0l0,0.91l2.28,0l0,-7.24l0,0l0,-0.9l-2.28,0l0,-0.01zm3.09,0.08a0.81,0.81 0 0 0 0.61,0.71c0.24,0.1 0.46,0.15 0.46,0.28s-0.07,0.14 -0.24,0.14a1,1 0 0 1 -0.59,-0.24l-0.41,0.52a1.6,1.6 0 0 0 0.93,0.34c0.67,0 1,-0.35 1,-0.8a0.77,0.77 0 0 0 -0.62,-0.72c-0.24,-0.09 -0.45,-0.13 -0.45,-0.26s0.07,-0.13 0.21,-0.13a0.89,0.89 0 0 1 0.49,0.2l0.44,-0.5a1.42,1.42 0 0 0 -0.88,-0.32c-0.57,0 -1,0.31 -1,0.78" fill="none" id="svg_1"/>
  </clipPath>
  <clipPath id="clip-path-2">
   <rect x="8.74089" class="cls-3" y="7.42015" width="16" height="8.87" fill="none" id="svg_2"/>
  </clipPath>
  <filter id="luminosity-invert" filterUnits="userSpaceOnUse" color-interpolation-filters="sRGB"/>
  <mask id="mask" x="-0.53" y="2.78" width="16.88" height="10.19" maskUnits="userSpaceOnUse">
   <g class="cls-1" isolation="isolate" filter="url(#luminosity-invert)" id="svg_3">
    <polygon class="cls-2" points="4.76 7.8 6.1 10.89 6.67 9.45 4.99 5.18 4.76 7.8" fill="#020202" id="svg_4"/>
    <polygon class="cls-2" points="9.72 5.18 8.59 7.81 8.88 10.99 10.25 10.99 9.72 5.18" fill="#020202" id="svg_5"/>
   </g>
  </mask>
  <clipPath id="clip-path-3">
   <rect class="cls-3" x="110.65201" y="63.3243" width="16.88" height="10.19" fill="none" id="svg_6"/>
  </clipPath>
 </defs>
 <title>画板 5</title>
 <g>
  <title>Layer 1</title>
  <g stroke="null" id="svg_180">
   <g stroke="null" class="cls-4" clip-path="url(#clip-path)" id="svg_7">
    <polygon stroke="null" class="cls-5" points="6.422123923897743,4.327629089355469 2.0761635452508926,10.35869312286377 2.0761635452508926,4.327629089355469 6.422123923897743,4.327629089355469 " fill="#8ff4ff" id="svg_8"/>
    <polygon stroke="null" class="cls-5" points="6.612996116280556,4.327629089355469 2.0761635452508926,10.617838859558105 2.0761635452508926,10.35869312286377 6.422123923897743,4.327629089355469 6.612996116280556,4.327629089355469 " fill="#8ff4ff" id="svg_9"/>
    <polygon stroke="null" class="cls-6" points="6.789183631539345,4.327629089355469 2.0761635452508926,10.865208625793457 2.0761635452508926,10.617838859558105 6.612996116280556,4.327629089355469 6.789183631539345,4.327629089355469 " fill="#8ff3ff" id="svg_10"/>
    <polygon stroke="null" class="cls-7" points="6.980052009224892,4.327629089355469 2.0761635452508926,11.124354362487793 2.0761635452508926,10.865208625793457 6.789183631539345,4.327629089355469 6.980052009224892,4.327629089355469 " fill="#8ef2ff" id="svg_11"/>
    <polygon stroke="null" class="cls-8" points="7.170922294259071,4.327629089355469 2.0761635452508926,11.383503913879395 2.0761635452508926,11.124354362487793 6.980052009224892,4.327629089355469 7.170922294259071,4.327629089355469 " fill="#8ef1ff" id="svg_12"/>
    <polygon stroke="null" class="cls-9" points="7.34710980951786,4.327629089355469 2.0761635452508926,11.64264965057373 2.0761635452508926,11.383503913879395 7.170922294259071,4.327629089355469 7.34710980951786,4.327629089355469 " fill="#8df0ff" id="svg_13"/>
    <polygon stroke="null" class="cls-10" points="7.5379786640405655,4.327629089355469 2.0761635452508926,11.89001750946045 2.0761635452508926,11.64264965057373 7.34710980951786,4.327629089355469 7.5379786640405655,4.327629089355469 " fill="#8defff" id="svg_14"/>
    <polygon stroke="null" class="cls-11" points="7.714168086647987,4.327629089355469 2.0761635452508926,12.149165153503418 2.0761635452508926,11.89001750946045 7.5379786640405655,4.327629089355469 7.714168086647987,4.327629089355469 " fill="#8ceeff" id="svg_15"/>
    <polygon stroke="null" class="cls-12" points="7.905039802193642,4.327629089355469 2.0761635452508926,12.408312797546387 2.0761635452508926,12.149165153503418 7.714168086647987,4.327629089355469 7.905039802193642,4.327629089355469 " fill="#8cedff" id="svg_16"/>
    <polygon stroke="null" class="cls-13" points="8.08122731745243,4.327629089355469 2.0761635452508926,12.667458534240723 2.0761635452508926,12.408312797546387 7.905039802193642,4.327629089355469 8.08122731745243,4.327629089355469 " fill="#8cecff" id="svg_17"/>
    <polygon stroke="null" class="cls-14" points="8.272095695137978,4.327629089355469 2.0761635452508926,12.926604270935059 2.0761635452508926,12.667458534240723 8.08122731745243,4.327629089355469 8.272095695137978,4.327629089355469 " fill="#8bebff" id="svg_18"/>
    <polygon stroke="null" class="cls-15" points="8.448281303048134,4.327629089355469 2.0761635452508926,13.173975944519043 2.0761635452508926,12.926604270935059 8.272095695137978,4.327629089355469 8.448281303048134,4.327629089355469 " fill="#8beaff" id="svg_19"/>
    <polygon stroke="null" class="cls-16" points="8.639153495430946,4.327629089355469 2.0761635452508926,13.433119773864746 2.0761635452508926,13.173975944519043 8.448281303048134,4.327629089355469 8.639153495430946,4.327629089355469 " fill="#8ae9ff" id="svg_20"/>
    <polygon stroke="null" class="cls-17" points="8.830023780465126,4.327629089355469 2.0761635452508926,13.692267417907715 2.0761635452508926,13.433119773864746 8.639153495430946,4.327629089355469 8.830023780465126,4.327629089355469 " fill="#8ae8ff" id="svg_21"/>
    <polygon stroke="null" class="cls-18" points="9.006211295723915,4.327629089355469 2.0761635452508926,13.951415061950684 2.0761635452508926,13.692267417907715 8.830023780465126,4.327629089355469 9.006211295723915,4.327629089355469 " fill="#89e7ff" id="svg_22"/>
    <polygon stroke="null" class="cls-19" points="9.197079673409462,4.327629089355469 2.0761635452508926,14.198782920837402 2.0761635452508926,13.951415061950684 9.006211295723915,4.327629089355469 9.197079673409462,4.327629089355469 " fill="#89e6ff" id="svg_23"/>
    <polygon stroke="null" class="cls-20" points="9.373271003365517,4.327629089355469 2.0761635452508926,14.457928657531738 2.0761635452508926,14.198782920837402 9.197079673409462,4.327629089355469 9.373271003365517,4.327629089355469 " fill="#88e5ff" id="svg_24"/>
    <polygon stroke="null" class="cls-21" points="9.564139381051064,4.327629089355469 2.0761635452508926,14.717080116271973 2.0761635452508926,14.457928657531738 9.373271003365517,4.327629089355469 9.564139381051064,4.327629089355469 " fill="#88e4ff" id="svg_25"/>
    <polygon stroke="null" class="cls-22" points="9.755009666085243,4.327629089355469 2.0761635452508926,14.976225852966309 2.0761635452508926,14.717080116271973 9.564139381051064,4.327629089355469 9.755009666085243,4.327629089355469 " fill="#88e3ff" id="svg_26"/>
    <polygon stroke="null" class="cls-23" points="9.931199088692665,4.327629089355469 2.0761635452508926,15.235377311706543 2.0761635452508926,14.976225852966309 9.755009666085243,4.327629089355469 9.931199088692665,4.327629089355469 " fill="#87e2ff" id="svg_27"/>
    <polygon stroke="null" class="cls-24" points="10.122069373726845,4.327629089355469 2.0761635452508926,15.482743263244629 2.0761635452508926,15.235377311706543 9.931199088692665,4.327629089355469 10.122069373726845,4.327629089355469 " fill="#87e1ff" id="svg_28"/>
    <polygon stroke="null" class="cls-25" points="10.298254981637001,4.327629089355469 2.0761635452508926,15.741888999938965 2.0761635452508926,15.482743263244629 10.122069373726845,4.327629089355469 10.298254981637001,4.327629089355469 " fill="#86e0ff" id="svg_29"/>
    <polygon stroke="null" class="cls-26" points="10.48912526667118,4.327629089355469 2.0761635452508926,16.001041412353516 2.0761635452508926,15.741888999938965 10.298254981637001,4.327629089355469 10.48912526667118,4.327629089355469 " fill="#86dfff" id="svg_30"/>
    <polygon stroke="null" class="cls-27" points="10.66531278192997,4.327629089355469 2.0761635452508926,16.260183334350586 2.0761635452508926,16.001041412353516 10.48912526667118,4.327629089355469 10.66531278192997,4.327629089355469 " fill="#85deff" id="svg_31"/>
    <polygon stroke="null" class="cls-28" points="10.85618306696415,4.327629089355469 2.2229874283075333,16.330860137939453 2.0761635452508926,16.330860137939453 2.0761635452508926,16.260183334350586 10.66531278192997,4.327629089355469 10.85618306696415,4.327629089355469 " fill="#85ddff" id="svg_32"/>
    <polygon stroke="null" class="cls-29" points="11.047051444649696,4.327629089355469 2.3991749435663223,16.330860137939453 2.2229874283075333,16.330860137939453 10.85618306696415,4.327629089355469 11.047051444649696,4.327629089355469 " fill="#85dcff" id="svg_33"/>
    <polygon stroke="null" class="cls-30" points="11.223240867257118,4.327629089355469 2.590043321251869,16.330860137939453 2.3991749435663223,16.330860137939453 11.047051444649696,4.327629089355469 11.223240867257118,4.327629089355469 " fill="#84dbff" id="svg_34"/>
    <polygon stroke="null" class="cls-31" points="11.414111152291298,4.327629089355469 2.7662308365106583,16.330860137939453 2.590043321251869,16.330860137939453 11.223240867257118,4.327629089355469 11.414111152291298,4.327629089355469 " fill="#84daff" id="svg_35"/>
    <polygon stroke="null" class="cls-32" points="11.590296760201454,4.327629089355469 2.957101121544838,16.330860137939453 2.7662308365106583,16.330860137939453 11.414111152291298,4.327629089355469 11.590296760201454,4.327629089355469 " fill="#83d9ff" id="svg_36"/>
    <polygon stroke="null" class="cls-33" points="11.781168952584267,4.327629089355469 3.1479714065790176,16.330860137939453 2.957101121544838,16.330860137939453 11.590296760201454,4.327629089355469 11.781168952584267,4.327629089355469 " fill="#83d8ff" id="svg_37"/>
    <polygon stroke="null" class="cls-34" points="11.957356467843056,4.327629089355469 3.324156776070595,16.330860137939453 3.1479714065790176,16.330860137939453 11.781168952584267,4.327629089355469 11.957356467843056,4.327629089355469 " fill="#82d7ff" id="svg_38"/>
    <polygon stroke="null" class="cls-35" points="12.148224845528603,4.327629089355469 3.5150272995233536,16.330860137939453 3.324156776070595,16.330860137939453 11.957356467843056,4.327629089355469 12.148224845528603,4.327629089355469 " fill="#82d6ff" id="svg_39"/>
    <polygon stroke="null" class="cls-36" points="12.339097037911415,4.327629089355469 3.6912145763635635,16.330860137939453 3.5150272995233536,16.330860137939453 12.148224845528603,4.327629089355469 12.339097037911415,4.327629089355469 " fill="#82d5ff" id="svg_40"/>
    <polygon stroke="null" class="cls-37" points="12.515284553170204,4.327629089355469 3.8820848613977432,16.330860137939453 3.6912145763635635,16.330860137939453 12.339097037911415,4.327629089355469 12.515284553170204,4.327629089355469 " fill="#81d4ff" id="svg_41"/>
    <polygon stroke="null" class="cls-38" points="12.706156745553017,4.327629089355469 4.058274284005165,16.330860137939453 3.8820848613977432,16.330860137939453 12.515284553170204,4.327629089355469 12.706156745553017,4.327629089355469 " fill="#81d3ff" id="svg_42"/>
    <polygon stroke="null" class="cls-39" points="12.882342353463173,4.327629089355469 4.249142661690712,16.330860137939453 4.058274284005165,16.330860137939453 12.706156745553017,4.327629089355469 12.882342353463173,4.327629089355469 " fill="#80d2ff" id="svg_43"/>
    <polygon stroke="null" class="cls-40" points="13.073214545845985,4.327629089355469 4.425330176949501,16.330860137939453 4.249142661690712,16.330860137939453 12.882342353463173,4.327629089355469 13.073214545845985,4.327629089355469 " fill="#80d1ff" id="svg_44"/>
    <polygon stroke="null" class="cls-41" points="13.249402061104774,4.327629089355469 4.616202846169472,16.330860137939453 4.425330176949501,16.330860137939453 13.073214545845985,4.327629089355469 13.249402061104774,4.327629089355469 " fill="#7fd0ff" id="svg_45"/>
    <polygon stroke="null" class="cls-42" points="13.440270438790321,4.327629089355469 4.80707074701786,16.330860137939453 4.616202846169472,16.330860137939453 13.249402061104774,4.327629089355469 13.440270438790321,4.327629089355469 " fill="#7fcfff" id="svg_46"/>
    <polygon stroke="null" class="cls-43" points="13.631142631173134,4.327629089355469 4.9832582622766495,16.330860137939453 4.80707074701786,16.330860137939453 13.440270438790321,4.327629089355469 13.631142631173134,4.327629089355469 " fill="#7fceff" id="svg_47"/>
    <polygon stroke="null" class="cls-44" points="13.807330146431923,4.327629089355469 5.17413093149662,16.330860137939453 4.9832582622766495,16.330860137939453 13.631142631173134,4.327629089355469 13.807330146431923,4.327629089355469 " fill="#7ecdff" id="svg_48"/>
    <polygon stroke="null" class="cls-45" points="13.99819852411747,4.327629089355469 5.350318446755409,16.330860137939453 5.17413093149662,16.330860137939453 13.807330146431923,4.327629089355469 13.99819852411747,4.327629089355469 " fill="#7eccff" id="svg_49"/>
    <polygon stroke="null" class="cls-46" points="14.174388900399208,4.327629089355469 5.541188731789589,16.330860137939453 5.350318446755409,16.330860137939453 13.99819852411747,4.327629089355469 14.174388900399208,4.327629089355469 " fill="#7dcbff" id="svg_50"/>
    <polygon stroke="null" class="cls-47" points="14.365259185433388,4.327629089355469 5.732057109475136,16.330860137939453 5.541188731789589,16.330860137939453 14.174388900399208,4.327629089355469 14.365259185433388,4.327629089355469 " fill="#7dcaff" id="svg_51"/>
    <polygon stroke="null" class="cls-48" points="14.54144860804081,4.327629089355469 5.908244624733925,16.330860137939453 5.732057109475136,16.330860137939453 14.365259185433388,4.327629089355469 14.54144860804081,4.327629089355469 " fill="#7cc9ff" id="svg_52"/>
    <polygon stroke="null" class="cls-49" points="14.732316985726357,4.327629089355469 6.099114432930946,16.330860137939453 5.908244624733925,16.330860137939453 14.54144860804081,4.327629089355469 14.732316985726357,4.327629089355469 " fill="#7cc8ff" id="svg_53"/>
    <polygon stroke="null" class="cls-50" points="14.923187270760536,4.327629089355469 6.275301948189735,16.330860137939453 6.099114432930946,16.330860137939453 14.732316985726357,4.327629089355469 14.923187270760536,4.327629089355469 " fill="#7bc7ff" id="svg_54"/>
    <polygon stroke="null" class="cls-51" points="15.09937097132206,4.327629089355469 6.466172710061073,16.330860137939453 6.275301948189735,16.330860137939453 14.923187270760536,4.327629089355469 15.09937097132206,4.327629089355469 " fill="#7bc6ff" id="svg_55"/>
    <polygon stroke="null" class="cls-52" points="15.290243163704872,4.327629089355469 6.642359748482704,16.330860137939453 6.466172710061073,16.330860137939453 15.09937097132206,4.327629089355469 15.290243163704872,4.327629089355469 " fill="#7bc5ff" id="svg_56"/>
    <polygon stroke="null" class="cls-53" points="15.466428771615028,4.327629089355469 6.833228603005409,16.330860137939453 6.642359748482704,16.330860137939453 15.290243163704872,4.327629089355469 15.466428771615028,4.327629089355469 " fill="#7ac4ff" id="svg_57"/>
    <polygon stroke="null" class="cls-54" points="15.657299056649208,4.327629089355469 7.024098411202431,16.330860137939453 6.833228603005409,16.330860137939453 15.466428771615028,4.327629089355469 15.657299056649208,4.327629089355469 " fill="#7ac3ff" id="svg_58"/>
    <polygon stroke="null" class="cls-55" points="15.833484664559364,4.327629089355469 7.200287833809853,16.330860137939453 7.024098411202431,16.330860137939453 15.657299056649208,4.327629089355469 15.833484664559364,4.327629089355469 " fill="#79c2ff" id="svg_59"/>
    <polygon stroke="null" class="cls-56" points="16.02435876429081,4.327629089355469 7.391158118844032,16.330860137939453 7.200287833809853,16.330860137939453 15.833484664559364,4.327629089355469 16.02435876429081,4.327629089355469 " fill="#79c1ff" id="svg_60"/>
    <polygon stroke="null" class="cls-57" points="16.215227141976357,4.327629089355469 7.567345634102821,16.330860137939453 7.391158118844032,16.330860137939453 16.02435876429081,4.327629089355469 16.215227141976357,4.327629089355469 " fill="#78c0ff" id="svg_61"/>
    <polygon stroke="null" class="cls-58" points="16.391414657235146,4.327629089355469 7.758214011788368,16.330860137939453 7.567345634102821,16.330860137939453 16.215227141976357,4.327629089355469 16.391414657235146,4.327629089355469 " fill="#78beff" id="svg_62"/>
    <polygon stroke="null" class="cls-59" points="16.582284942269325,4.327629089355469 7.93440343439579,16.330860137939453 7.758214011788368,16.330860137939453 16.391414657235146,4.327629089355469 16.582284942269325,4.327629089355469 " fill="#78bdff" id="svg_63"/>
    <polygon stroke="null" class="cls-60" points="16.758474364876747,4.327629089355469 8.125275626778603,16.330860137939453 7.93440343439579,16.330860137939453 16.582284942269325,4.327629089355469 16.758474364876747,4.327629089355469 " fill="#77bcff" id="svg_64"/>
    <polygon stroke="null" class="cls-61" points="16.949342742562294,4.327629089355469 8.316142097115517,16.330860137939453 8.125275626778603,16.330860137939453 16.758474364876747,4.327629089355469 16.949342742562294,4.327629089355469 " fill="#7bf" id="svg_65"/>
    <polygon stroke="null" class="cls-62" points="17.12553597986698,4.327629089355469 8.492329612374306,16.330860137939453 8.316142097115517,16.330860137939453 16.949342742562294,4.327629089355469 17.12553597986698,4.327629089355469 " fill="#76baff" id="svg_66"/>
    <polygon stroke="null" class="cls-63" points="17.316402450203896,4.327629089355469 8.683199897408485,16.330860137939453 8.492329612374306,16.330860137939453 17.12553597986698,4.327629089355469 17.316402450203896,4.327629089355469 " fill="#76b9ff" id="svg_67"/>
    <polygon stroke="null" class="cls-64" points="17.507272735238075,4.327629089355469 8.859389320015907,16.330860137939453 8.683199897408485,16.330860137939453 17.316402450203896,4.327629089355469 17.507272735238075,4.327629089355469 " fill="#75b8ff" id="svg_68"/>
    <polygon stroke="null" class="cls-65" points="17.683460250496864,4.327629089355469 9.050257697701454,16.330860137939453 8.859389320015907,16.330860137939453 17.507272735238075,4.327629089355469 17.683460250496864,4.327629089355469 " fill="#75b7ff" id="svg_69"/>
    <polygon stroke="null" class="cls-66" points="17.874332442879677,4.327629089355469 9.226447120308876,16.330860137939453 9.050257697701454,16.330860137939453 17.683460250496864,4.327629089355469 17.874332442879677,4.327629089355469 " fill="#75b6ff" id="svg_70"/>
    <polygon stroke="null" class="cls-67" points="18.0505161434412,4.327629089355469 9.417317405343056,16.330860137939453 9.226447120308876,16.330860137939453 17.874332442879677,4.327629089355469 18.0505161434412,4.327629089355469 " fill="#74b5ff" id="svg_71"/>
    <polygon stroke="null" class="cls-68" points="18.241384521126747,4.327629089355469 9.608185783028603,16.330860137939453 9.417317405343056,16.330860137939453 18.0505161434412,4.327629089355469 18.241384521126747,4.327629089355469 " fill="#74b4ff" id="svg_72"/>
    <polygon stroke="null" class="cls-69" points="18.43225671350956,4.327629089355469 9.784371390938759,16.330860137939453 9.608185783028603,16.330860137939453 18.241384521126747,4.327629089355469 18.43225671350956,4.327629089355469 " fill="#73b3ff" id="svg_73"/>
    <polygon stroke="null" class="cls-70" points="18.608442321419716,4.327629089355469 9.975243583321571,16.330860137939453 9.784371390938759,16.330860137939453 18.43225671350956,4.327629089355469 18.608442321419716,4.327629089355469 " fill="#73b2ff" id="svg_74"/>
    <polygon stroke="null" class="cls-71" points="18.79931642115116,4.327629089355469 10.151433005928993,16.330860137939453 9.975243583321571,16.330860137939453 18.608442321419716,4.327629089355469 18.79931642115116,4.327629089355469 " fill="#72b1ff" id="svg_75"/>
    <polygon stroke="null" class="cls-72" points="18.975505843758583,4.327629089355469 10.34230138361454,16.330860137939453 10.151433005928993,16.330860137939453 18.79931642115116,4.327629089355469 18.975505843758583,4.327629089355469 " fill="#72b0ff" id="svg_76"/>
    <polygon stroke="null" class="cls-73" points="19.166372314095497,4.327629089355469 10.518486991524696,16.330860137939453 10.34230138361454,16.330860137939453 18.975505843758583,4.327629089355469 19.166372314095497,4.327629089355469 " fill="#71afff" id="svg_77"/>
    <polygon stroke="null" class="cls-74" points="19.342557922005653,4.327629089355469 10.709359183907509,16.330860137939453 10.518486991524696,16.330860137939453 19.166372314095497,4.327629089355469 19.342557922005653,4.327629089355469 " fill="#71aeff" id="svg_78"/>
    <polygon stroke="null" class="cls-75" points="19.5334320217371,4.327629089355469 10.900227561593056,16.330860137939453 10.709359183907509,16.330860137939453 19.342557922005653,4.327629089355469 19.5334320217371,4.327629089355469 " fill="#71adff" id="svg_79"/>
    <polygon stroke="null" class="cls-76" points="19.709615722298622,4.327629089355469 11.076416984200478,16.330860137939453 10.900227561593056,16.330860137939453 19.5334320217371,4.327629089355469 19.709615722298622,4.327629089355469 " fill="#70acff" id="svg_80"/>
    <polygon stroke="null" class="cls-77" points="19.900493636727333,4.327629089355469 11.267287269234657,16.330860137939453 11.076416984200478,16.330860137939453 19.709615722298622,4.327629089355469 19.900493636727333,4.327629089355469 " fill="#70abff" id="svg_81"/>
    <polygon stroke="null" class="cls-78" points="20.09136201441288,4.327629089355469 11.443472877144814,16.330860137939453 11.267287269234657,16.330860137939453 19.900493636727333,4.327629089355469 20.09136201441288,4.327629089355469 " fill="#6faaff" id="svg_82"/>
    <polygon stroke="null" class="cls-79" points="20.26754380762577,4.327629089355469 11.634346976876259,16.330860137939453 11.443472877144814,16.330860137939453 20.09136201441288,4.327629089355469 20.26754380762577,4.327629089355469 " fill="#6fa9ff" id="svg_83"/>
    <polygon stroke="null" class="cls-80" points="20.458416000008583,4.327629089355469 11.825213447213173,16.330860137939453 11.634346976876259,16.330860137939453 20.26754380762577,4.327629089355469 20.458416000008583,4.327629089355469 " fill="#6ea8ff" id="svg_84"/>
    <polygon stroke="null" class="cls-81" points="20.634605422616005,4.327629089355469 12.001404777169228,16.330860137939453 11.825213447213173,16.330860137939453 20.458416000008583,4.327629089355469 20.634605422616005,4.327629089355469 " fill="#6ea7ff" id="svg_85"/>
    <polygon stroke="null" class="cls-82" points="20.82547189295292,4.327629089355469 12.192275062203407,16.330860137939453 12.001404777169228,16.330860137939453 20.634605422616005,4.327629089355469 20.82547189295292,4.327629089355469 " fill="#6ea6ff" id="svg_86"/>
    <polygon stroke="null" class="cls-83" points="21.016338363289833,4.327629089355469 12.368462577462196,16.330860137939453 12.192275062203407,16.330860137939453 20.82547189295292,4.327629089355469 21.016338363289833,4.327629089355469 " fill="#6da5ff" id="svg_87"/>
    <polygon stroke="null" class="cls-84" points="21.19253160059452,4.327629089355469 12.559332862496376,16.330860137939453 12.368462577462196,16.330860137939453 21.016338363289833,4.327629089355469 21.19253160059452,4.327629089355469 " fill="#6da4ff" id="svg_88"/>
    <polygon stroke="null" class="cls-85" points="21.383398070931435,4.327629089355469 12.735520377755165,16.330860137939453 12.559332862496376,16.330860137939453 21.19253160059452,4.327629089355469 21.383398070931435,4.327629089355469 " fill="#6ca3ff" id="svg_89"/>
    <polygon stroke="null" class="cls-86" points="21.559587493538857,4.327629089355469 12.926390662789345,16.330860137939453 12.735520377755165,16.330860137939453 21.383398070931435,4.327629089355469 21.559587493538857,4.327629089355469 " fill="#6ca2ff" id="svg_90"/>
    <polygon stroke="null" class="cls-87" points="21.750455871224403,4.327629089355469 13.117259040474892,16.330860137939453 12.926390662789345,16.330860137939453 21.559587493538857,4.327629089355469 21.750455871224403,4.327629089355469 " fill="#6ba1ff" id="svg_91"/>
    <polygon stroke="null" class="cls-88" points="21.926645293831825,4.327629089355469 13.29344655573368,16.330860137939453 13.117259040474892,16.330860137939453 21.750455871224403,4.327629089355469 21.926645293831825,4.327629089355469 " fill="#6ba0ff" id="svg_92"/>
    <polygon stroke="null" class="cls-89" points="22.117513671517372,4.327629089355469 13.48431684076786,16.330860137939453 13.29344655573368,16.330860137939453 21.926645293831825,4.327629089355469 22.117513671517372,4.327629089355469 " fill="#6b9fff" id="svg_93"/>
    <polygon stroke="null" class="cls-90" points="22.293703094124794,4.327629089355469 13.66050435602665,16.330860137939453 13.48431684076786,16.330860137939453 22.117513671517372,4.327629089355469 22.293703094124794,4.327629089355469 " fill="#6a9eff" id="svg_94"/>
    <polygon stroke="null" class="cls-91" points="22.48457147181034,4.327629089355469 13.851372733712196,16.330860137939453 13.66050435602665,16.330860137939453 22.293703094124794,4.327629089355469 22.48457147181034,4.327629089355469 " fill="#6a9dff" id="svg_95"/>
    <polygon stroke="null" class="cls-92" points="22.675449386239052,4.327629089355469 14.027562156319618,16.330860137939453 13.851372733712196,16.330860137939453 22.48457147181034,4.327629089355469 22.675449386239052,4.327629089355469 " fill="#699cff" id="svg_96"/>
    <polygon stroke="null" class="cls-93" points="22.85162927210331,4.327629089355469 14.218431487679482,16.330860137939453 14.027562156319618,16.330860137939453 22.675449386239052,4.327629089355469 22.85162927210331,4.327629089355469 " fill="#699bff" id="svg_97"/>
    <polygon stroke="null" class="cls-94" points="23.042501464486122,4.327629089355469 14.40930749475956,16.330860137939453 14.218431487679482,16.330860137939453 22.85162927210331,4.327629089355469 23.042501464486122,4.327629089355469 " fill="#689aff" id="svg_98"/>
    <polygon stroke="null" class="cls-95" points="23.21868707239628,4.327629089355469 14.58548928797245,16.330860137939453 14.40930749475956,16.330860137939453 23.042501464486122,4.327629089355469 23.21868707239628,4.327629089355469 " fill="#6899ff" id="svg_99"/>
    <polygon stroke="null" class="cls-96" points="23.40955926477909,4.327629089355469 14.776365295052528,16.330860137939453 14.58548928797245,16.330860137939453 23.21868707239628,4.327629089355469 23.40955926477909,4.327629089355469 " fill="#6898ff" id="svg_100"/>
    <polygon stroke="null" class="cls-97" points="23.600427642464638,4.327629089355469 14.952550902962685,16.330860137939453 14.776365295052528,16.330860137939453 23.40955926477909,4.327629089355469 23.600427642464638,4.327629089355469 " fill="#6797ff" id="svg_101"/>
    <polygon stroke="null" class="cls-98" points="23.776618972420692,4.327629089355469 15.143415465950966,16.330860137939453 14.952550902962685,16.330860137939453 23.600427642464638,4.327629089355469 23.776618972420692,4.327629089355469 " fill="#6796ff" id="svg_102"/>
    <polygon stroke="null" class="cls-99" points="23.967489257454872,4.327629089355469 15.319602981209755,16.330860137939453 15.143415465950966,16.330860137939453 23.776618972420692,4.327629089355469 23.967489257454872,4.327629089355469 " fill="#6695ff" id="svg_103"/>
    <polygon stroke="null" class="cls-100" points="24.14368249475956,4.327629089355469 15.5104770809412,16.330860137939453 15.319602981209755,16.330860137939453 23.967489257454872,4.327629089355469 24.14368249475956,4.327629089355469 " fill="#6694ff" id="svg_104"/>
    <polygon stroke="null" class="cls-101" points="24.334548965096474,4.327629089355469 15.686662688851357,16.330860137939453 15.5104770809412,16.330860137939453 24.14368249475956,4.327629089355469 24.334548965096474,4.327629089355469 " fill="#6593ff" id="svg_105"/>
    <polygon stroke="null" class="cls-102" points="24.51074029505253,4.327629089355469 15.877534881234169,16.330860137939453 15.686662688851357,16.330860137939453 24.334548965096474,4.327629089355469 24.51074029505253,4.327629089355469 " fill="#6592ff" id="svg_106"/>
    <polygon stroke="null" class="cls-103" points="24.701614394783974,4.327629089355469 16.068410888314247,16.330860137939453 15.877534881234169,16.330860137939453 24.51074029505253,4.327629089355469 24.701614394783974,4.327629089355469 " fill="#6491ff" id="svg_107"/>
    <polygon stroke="null" class="cls-104" points="24.892477050423622,4.327629089355469 16.244592681527138,16.330860137939453 16.068410888314247,16.330860137939453 24.701614394783974,4.327629089355469 24.892477050423622,4.327629089355469 " fill="#6490ff" id="svg_108"/>
    <polygon stroke="null" class="cls-105" points="25.06867028772831,4.327629089355469 16.435459151864052,16.330860137939453 16.244592681527138,16.330860137939453 24.892477050423622,4.327629089355469 25.06867028772831,4.327629089355469 " fill="#648fff" id="svg_109"/>
    <polygon stroke="null" class="cls-106" points="25.259546294808388,4.327629089355469 16.611650481820107,16.330860137939453 16.435459151864052,16.330860137939453 25.06867028772831,4.327629089355469 25.259546294808388,4.327629089355469 " fill="#638eff" id="svg_110"/>
    <polygon stroke="null" class="cls-107" points="25.435731902718544,4.327629089355469 16.802520766854286,16.330860137939453 16.611650481820107,16.330860137939453 25.259546294808388,4.327629089355469 25.435731902718544,4.327629089355469 " fill="#638dff" id="svg_111"/>
    <polygon stroke="null" class="cls-108" points="25.62660600244999,4.327629089355469 16.99339486658573,16.330860137939453 16.802520766854286,16.330860137939453 25.435731902718544,4.327629089355469 25.62660600244999,4.327629089355469 " fill="#628cff" id="svg_112"/>
    <polygon stroke="null" class="cls-109" points="25.80279542505741,4.327629089355469 17.169580474495888,16.330860137939453 16.99339486658573,16.330860137939453 25.62660600244999,4.327629089355469 25.80279542505741,4.327629089355469 " fill="#628bff" id="svg_113"/>
    <polygon stroke="null" class="cls-110" points="25.99365808069706,4.327629089355469 17.3604526668787,16.330860137939453 17.169580474495888,16.330860137939453 25.80279542505741,4.327629089355469 25.99365808069706,4.327629089355469 " fill="#618aff" id="svg_114"/>
    <polygon stroke="null" class="cls-111" points="26.18454171717167,4.327629089355469 17.53663446009159,16.330860137939453 17.3604526668787,16.330860137939453 25.99365808069706,4.327629089355469 26.18454171717167,4.327629089355469 " fill="#6189ff" id="svg_115"/>
    <polygon stroke="null" class="cls-111" points="17.53663446009159,16.330860137939453 26.18454171717167,4.327629089355469 26.874609008431435,4.327629089355469 26.874609008431435,16.330860137939453 17.53663446009159,16.330860137939453 " fill="#6189ff" id="svg_116"/>
   </g>
   <g stroke="null" class="cls-112" clip-path="url(#clip-path-2)" id="svg_117">
    <g stroke="null" class="cls-113" mask="url(#mask)" id="svg_118">
     <g stroke="null" class="cls-114" opacity="0.5" id="svg_119">
      <g stroke="null" class="cls-115" clip-path="url(#clip-path-3)" id="svg_120">
       <g stroke="null" class="cls-115" clip-path="url(#clip-path-3)" id="svg_121">
        <rect stroke="null" class="cls-116" x="7.39006" y="4.32762" width="0.32982" height="12.00323" fill="#31c3bd" id="svg_122"/>
        <rect stroke="null" class="cls-117" x="7.71989" y="4.32762" width="0.32982" height="12.00323" fill="#32c2be" id="svg_123"/>
        <rect stroke="null" class="cls-118" x="8.04971" y="4.32762" width="0.32982" height="12.00323" fill="#32c1be" id="svg_124"/>
        <rect stroke="null" class="cls-119" x="8.37953" y="4.32762" width="0.32982" height="12.00323" fill="#32c0be" id="svg_125"/>
        <rect stroke="null" class="cls-120" x="8.70936" y="4.32762" width="0.32982" height="12.00323" fill="#32bfbf" id="svg_126"/>
        <rect stroke="null" class="cls-121" x="9.03918" y="4.32762" width="0.32982" height="12.00323" fill="#33bebf" id="svg_127"/>
        <rect stroke="null" class="cls-122" x="9.36901" y="4.32762" width="0.32982" height="12.00323" fill="#33bdc0" id="svg_128"/>
        <rect stroke="null" class="cls-123" x="9.69883" y="4.32762" width="0.32982" height="12.00323" fill="#33bcc0" id="svg_129"/>
        <rect stroke="null" class="cls-124" x="10.02865" y="4.32762" width="0.32982" height="12.00323" fill="#33bbc1" id="svg_130"/>
        <rect stroke="null" class="cls-125" x="10.35848" y="4.32762" width="0.32982" height="12.00323" fill="#34bac1" id="svg_131"/>
        <rect stroke="null" class="cls-126" x="10.6883" y="4.32762" width="0.32982" height="12.00323" fill="#34b9c2" id="svg_132"/>
        <rect stroke="null" class="cls-127" x="11.01812" y="4.32762" width="0.32982" height="12.00323" fill="#34b8c2" id="svg_133"/>
        <rect stroke="null" class="cls-128" x="11.34795" y="4.32762" width="0.32982" height="12.00323" fill="#34b7c3" id="svg_134"/>
        <rect stroke="null" class="cls-129" x="11.67777" y="4.32762" width="0.32982" height="12.00323" fill="#35b6c3" id="svg_135"/>
        <rect stroke="null" class="cls-130" x="12.0076" y="4.32762" width="0.32982" height="12.00323" fill="#35b5c3" id="svg_136"/>
        <rect stroke="null" class="cls-131" x="12.33742" y="4.32762" width="0.32982" height="12.00323" fill="#35b4c4" id="svg_137"/>
        <rect stroke="null" class="cls-132" x="12.66724" y="4.32762" width="0.32982" height="12.00323" fill="#35b3c4" id="svg_138"/>
        <rect stroke="null" class="cls-133" x="12.99707" y="4.32762" width="0.32982" height="12.00323" fill="#36b2c5" id="svg_139"/>
        <rect stroke="null" class="cls-134" x="13.39893" y="4.32762" width="0.32982" height="12.00323" fill="#36b1c5" id="svg_140"/>
        <rect stroke="null" class="cls-135" x="13.72876" y="4.32762" width="0.32982" height="12.00323" fill="#36b0c6" id="svg_141"/>
        <rect stroke="null" class="cls-136" x="14.05858" y="4.32762" width="0.32982" height="12.00323" fill="#36afc6" id="svg_142"/>
        <rect stroke="null" class="cls-137" x="14.3884" y="4.32762" width="0.32982" height="12.00323" fill="#37aec7" id="svg_143"/>
        <rect stroke="null" class="cls-138" x="14.71823" y="4.32762" width="0.32982" height="12.00323" fill="#37adc7" id="svg_144"/>
        <rect stroke="null" class="cls-139" x="15.04805" y="4.32762" width="0.32982" height="12.00323" fill="#37acc8" id="svg_145"/>
        <rect stroke="null" class="cls-140" x="15.37788" y="4.32762" width="0.32982" height="12.00323" fill="#38abc8" id="svg_146"/>
        <rect stroke="null" class="cls-141" x="15.7077" y="4.32762" width="0.32982" height="12.00323" fill="#38aac8" id="svg_147"/>
        <rect stroke="null" class="cls-142" x="16.03752" y="4.32762" width="0.32982" height="12.00323" fill="#38a9c9" id="svg_148"/>
        <rect stroke="null" class="cls-143" x="16.36735" y="4.32762" width="0.32982" height="12.00323" fill="#38a8c9" id="svg_149"/>
        <rect stroke="null" class="cls-144" x="16.69717" y="4.32762" width="0.32982" height="12.00323" fill="#39a7ca" id="svg_150"/>
        <rect stroke="null" class="cls-145" x="17.027" y="4.32762" width="0.32982" height="12.00323" fill="#39a6ca" id="svg_151"/>
        <rect stroke="null" class="cls-146" x="17.35682" y="4.32762" width="0.32982" height="12.00323" fill="#39a5cb" id="svg_152"/>
        <rect stroke="null" class="cls-147" x="17.68664" y="4.32762" width="0.32982" height="12.00323" fill="#39a4cb" id="svg_153"/>
        <rect stroke="null" class="cls-148" x="18.01647" y="4.32762" width="0.32982" height="12.00323" fill="#3aa3cc" id="svg_154"/>
        <rect stroke="null" class="cls-149" x="18.34629" y="4.32762" width="0.32982" height="12.00323" fill="#3aa2cc" id="svg_155"/>
        <rect stroke="null" class="cls-150" x="18.67611" y="4.32762" width="0.32982" height="12.00323" fill="#3aa1cd" id="svg_156"/>
        <rect stroke="null" class="cls-151" x="19.00594" y="4.32762" width="0.32982" height="12.00323" fill="#3aa0cd" id="svg_157"/>
        <rect stroke="null" class="cls-152" x="19.33576" y="4.32762" width="0.32982" height="12.00323" fill="#3b9fcd" id="svg_158"/>
        <rect stroke="null" class="cls-153" x="19.66559" y="4.32762" width="0.32982" height="12.00323" fill="#3b9ece" id="svg_159"/>
        <rect stroke="null" class="cls-154" x="19.99541" y="4.32762" width="0.32982" height="12.00323" fill="#3b9dce" id="svg_160"/>
        <rect stroke="null" class="cls-155" x="20.32523" y="4.32762" width="0.32982" height="12.00323" fill="#3b9ccf" id="svg_161"/>
        <rect stroke="null" class="cls-156" x="20.65506" y="4.32762" width="0.32982" height="12.00323" fill="#3c9acf" id="svg_162"/>
        <rect stroke="null" class="cls-157" x="20.98488" y="4.32762" width="0.32982" height="12.00323" fill="#3c99d0" id="svg_163"/>
        <rect stroke="null" class="cls-158" x="21.3147" y="4.32762" width="0.32982" height="12.00323" fill="#3c98d0" id="svg_164"/>
        <rect stroke="null" class="cls-159" x="21.64453" y="4.32762" width="0.32982" height="12.00323" fill="#3c97d1" id="svg_165"/>
        <rect stroke="null" class="cls-160" x="21.97435" y="4.32762" width="0.32982" height="12.00323" fill="#3d96d1" id="svg_166"/>
        <rect stroke="null" class="cls-161" x="22.30418" y="4.32762" width="0.32982" height="12.00323" fill="#3d95d1" id="svg_167"/>
        <rect stroke="null" class="cls-162" x="22.634" y="4.32762" width="0.32982" height="12.00323" fill="#3d94d2" id="svg_168"/>
        <rect stroke="null" class="cls-163" x="22.96382" y="4.32762" width="0.32982" height="12.00323" fill="#3d93d2" id="svg_169"/>
        <rect stroke="null" class="cls-164" x="23.29365" y="4.32762" width="0.32982" height="12.00323" fill="#3e92d3" id="svg_170"/>
        <rect stroke="null" class="cls-165" x="23.62347" y="4.32762" width="0.32982" height="12.00323" fill="#3e91d3" id="svg_171"/>
        <rect stroke="null" class="cls-166" x="23.95329" y="4.32762" width="0.32982" height="12.00323" fill="#3e90d4" id="svg_172"/>
        <rect stroke="null" class="cls-167" x="24.28312" y="4.32762" width="0.32982" height="12.00323" fill="#3e8fd4" id="svg_173"/>
        <rect stroke="null" class="cls-168" x="24.61294" y="4.32762" width="0.32982" height="12.00323" fill="#3f8ed5" id="svg_174"/>
        <rect stroke="null" class="cls-169" x="24.94277" y="4.32762" width="0.32982" height="12.00323" fill="#3f8dd5" id="svg_175"/>
        <rect stroke="null" class="cls-170" x="25.27259" y="4.32762" width="0.32982" height="12.00323" fill="#3f8cd6" id="svg_176"/>
        <rect stroke="null" class="cls-171" x="25.60241" y="4.32762" width="0.32982" height="12.00323" fill="#3f8bd6" id="svg_177"/>
        <rect stroke="null" class="cls-172" x="25.93224" y="4.32762" width="0.32982" height="12.00323" fill="#408ad6" id="svg_178"/>
        <rect stroke="null" class="cls-173" x="26.26206" y="4.32762" width="0.32982" height="12.00323" fill="#4089d7" id="svg_179"/>
       </g>
      </g>
     </g>
    </g>
   </g>
   <path stroke="#000" fill="#fff" opacity="NaN" d="m4.5048,9.31634" id="svg_181"/>
  </g>
  <g stroke-width="1.4" id="svg_221">
   <line transform="rotate(-90 14.7144 23.391)" id="svg_201" y2="23.39097" x2="16.123" y1="23.39097" x1="13.30572" stroke="#000" fill="none"/>
   <line transform="rotate(-90 14.7144 23.391)" id="svg_202" y2="23.39097" x2="16.123" y1="23.39097" x1="13.30572" stroke="#000" fill="none"/>
   <line transform="rotate(-90 16.6915 23.391)" id="svg_203" y2="23.39097" x2="18.1001" y1="23.39097" x1="15.28283" stroke="#000" fill="none"/>
   <line transform="rotate(-90 14.09 20.4812)" id="svg_204" y2="22.35424" x2="15.91103" y1="18.60814" x1="12.26899" stroke="#000" fill="none"/>
   <path id="svg_205" d="m15.3908,18.60808l3.64204,3.7461" opacity="undefined" stroke="#000" fill="none"/>
  </g>
  <g stroke-width="1.4" id="svg_222">
   <line id="svg_211" y2="11.53211" x2="3.06753" y1="11.53211" x1="0.25026" stroke="#000" fill="none"/>
   <line id="svg_212" y2="11.53211" x2="3.06753" y1="11.53211" x1="0.25026" stroke="#000" fill="none"/>
   <line id="svg_213" y2="13.50922" x2="3.06753" y1="13.50922" x1="0.25026" stroke="#000" fill="none"/>
   <line id="svg_214" y2="12.78081" x2="6.3897" y1="9.03472" x1="2.74766" stroke="#000" fill="none"/>
   <path transform="rotate(90 4.56868 14.0296)" id="svg_215" d="m2.74766,12.15646l3.64204,3.7461" opacity="undefined" stroke="#000" fill="none"/>
  </g>
  <g transform="rotate(90 15.3127 3.18147)" stroke-width="1.4" id="svg_223">
   <line id="svg_216" y2="2.27093" x2="15.03423" y1="2.27093" x1="12.21696" stroke="#000" fill="none"/>
   <line id="svg_217" y2="2.27093" x2="15.03423" y1="2.27093" x1="12.21696" stroke="#000" fill="none"/>
   <line id="svg_218" y2="4.24804" x2="15.03423" y1="4.24804" x1="12.21696" stroke="#000" fill="none"/>
   <line id="svg_219" y2="3.51963" x2="18.3564" y1="-0.22647" x1="14.71436" stroke="#000" fill="none"/>
   <path transform="rotate(90 16.5354 4.76839)" id="svg_220" d="m14.71436,2.89528l3.64204,3.7461" opacity="undefined" stroke="#000" fill="none"/>
  </g>
 </g>
</svg>