<svg width="16" height="16" xmlns="http://www.w3.org/2000/svg" data-name="图层 1">
 <defs>
  <clipPath id="clip-path">
   <path id="svg_1" fill="none" d="m9.83406,2.05825l-1.38,0l-1.67,4.27l-1.68,-4.27l-1.38,0l-0.52,5.82l1.37,0l0.29,-3.2l1.35,3.09l1.14,0l1.34,-3.09l0.29,3.2l1.37,0l-0.52,-5.82zm-9.73,-0.92l0,0l0,0.9l0,0l0,7.25l2.28,0l0,-0.91l-1.37,0l0,-6.33l1.37,0l0,-0.9l-2.28,0l0,-0.01zm11.08,0l0,0l0,0.9l1.36,0l0,6.34l-1.36,0l0,0.91l2.28,0l0,-7.24l0,0l0,-0.9l-2.28,0l0,-0.01zm3.09,0.08a0.81,0.81 0 0 0 0.61,0.71c0.24,0.1 0.46,0.15 0.46,0.28s-0.07,0.14 -0.24,0.14a1,1 0 0 1 -0.59,-0.24l-0.41,0.52a1.6,1.6 0 0 0 0.93,0.34c0.67,0 1,-0.35 1,-0.8a0.77,0.77 0 0 0 -0.62,-0.72c-0.24,-0.09 -0.45,-0.13 -0.45,-0.26s0.07,-0.13 0.21,-0.13a0.89,0.89 0 0 1 0.49,0.2l0.44,-0.5a1.42,1.42 0 0 0 -0.88,-0.32c-0.57,0 -1,0.31 -1,0.78" class="cls-3"/>
  </clipPath>
  <clipPath id="clip-path-2">
   <rect id="svg_2" fill="none" height="8.87" width="16" y="0.44825" class="cls-3" x="0.10406"/>
  </clipPath>
  <filter color-interpolation-filters="sRGB" filterUnits="userSpaceOnUse" id="luminosity-invert"/>
  <mask maskUnits="userSpaceOnUse" height="10.19" width="16.88" y="2.78" x="-0.53" id="mask">
   <g id="svg_3" filter="url(#luminosity-invert)" isolation="isolate" class="cls-1">
    <polygon id="svg_4" fill="#020202" points="4.76 7.8 6.1 10.89 6.67 9.45 4.99 5.18 4.76 7.8" class="cls-2"/>
    <polygon id="svg_5" fill="#020202" points="9.72 5.18 8.59 7.81 8.88 10.99 10.25 10.99 9.72 5.18" class="cls-2"/>
   </g>
  </mask>
  <clipPath id="clip-path-3">
   <rect id="svg_6" fill="none" height="10.19" width="16.88" y="49.38049" x="93.37834" class="cls-3"/>
  </clipPath>
 </defs>
 <title>画板 5</title>
 <g>
  <title>Layer 1</title>
  <g id="svg_180" stroke="null">
   <g id="svg_7" clip-path="url(#clip-path)" class="cls-4" stroke="null">
    <polygon id="svg_8" fill="#8ff4ff" points="-2.2147116661071777,-2.644274227321148 -6.560671806335449,3.3867893293499947 -6.560671806335449,-2.644274227321148 -2.2147116661071777,-2.644274227321148 " class="cls-5" stroke="null"/>
    <polygon id="svg_9" fill="#8ff4ff" points="-2.0238394737243652,-2.644274227321148 -6.560671806335449,3.6459350660443306 -6.560671806335449,3.3867893293499947 -2.2147116661071777,-2.644274227321148 -2.0238394737243652,-2.644274227321148 " class="cls-5" stroke="null"/>
    <polygon id="svg_10" fill="#8ff3ff" points="-1.8476526737213135,-2.644274227321148 -6.560671806335449,3.893304832279682 -6.560671806335449,3.6459350660443306 -2.0238394737243652,-2.644274227321148 -1.8476526737213135,-2.644274227321148 " class="cls-6" stroke="null"/>
    <polygon id="svg_11" fill="#8ef2ff" points="-1.6567833423614502,-2.644274227321148 -6.560671806335449,4.152450568974018 -6.560671806335449,3.893304832279682 -1.8476526737213135,-2.644274227321148 -1.6567833423614502,-2.644274227321148 " class="cls-7" stroke="null"/>
    <polygon id="svg_12" fill="#8ef1ff" points="-1.4659132957458496,-2.644274227321148 -6.560671806335449,4.41160012036562 -6.560671806335449,4.152450568974018 -1.6567833423614502,-2.644274227321148 -1.4659132957458496,-2.644274227321148 " class="cls-8" stroke="null"/>
    <polygon id="svg_13" fill="#8df0ff" points="-1.2897260189056396,-2.644274227321148 -6.560671806335449,4.670745857059956 -6.560671806335449,4.41160012036562 -1.4659132957458496,-2.644274227321148 -1.2897260189056396,-2.644274227321148 " class="cls-9" stroke="null"/>
    <polygon id="svg_14" fill="#8defff" points="-1.0988566875457764,-2.644274227321148 -6.560671806335449,4.918113715946674 -6.560671806335449,4.670745857059956 -1.2897260189056396,-2.644274227321148 -1.0988566875457764,-2.644274227321148 " class="cls-10" stroke="null"/>
    <polygon id="svg_15" fill="#8ceeff" points="-0.9226671457290649,-2.644274227321148 -6.560671806335449,5.177261359989643 -6.560671806335449,4.918113715946674 -1.0988566875457764,-2.644274227321148 -0.9226671457290649,-2.644274227321148 " class="cls-11" stroke="null"/>
    <polygon id="svg_16" fill="#8cedff" points="-0.7317959070205688,-2.644274227321148 -6.560671806335449,5.436409004032612 -6.560671806335449,5.177261359989643 -0.9226671457290649,-2.644274227321148 -0.7317959070205688,-2.644274227321148 " class="cls-12" stroke="null"/>
    <polygon id="svg_17" fill="#8cecff" points="-0.5556080937385559,-2.644274227321148 -6.560671806335449,5.695554740726948 -6.560671806335449,5.436409004032612 -0.7317959070205688,-2.644274227321148 -0.5556080937385559,-2.644274227321148 " class="cls-13" stroke="null"/>
    <polygon id="svg_18" fill="#8bebff" points="-0.3647400140762329,-2.644274227321148 -6.560671806335449,5.954700477421284 -6.560671806335449,5.695554740726948 -0.5556080937385559,-2.644274227321148 -0.3647400140762329,-2.644274227321148 " class="cls-14" stroke="null"/>
    <polygon id="svg_19" fill="#8beaff" points="-0.188554048538208,-2.644274227321148 -6.560671806335449,6.202072151005268 -6.560671806335449,5.954700477421284 -0.3647400140762329,-2.644274227321148 -0.188554048538208,-2.644274227321148 " class="cls-15" stroke="null"/>
    <polygon id="svg_20" fill="#8ae9ff" points="0.0023181214928627014,-2.644274227321148 -6.560671806335449,6.461215980350971 -6.560671806335449,6.202072151005268 -0.188554048538208,-2.644274227321148 0.0023181214928627014,-2.644274227321148 " class="cls-16" stroke="null"/>
    <polygon id="svg_21" fill="#8ae8ff" points="0.19318822026252747,-2.644274227321148 -6.560671806335449,6.72036362439394 -6.560671806335449,6.461215980350971 0.0023181214928627014,-2.644274227321148 0.19318822026252747,-2.644274227321148 " class="cls-17" stroke="null"/>
    <polygon id="svg_22" fill="#89e7ff" points="0.36937591433525085,-2.644274227321148 -6.560671806335449,6.979511268436909 -6.560671806335449,6.72036362439394 0.19318822026252747,-2.644274227321148 0.36937591433525085,-2.644274227321148 " class="cls-18" stroke="null"/>
    <polygon id="svg_23" fill="#89e6ff" points="0.5602441430091858,-2.644274227321148 -6.560671806335449,7.2268791273236275 -6.560671806335449,6.979511268436909 0.36937591433525085,-2.644274227321148 0.5602441430091858,-2.644274227321148 " class="cls-19" stroke="null"/>
    <polygon id="svg_24" fill="#88e5ff" points="0.7364355325698853,-2.644274227321148 -6.560671806335449,7.486024864017963 -6.560671806335449,7.2268791273236275 0.5602441430091858,-2.644274227321148 0.7364355325698853,-2.644274227321148 " class="cls-20" stroke="null"/>
    <polygon id="svg_25" fill="#88e4ff" points="0.9273040890693665,-2.644274227321148 -6.560671806335449,7.745175369083881 -6.560671806335449,7.486024864017963 0.7364355325698853,-2.644274227321148 0.9273040890693665,-2.644274227321148 " class="cls-21" stroke="null"/>
    <polygon id="svg_26" fill="#88e3ff" points="1.1181740760803223,-2.644274227321148 -6.560671806335449,8.004321105778217 -6.560671806335449,7.745175369083881 0.9273040890693665,-2.644274227321148 1.1181740760803223,-2.644274227321148 " class="cls-22" stroke="null"/>
    <polygon id="svg_27" fill="#87e2ff" points="1.2943634986877441,-2.644274227321148 -6.560671806335449,8.263472564518452 -6.560671806335449,8.004321105778217 1.1181740760803223,-2.644274227321148 1.2943634986877441,-2.644274227321148 " class="cls-23" stroke="null"/>
    <polygon id="svg_28" fill="#87e1ff" points="1.4852337837219238,-2.644274227321148 -6.560671806335449,8.510838516056538 -6.560671806335449,8.263472564518452 1.2943634986877441,-2.644274227321148 1.4852337837219238,-2.644274227321148 " class="cls-24" stroke="null"/>
    <polygon id="svg_29" fill="#86e0ff" points="1.6614196300506592,-2.644274227321148 -6.560671806335449,8.769984252750874 -6.560671806335449,8.510838516056538 1.4852337837219238,-2.644274227321148 1.6614196300506592,-2.644274227321148 " class="cls-25" stroke="null"/>
    <polygon id="svg_30" fill="#86dfff" points="1.8522896766662598,-2.644274227321148 -6.560671806335449,9.02913761883974 -6.560671806335449,8.769984252750874 1.6614196300506592,-2.644274227321148 1.8522896766662598,-2.644274227321148 " class="cls-26" stroke="null"/>
    <polygon id="svg_31" fill="#85deff" points="2.028477191925049,-2.644274227321148 -6.560671806335449,9.288279540836811 -6.560671806335449,9.02913761883974 1.8522896766662598,-2.644274227321148 2.028477191925049,-2.644274227321148 " class="cls-27" stroke="null"/>
    <polygon id="svg_32" fill="#85ddff" points="2.2193474769592285,-2.644274227321148 -6.413847923278809,9.358956344425678 -6.560671806335449,9.358956344425678 -6.560671806335449,9.288279540836811 2.028477191925049,-2.644274227321148 2.2193474769592285,-2.644274227321148 " class="cls-28" stroke="null"/>
    <polygon id="svg_33" fill="#85dcff" points="2.4102158546447754,-2.644274227321148 -6.2376604080200195,9.358956344425678 -6.413847923278809,9.358956344425678 2.2193474769592285,-2.644274227321148 2.4102158546447754,-2.644274227321148 " class="cls-29" stroke="null"/>
    <polygon id="svg_34" fill="#84dbff" points="2.5864055156707764,-2.644274227321148 -6.046792030334473,9.358956344425678 -6.2376604080200195,9.358956344425678 2.4102158546447754,-2.644274227321148 2.5864055156707764,-2.644274227321148 " class="cls-30" stroke="null"/>
    <polygon id="svg_35" fill="#84daff" points="2.777275562286377,-2.644274227321148 -5.870604515075684,9.358956344425678 -6.046792030334473,9.358956344425678 2.5864055156707764,-2.644274227321148 2.777275562286377,-2.644274227321148 " class="cls-31" stroke="null"/>
    <polygon id="svg_36" fill="#83d9ff" points="2.953461170196533,-2.644274227321148 -5.679734230041504,9.358956344425678 -5.870604515075684,9.358956344425678 2.777275562286377,-2.644274227321148 2.953461170196533,-2.644274227321148 " class="cls-32" stroke="null"/>
    <polygon id="svg_37" fill="#83d8ff" points="3.1443333625793457,-2.644274227321148 -5.488863945007324,9.358956344425678 -5.679734230041504,9.358956344425678 2.953461170196533,-2.644274227321148 3.1443333625793457,-2.644274227321148 " class="cls-33" stroke="null"/>
    <polygon id="svg_38" fill="#82d7ff" points="3.3205208778381348,-2.644274227321148 -5.312678813934326,9.358956344425678 -5.488863945007324,9.358956344425678 3.1443333625793457,-2.644274227321148 3.3205208778381348,-2.644274227321148 " class="cls-34" stroke="null"/>
    <polygon id="svg_39" fill="#82d6ff" points="3.5113892555236816,-2.644274227321148 -5.1218085289001465,9.358956344425678 -5.312678813934326,9.358956344425678 3.3205208778381348,-2.644274227321148 3.5113892555236816,-2.644274227321148 " class="cls-35" stroke="null"/>
    <polygon id="svg_40" fill="#82d5ff" points="3.702261447906494,-2.644274227321148 -4.945621013641357,9.358956344425678 -5.1218085289001465,9.358956344425678 3.5113892555236816,-2.644274227321148 3.702261447906494,-2.644274227321148 " class="cls-36" stroke="null"/>
    <polygon id="svg_41" fill="#81d4ff" points="3.878448963165283,-2.644274227321148 -4.754750728607178,9.358956344425678 -4.945621013641357,9.358956344425678 3.702261447906494,-2.644274227321148 3.878448963165283,-2.644274227321148 " class="cls-37" stroke="null"/>
    <polygon id="svg_42" fill="#81d3ff" points="4.069321155548096,-2.644274227321148 -4.578561305999756,9.358956344425678 -4.754750728607178,9.358956344425678 3.878448963165283,-2.644274227321148 4.069321155548096,-2.644274227321148 " class="cls-38" stroke="null"/>
    <polygon id="svg_43" fill="#80d2ff" points="4.245506763458252,-2.644274227321148 -4.387692928314209,9.358956344425678 -4.578561305999756,9.358956344425678 4.069321155548096,-2.644274227321148 4.245506763458252,-2.644274227321148 " class="cls-39" stroke="null"/>
    <polygon id="svg_44" fill="#80d1ff" points="4.4363789558410645,-2.644274227321148 -4.21150541305542,9.358956344425678 -4.387692928314209,9.358956344425678 4.245506763458252,-2.644274227321148 4.4363789558410645,-2.644274227321148 " class="cls-40" stroke="null"/>
    <polygon id="svg_45" fill="#7fd0ff" points="4.6125664710998535,-2.644274227321148 -4.020632743835449,9.358956344425678 -4.21150541305542,9.358956344425678 4.4363789558410645,-2.644274227321148 4.6125664710998535,-2.644274227321148 " class="cls-41" stroke="null"/>
    <polygon id="svg_46" fill="#7fcfff" points="4.8034348487854,-2.644274227321148 -3.8297648429870605,9.358956344425678 -4.020632743835449,9.358956344425678 4.6125664710998535,-2.644274227321148 4.8034348487854,-2.644274227321148 " class="cls-42" stroke="null"/>
    <polygon id="svg_47" fill="#7fceff" points="4.994307041168213,-2.644274227321148 -3.6535773277282715,9.358956344425678 -3.8297648429870605,9.358956344425678 4.8034348487854,-2.644274227321148 4.994307041168213,-2.644274227321148 " class="cls-43" stroke="null"/>
    <polygon id="svg_48" fill="#7ecdff" points="5.170494556427002,-2.644274227321148 -3.462704658508301,9.358956344425678 -3.6535773277282715,9.358956344425678 4.994307041168213,-2.644274227321148 5.170494556427002,-2.644274227321148 " class="cls-44" stroke="null"/>
    <polygon id="svg_49" fill="#7eccff" points="5.361362934112549,-2.644274227321148 -3.2865171432495117,9.358956344425678 -3.462704658508301,9.358956344425678 5.170494556427002,-2.644274227321148 5.361362934112549,-2.644274227321148 " class="cls-45" stroke="null"/>
    <polygon id="svg_50" fill="#7dcbff" points="5.537553310394287,-2.644274227321148 -3.095646858215332,9.358956344425678 -3.2865171432495117,9.358956344425678 5.361362934112549,-2.644274227321148 5.537553310394287,-2.644274227321148 " class="cls-46" stroke="null"/>
    <polygon id="svg_51" fill="#7dcaff" points="5.728423595428467,-2.644274227321148 -2.904778480529785,9.358956344425678 -3.095646858215332,9.358956344425678 5.537553310394287,-2.644274227321148 5.728423595428467,-2.644274227321148 " class="cls-47" stroke="null"/>
    <polygon id="svg_52" fill="#7cc9ff" points="5.904613018035889,-2.644274227321148 -2.728590965270996,9.358956344425678 -2.904778480529785,9.358956344425678 5.728423595428467,-2.644274227321148 5.904613018035889,-2.644274227321148 " class="cls-48" stroke="null"/>
    <polygon id="svg_53" fill="#7cc8ff" points="6.0954813957214355,-2.644274227321148 -2.5377211570739746,9.358956344425678 -2.728590965270996,9.358956344425678 5.904613018035889,-2.644274227321148 6.0954813957214355,-2.644274227321148 " class="cls-49" stroke="null"/>
    <polygon id="svg_54" fill="#7bc7ff" points="6.286351680755615,-2.644274227321148 -2.3615336418151855,9.358956344425678 -2.5377211570739746,9.358956344425678 6.0954813957214355,-2.644274227321148 6.286351680755615,-2.644274227321148 " class="cls-50" stroke="null"/>
    <polygon id="svg_55" fill="#7bc6ff" points="6.4625349044799805,-2.644274227321148 -2.1706628799438477,9.358956344425678 -2.3615336418151855,9.358956344425678 6.286351680755615,-2.644274227321148 6.4625349044799805,-2.644274227321148 " class="cls-51" stroke="null"/>
    <polygon id="svg_56" fill="#7bc5ff" points="6.653407096862793,-2.644274227321148 -1.994476079940796,9.358956344425678 -2.1706628799438477,9.358956344425678 6.4625349044799805,-2.644274227321148 6.653407096862793,-2.644274227321148 " class="cls-52" stroke="null"/>
    <polygon id="svg_57" fill="#7ac4ff" points="6.829592704772949,-2.644274227321148 -1.8036072254180908,9.358956344425678 -1.994476079940796,9.358956344425678 6.653407096862793,-2.644274227321148 6.829592704772949,-2.644274227321148 " class="cls-53" stroke="null"/>
    <polygon id="svg_58" fill="#7ac3ff" points="7.020462989807129,-2.644274227321148 -1.6127369403839111,9.358956344425678 -1.8036072254180908,9.358956344425678 6.829592704772949,-2.644274227321148 7.020462989807129,-2.644274227321148 " class="cls-54" stroke="null"/>
    <polygon id="svg_59" fill="#79c2ff" points="7.196648597717285,-2.644274227321148 -1.4365476369857788,9.358956344425678 -1.6127369403839111,9.358956344425678 7.020462989807129,-2.644274227321148 7.196648597717285,-2.644274227321148 " class="cls-55" stroke="null"/>
    <polygon id="svg_60" fill="#79c1ff" points="7.3875226974487305,-2.644274227321148 -1.2456775903701782,9.358956344425678 -1.4365476369857788,9.358956344425678 7.196648597717285,-2.644274227321148 7.3875226974487305,-2.644274227321148 " class="cls-56" stroke="null"/>
    <polygon id="svg_61" fill="#78c0ff" points="7.578392028808594,-2.644274227321148 -1.06948983669281,9.358956344425678 -1.2456775903701782,9.358956344425678 7.3875226974487305,-2.644274227321148 7.578392028808594,-2.644274227321148 " class="cls-57" stroke="null"/>
    <polygon id="svg_62" fill="#78beff" points="7.754578590393066,-2.644274227321148 -0.878621518611908,9.358956344425678 -1.06948983669281,9.358956344425678 7.578392028808594,-2.644274227321148 7.754578590393066,-2.644274227321148 " class="cls-58" stroke="null"/>
    <polygon id="svg_63" fill="#78bdff" points="7.945448875427246,-2.644274227321148 -0.7024317979812622,9.358956344425678 -0.878621518611908,9.358956344425678 7.754578590393066,-2.644274227321148 7.945448875427246,-2.644274227321148 " class="cls-59" stroke="null"/>
    <polygon id="svg_64" fill="#77bcff" points="8.121639251708984,-2.644274227321148 -0.511559784412384,9.358956344425678 -0.7024317979812622,9.358956344425678 7.945448875427246,-2.644274227321148 8.121639251708984,-2.644274227321148 " class="cls-60" stroke="null"/>
    <polygon id="svg_65" fill="#7bf" points="8.312506675720215,-2.644274227321148 -0.32069411873817444,9.358956344425678 -0.511559784412384,9.358956344425678 8.121639251708984,-2.644274227321148 8.312506675720215,-2.644274227321148 " class="cls-61" stroke="null"/>
    <polygon id="svg_66" fill="#76baff" points="8.488699913024902,-2.644274227321148 -0.14450591802597046,9.358956344425678 -0.32069411873817444,9.358956344425678 8.312506675720215,-2.644274227321148 8.488699913024902,-2.644274227321148 " class="cls-62" stroke="null"/>
    <polygon id="svg_67" fill="#76b9ff" points="8.679567337036133,-2.644274227321148 0.04636448994278908,9.358956344425678 -0.14450591802597046,9.358956344425678 8.488699913024902,-2.644274227321148 8.679567337036133,-2.644274227321148 " class="cls-63" stroke="null"/>
    <polygon id="svg_68" fill="#75b8ff" points="8.870437622070312,-2.644274227321148 0.22255384922027588,9.358956344425678 0.04636448994278908,9.358956344425678 8.679567337036133,-2.644274227321148 8.870437622070312,-2.644274227321148 " class="cls-64" stroke="null"/>
    <polygon id="svg_69" fill="#75b7ff" points="9.046624183654785,-2.644274227321148 0.41342222690582275,9.358956344425678 0.22255384922027588,9.358956344425678 8.870437622070312,-2.644274227321148 9.046624183654785,-2.644274227321148 " class="cls-65" stroke="null"/>
    <polygon id="svg_70" fill="#75b6ff" points="9.237496376037598,-2.644274227321148 0.5896116495132446,9.358956344425678 0.41342222690582275,9.358956344425678 9.046624183654785,-2.644274227321148 9.237496376037598,-2.644274227321148 " class="cls-66" stroke="null"/>
    <polygon id="svg_71" fill="#74b5ff" points="9.413680076599121,-2.644274227321148 0.7804821133613586,9.358956344425678 0.5896116495132446,9.358956344425678 9.237496376037598,-2.644274227321148 9.413680076599121,-2.644274227321148 " class="cls-67" stroke="null"/>
    <polygon id="svg_72" fill="#74b4ff" points="9.604549407958984,-2.644274227321148 0.9713502526283264,9.358956344425678 0.7804821133613586,9.358956344425678 9.413680076599121,-2.644274227321148 9.604549407958984,-2.644274227321148 " class="cls-68" stroke="null"/>
    <polygon id="svg_73" fill="#73b3ff" points="9.795421600341797,-2.644274227321148 1.147536039352417,9.358956344425678 0.9713502526283264,9.358956344425678 9.604549407958984,-2.644274227321148 9.795421600341797,-2.644274227321148 " class="cls-69" stroke="null"/>
    <polygon id="svg_74" fill="#73b2ff" points="9.971606254577637,-2.644274227321148 1.3384082317352295,9.358956344425678 1.147536039352417,9.358956344425678 9.795421600341797,-2.644274227321148 9.971606254577637,-2.644274227321148 " class="cls-70" stroke="null"/>
    <polygon id="svg_75" fill="#72b1ff" points="10.162480354309082,-2.644274227321148 1.5145974159240723,9.358956344425678 1.3384082317352295,9.358956344425678 9.971606254577637,-2.644274227321148 10.162480354309082,-2.644274227321148 " class="cls-71" stroke="null"/>
    <polygon id="svg_76" fill="#72b0ff" points="10.33867073059082,-2.644274227321148 1.7054660320281982,9.358956344425678 1.5145974159240723,9.358956344425678 10.162480354309082,-2.644274227321148 10.33867073059082,-2.644274227321148 " class="cls-72" stroke="null"/>
    <polygon id="svg_77" fill="#71afff" points="10.529536247253418,-2.644274227321148 1.8816514015197754,9.358956344425678 1.7054660320281982,9.358956344425678 10.33867073059082,-2.644274227321148 10.529536247253418,-2.644274227321148 " class="cls-73" stroke="null"/>
    <polygon id="svg_78" fill="#71aeff" points="10.705721855163574,-2.644274227321148 2.072523593902588,9.358956344425678 1.8816514015197754,9.358956344425678 10.529536247253418,-2.644274227321148 10.705721855163574,-2.644274227321148 " class="cls-74" stroke="null"/>
    <polygon id="svg_79" fill="#71adff" points="10.89659595489502,-2.644274227321148 2.2633919715881348,9.358956344425678 2.072523593902588,9.358956344425678 10.705721855163574,-2.644274227321148 10.89659595489502,-2.644274227321148 " class="cls-75" stroke="null"/>
    <polygon id="svg_80" fill="#70acff" points="11.07278060913086,-2.644274227321148 2.4395813941955566,9.358956344425678 2.2633919715881348,9.358956344425678 10.89659595489502,-2.644274227321148 11.07278060913086,-2.644274227321148 " class="cls-76" stroke="null"/>
    <polygon id="svg_81" fill="#70abff" points="11.263657569885254,-2.644274227321148 2.6304516792297363,9.358956344425678 2.4395813941955566,9.358956344425678 11.07278060913086,-2.644274227321148 11.263657569885254,-2.644274227321148 " class="cls-77" stroke="null"/>
    <polygon id="svg_82" fill="#6faaff" points="11.4545259475708,-2.644274227321148 2.8066372871398926,9.358956344425678 2.6304516792297363,9.358956344425678 11.263657569885254,-2.644274227321148 11.4545259475708,-2.644274227321148 " class="cls-78" stroke="null"/>
    <polygon id="svg_83" fill="#6fa9ff" points="11.630708694458008,-2.644274227321148 2.997511386871338,9.358956344425678 2.8066372871398926,9.358956344425678 11.4545259475708,-2.644274227321148 11.630708694458008,-2.644274227321148 " class="cls-79" stroke="null"/>
    <polygon id="svg_84" fill="#6ea8ff" points="11.82158088684082,-2.644274227321148 3.188377857208252,9.358956344425678 2.997511386871338,9.358956344425678 11.630708694458008,-2.644274227321148 11.82158088684082,-2.644274227321148 " class="cls-80" stroke="null"/>
    <polygon id="svg_85" fill="#6ea7ff" points="11.997770309448242,-2.644274227321148 3.3645691871643066,9.358956344425678 3.188377857208252,9.358956344425678 11.82158088684082,-2.644274227321148 11.997770309448242,-2.644274227321148 " class="cls-81" stroke="null"/>
    <polygon id="svg_86" fill="#6ea6ff" points="12.18863582611084,-2.644274227321148 3.5554394721984863,9.358956344425678 3.3645691871643066,9.358956344425678 11.997770309448242,-2.644274227321148 12.18863582611084,-2.644274227321148 " class="cls-82" stroke="null"/>
    <polygon id="svg_87" fill="#6da5ff" points="12.379502296447754,-2.644274227321148 3.7316269874572754,9.358956344425678 3.5554394721984863,9.358956344425678 12.18863582611084,-2.644274227321148 12.379502296447754,-2.644274227321148 " class="cls-83" stroke="null"/>
    <polygon id="svg_88" fill="#6da4ff" points="12.555696487426758,-2.644274227321148 3.922497272491455,9.358956344425678 3.7316269874572754,9.358956344425678 12.379502296447754,-2.644274227321148 12.555696487426758,-2.644274227321148 " class="cls-84" stroke="null"/>
    <polygon id="svg_89" fill="#6ca3ff" points="12.746562957763672,-2.644274227321148 4.098684787750244,9.358956344425678 3.922497272491455,9.358956344425678 12.555696487426758,-2.644274227321148 12.746562957763672,-2.644274227321148 " class="cls-85" stroke="null"/>
    <polygon id="svg_90" fill="#6ca2ff" points="12.922751426696777,-2.644274227321148 4.289555072784424,9.358956344425678 4.098684787750244,9.358956344425678 12.746562957763672,-2.644274227321148 12.922751426696777,-2.644274227321148 " class="cls-86" stroke="null"/>
    <polygon id="svg_91" fill="#6ba1ff" points="13.113619804382324,-2.644274227321148 4.480423450469971,9.358956344425678 4.289555072784424,9.358956344425678 12.922751426696777,-2.644274227321148 13.113619804382324,-2.644274227321148 " class="cls-87" stroke="null"/>
    <polygon id="svg_92" fill="#6ba0ff" points="13.289810180664062,-2.644274227321148 4.65661096572876,9.358956344425678 4.480423450469971,9.358956344425678 13.113619804382324,-2.644274227321148 13.289810180664062,-2.644274227321148 " class="cls-88" stroke="null"/>
    <polygon id="svg_93" fill="#6b9fff" points="13.48067855834961,-2.644274227321148 4.8474812507629395,9.358956344425678 4.65661096572876,9.358956344425678 13.289810180664062,-2.644274227321148 13.48067855834961,-2.644274227321148 " class="cls-89" stroke="null"/>
    <polygon id="svg_94" fill="#6a9eff" points="13.656867980957031,-2.644274227321148 5.0236687660217285,9.358956344425678 4.8474812507629395,9.358956344425678 13.48067855834961,-2.644274227321148 13.656867980957031,-2.644274227321148 " class="cls-90" stroke="null"/>
    <polygon id="svg_95" fill="#6a9dff" points="13.847735404968262,-2.644274227321148 5.214537143707275,9.358956344425678 5.0236687660217285,9.358956344425678 13.656867980957031,-2.644274227321148 13.847735404968262,-2.644274227321148 " class="cls-91" stroke="null"/>
    <polygon id="svg_96" fill="#699cff" points="14.038614273071289,-2.644274227321148 5.390726566314697,9.358956344425678 5.214537143707275,9.358956344425678 13.847735404968262,-2.644274227321148 14.038614273071289,-2.644274227321148 " class="cls-92" stroke="null"/>
    <polygon id="svg_97" fill="#699bff" points="14.214794158935547,-2.644274227321148 5.5815958976745605,9.358956344425678 5.390726566314697,9.358956344425678 14.038614273071289,-2.644274227321148 14.214794158935547,-2.644274227321148 " class="cls-93" stroke="null"/>
    <polygon id="svg_98" fill="#689aff" points="14.405665397644043,-2.644274227321148 5.772471904754639,9.358956344425678 5.5815958976745605,9.358956344425678 14.214794158935547,-2.644274227321148 14.405665397644043,-2.644274227321148 " class="cls-94" stroke="null"/>
    <polygon id="svg_99" fill="#6899ff" points="14.581851959228516,-2.644274227321148 5.948653697967529,9.358956344425678 5.772471904754639,9.358956344425678 14.405665397644043,-2.644274227321148 14.581851959228516,-2.644274227321148 " class="cls-95" stroke="null"/>
    <polygon id="svg_100" fill="#6898ff" points="14.772724151611328,-2.644274227321148 6.139529705047607,9.358956344425678 5.948653697967529,9.358956344425678 14.581851959228516,-2.644274227321148 14.772724151611328,-2.644274227321148 " class="cls-96" stroke="null"/>
    <polygon id="svg_101" fill="#6797ff" points="14.963594436645508,-2.644274227321148 6.315715312957764,9.358956344425678 6.139529705047607,9.358956344425678 14.772724151611328,-2.644274227321148 14.963594436645508,-2.644274227321148 " class="cls-97" stroke="null"/>
    <polygon id="svg_102" fill="#6796ff" points="15.139788627624512,-2.644274227321148 6.506579399108887,9.358956344425678 6.315715312957764,9.358956344425678 14.963594436645508,-2.644274227321148 15.139788627624512,-2.644274227321148 " class="cls-98" stroke="null"/>
    <polygon id="svg_103" fill="#6695ff" points="15.330655097961426,-2.644274227321148 6.682767868041992,9.358956344425678 6.506579399108887,9.358956344425678 15.139788627624512,-2.644274227321148 15.330655097961426,-2.644274227321148 " class="cls-99" stroke="null"/>
    <polygon id="svg_104" fill="#6694ff" points="15.506854057312012,-2.644274227321148 6.873641014099121,9.358956344425678 6.682767868041992,9.358956344425678 15.330655097961426,-2.644274227321148 15.506854057312012,-2.644274227321148 " class="cls-100" stroke="null"/>
    <polygon id="svg_105" fill="#6593ff" points="15.69771671295166,-2.644274227321148 7.049826622009277,9.358956344425678 6.873641014099121,9.358956344425678 15.506854057312012,-2.644274227321148 15.69771671295166,-2.644274227321148 " class="cls-101" stroke="null"/>
    <polygon id="svg_106" fill="#6592ff" points="15.873910903930664,-2.644274227321148 7.240699768066406,9.358956344425678 7.049826622009277,9.358956344425678 15.69771671295166,-2.644274227321148 15.873910903930664,-2.644274227321148 " class="cls-102" stroke="null"/>
    <polygon id="svg_107" fill="#6491ff" points="16.064788818359375,-2.644274227321148 7.431574821472168,9.358956344425678 7.240699768066406,9.358956344425678 15.873910903930664,-2.644274227321148 16.064788818359375,-2.644274227321148 " class="cls-103" stroke="null"/>
    <polygon id="svg_108" fill="#6490ff" points="16.25564956665039,-2.644274227321148 7.607757568359375,9.358956344425678 7.431574821472168,9.358956344425678 16.064788818359375,-2.644274227321148 16.25564956665039,-2.644274227321148 " class="cls-104" stroke="null"/>
    <polygon id="svg_109" fill="#648fff" points="16.431842803955078,-2.644274227321148 7.798624038696289,9.358956344425678 7.607757568359375,9.358956344425678 16.25564956665039,-2.644274227321148 16.431842803955078,-2.644274227321148 " class="cls-105" stroke="null"/>
    <polygon id="svg_110" fill="#638eff" points="16.62271499633789,-2.644274227321148 7.974814414978027,9.358956344425678 7.798624038696289,9.358956344425678 16.431842803955078,-2.644274227321148 16.62271499633789,-2.644274227321148 " class="cls-106" stroke="null"/>
    <polygon id="svg_111" fill="#638dff" points="16.798906326293945,-2.644274227321148 8.165685653686523,9.358956344425678 7.974814414978027,9.358956344425678 16.62271499633789,-2.644274227321148 16.798906326293945,-2.644274227321148 " class="cls-107" stroke="null"/>
    <polygon id="svg_112" fill="#628cff" points="16.989776611328125,-2.644274227321148 8.356559753417969,9.358956344425678 8.165685653686523,9.358956344425678 16.798906326293945,-2.644274227321148 16.989776611328125,-2.644274227321148 " class="cls-108" stroke="null"/>
    <polygon id="svg_113" fill="#628bff" points="17.165958404541016,-2.644274227321148 8.532745361328125,9.358956344425678 8.356559753417969,9.358956344425678 16.989776611328125,-2.644274227321148 17.165958404541016,-2.644274227321148 " class="cls-109" stroke="null"/>
    <polygon id="svg_114" fill="#618aff" points="17.356826782226562,-2.644274227321148 8.723616600036621,9.358956344425678 8.532745361328125,9.358956344425678 17.165958404541016,-2.644274227321148 17.356826782226562,-2.644274227321148 " class="cls-110" stroke="null"/>
    <polygon id="svg_115" fill="#6189ff" points="17.547714233398438,-2.644274227321148 8.899798393249512,9.358956344425678 8.723616600036621,9.358956344425678 17.356826782226562,-2.644274227321148 17.547714233398438,-2.644274227321148 " class="cls-111" stroke="null"/>
    <polygon id="svg_116" fill="#6189ff" points="8.899798393249512,9.358956344425678 17.547714233398438,-2.644274227321148 18.23778533935547,-2.644274227321148 18.23778533935547,9.358956344425678 8.899798393249512,9.358956344425678 " class="cls-111" stroke="null"/>
   </g>
   <g id="svg_117" clip-path="url(#clip-path-2)" class="cls-112" stroke="null">
    <g id="svg_118" mask="url(#mask)" class="cls-113" stroke="null">
     <g id="svg_119" opacity="0.5" class="cls-114" stroke="null">
      <g id="svg_120" clip-path="url(#clip-path-3)" class="cls-115" stroke="null">
       <g id="svg_121" clip-path="url(#clip-path-3)" class="cls-115" stroke="null">
        <rect id="svg_122" fill="#31c3bd" height="12.00323" width="0.32982" y="-2.64428" x="-1.24677" class="cls-116" stroke="null"/>
        <rect id="svg_123" fill="#32c2be" height="12.00323" width="0.32982" y="-2.64428" x="-0.91695" class="cls-117" stroke="null"/>
        <rect id="svg_124" fill="#32c1be" height="12.00323" width="0.32982" y="-2.64428" x="-0.58713" class="cls-118" stroke="null"/>
        <rect id="svg_125" fill="#32c0be" height="12.00323" width="0.32982" y="-2.64428" x="-0.2573" class="cls-119" stroke="null"/>
        <rect id="svg_126" fill="#32bfbf" height="12.00323" width="0.32982" y="-2.64428" x="0.07252" class="cls-120" stroke="null"/>
        <rect id="svg_127" fill="#33bebf" height="12.00323" width="0.32982" y="-2.64428" x="0.40235" class="cls-121" stroke="null"/>
        <rect id="svg_128" fill="#33bdc0" height="12.00323" width="0.32982" y="-2.64428" x="0.73217" class="cls-122" stroke="null"/>
        <rect id="svg_129" fill="#33bcc0" height="12.00323" width="0.32982" y="-2.64428" x="1.06199" class="cls-123" stroke="null"/>
        <rect id="svg_130" fill="#33bbc1" height="12.00323" width="0.32982" y="-2.64428" x="1.39182" class="cls-124" stroke="null"/>
        <rect id="svg_131" fill="#34bac1" height="12.00323" width="0.32982" y="-2.64428" x="1.72164" class="cls-125" stroke="null"/>
        <rect id="svg_132" fill="#34b9c2" height="12.00323" width="0.32982" y="-2.64428" x="2.05146" class="cls-126" stroke="null"/>
        <rect id="svg_133" fill="#34b8c2" height="12.00323" width="0.32982" y="-2.64428" x="2.38129" class="cls-127" stroke="null"/>
        <rect id="svg_134" fill="#34b7c3" height="12.00323" width="0.32982" y="-2.64428" x="2.71111" class="cls-128" stroke="null"/>
        <rect id="svg_135" fill="#35b6c3" height="12.00323" width="0.32982" y="-2.64428" x="3.04094" class="cls-129" stroke="null"/>
        <rect id="svg_136" fill="#35b5c3" height="12.00323" width="0.32982" y="-2.64428" x="3.37076" class="cls-130" stroke="null"/>
        <rect id="svg_137" fill="#35b4c4" height="12.00323" width="0.32982" y="-2.64428" x="3.70058" class="cls-131" stroke="null"/>
        <rect id="svg_138" fill="#35b3c4" height="12.00323" width="0.32982" y="-2.64428" x="4.03041" class="cls-132" stroke="null"/>
        <rect id="svg_139" fill="#36b2c5" height="12.00323" width="0.32982" y="-2.64428" x="4.36023" class="cls-133" stroke="null"/>
        <rect id="svg_140" fill="#36b1c5" height="12.00323" width="0.32982" y="-2.64428" x="4.7621" class="cls-134" stroke="null"/>
        <rect id="svg_141" fill="#36b0c6" height="12.00323" width="0.32982" y="-2.64428" x="5.09192" class="cls-135" stroke="null"/>
        <rect id="svg_142" fill="#36afc6" height="12.00323" width="0.32982" y="-2.64428" x="5.42175" class="cls-136" stroke="null"/>
        <rect id="svg_143" fill="#37aec7" height="12.00323" width="0.32982" y="-2.64428" x="5.75157" class="cls-137" stroke="null"/>
        <rect id="svg_144" fill="#37adc7" height="12.00323" width="0.32982" y="-2.64428" x="6.08139" class="cls-138" stroke="null"/>
        <rect id="svg_145" fill="#37acc8" height="12.00323" width="0.32982" y="-2.64428" x="6.41122" class="cls-139" stroke="null"/>
        <rect id="svg_146" fill="#38abc8" height="12.00323" width="0.32982" y="-2.64428" x="6.74104" class="cls-140" stroke="null"/>
        <rect id="svg_147" fill="#38aac8" height="12.00323" width="0.32982" y="-2.64428" x="7.07086" class="cls-141" stroke="null"/>
        <rect id="svg_148" fill="#38a9c9" height="12.00323" width="0.32982" y="-2.64428" x="7.40069" class="cls-142" stroke="null"/>
        <rect id="svg_149" fill="#38a8c9" height="12.00323" width="0.32982" y="-2.64428" x="7.73051" class="cls-143" stroke="null"/>
        <rect id="svg_150" fill="#39a7ca" height="12.00323" width="0.32982" y="-2.64428" x="8.06034" class="cls-144" stroke="null"/>
        <rect id="svg_151" fill="#39a6ca" height="12.00323" width="0.32982" y="-2.64428" x="8.39016" class="cls-145" stroke="null"/>
        <rect id="svg_152" fill="#39a5cb" height="12.00323" width="0.32982" y="-2.64428" x="8.71998" class="cls-146" stroke="null"/>
        <rect id="svg_153" fill="#39a4cb" height="12.00323" width="0.32982" y="-2.64428" x="9.04981" class="cls-147" stroke="null"/>
        <rect id="svg_154" fill="#3aa3cc" height="12.00323" width="0.32982" y="-2.64428" x="9.37963" class="cls-148" stroke="null"/>
        <rect id="svg_155" fill="#3aa2cc" height="12.00323" width="0.32982" y="-2.64428" x="9.70945" class="cls-149" stroke="null"/>
        <rect id="svg_156" fill="#3aa1cd" height="12.00323" width="0.32982" y="-2.64428" x="10.03928" class="cls-150" stroke="null"/>
        <rect id="svg_157" fill="#3aa0cd" height="12.00323" width="0.32982" y="-2.64428" x="10.3691" class="cls-151" stroke="null"/>
        <rect id="svg_158" fill="#3b9fcd" height="12.00323" width="0.32982" y="-2.64428" x="10.69893" class="cls-152" stroke="null"/>
        <rect id="svg_159" fill="#3b9ece" height="12.00323" width="0.32982" y="-2.64428" x="11.02875" class="cls-153" stroke="null"/>
        <rect id="svg_160" fill="#3b9dce" height="12.00323" width="0.32982" y="-2.64428" x="11.35857" class="cls-154" stroke="null"/>
        <rect id="svg_161" fill="#3b9ccf" height="12.00323" width="0.32982" y="-2.64428" x="11.6884" class="cls-155" stroke="null"/>
        <rect id="svg_162" fill="#3c9acf" height="12.00323" width="0.32982" y="-2.64428" x="12.01822" class="cls-156" stroke="null"/>
        <rect id="svg_163" fill="#3c99d0" height="12.00323" width="0.32982" y="-2.64428" x="12.34804" class="cls-157" stroke="null"/>
        <rect id="svg_164" fill="#3c98d0" height="12.00323" width="0.32982" y="-2.64428" x="12.67787" class="cls-158" stroke="null"/>
        <rect id="svg_165" fill="#3c97d1" height="12.00323" width="0.32982" y="-2.64428" x="13.00769" class="cls-159" stroke="null"/>
        <rect id="svg_166" fill="#3d96d1" height="12.00323" width="0.32982" y="-2.64428" x="13.33752" class="cls-160" stroke="null"/>
        <rect id="svg_167" fill="#3d95d1" height="12.00323" width="0.32982" y="-2.64428" x="13.66734" class="cls-161" stroke="null"/>
        <rect id="svg_168" fill="#3d94d2" height="12.00323" width="0.32982" y="-2.64428" x="13.99716" class="cls-162" stroke="null"/>
        <rect id="svg_169" fill="#3d93d2" height="12.00323" width="0.32982" y="-2.64428" x="14.32699" class="cls-163" stroke="null"/>
        <rect id="svg_170" fill="#3e92d3" height="12.00323" width="0.32982" y="-2.64428" x="14.65681" class="cls-164" stroke="null"/>
        <rect id="svg_171" fill="#3e91d3" height="12.00323" width="0.32982" y="-2.64428" x="14.98663" class="cls-165" stroke="null"/>
        <rect id="svg_172" fill="#3e90d4" height="12.00323" width="0.32982" y="-2.64428" x="15.31646" class="cls-166" stroke="null"/>
        <rect id="svg_173" fill="#3e8fd4" height="12.00323" width="0.32982" y="-2.64428" x="15.64628" class="cls-167" stroke="null"/>
        <rect id="svg_174" fill="#3f8ed5" height="12.00323" width="0.32982" y="-2.64428" x="15.97611" class="cls-168" stroke="null"/>
        <rect id="svg_175" fill="#3f8dd5" height="12.00323" width="0.32982" y="-2.64428" x="16.30593" class="cls-169" stroke="null"/>
        <rect id="svg_176" fill="#3f8cd6" height="12.00323" width="0.32982" y="-2.64428" x="16.63575" class="cls-170" stroke="null"/>
        <rect id="svg_177" fill="#3f8bd6" height="12.00323" width="0.32982" y="-2.64428" x="16.96558" class="cls-171" stroke="null"/>
        <rect id="svg_178" fill="#408ad6" height="12.00323" width="0.32982" y="-2.64428" x="17.2954" class="cls-172" stroke="null"/>
        <rect id="svg_179" fill="#4089d7" height="12.00323" width="0.32982" y="-2.64428" x="17.62523" class="cls-173" stroke="null"/>
       </g>
      </g>
     </g>
    </g>
   </g>
   <path id="svg_181" d="m-4.13204,2.34444" opacity="NaN" fill="#fff" stroke="#000"/>
  </g>
  <g id="svg_223" stroke-width="1.4" stroke="null" transform="rotate(-90 6.7529 12.7548)">
   <line fill="none" x1="3.65713" y1="11.84429" x2="6.4744" y2="11.84429" id="svg_216" stroke="#000"/>
   <line fill="none" x1="3.65713" y1="11.84429" x2="6.4744" y2="11.84429" id="svg_217" stroke="#000"/>
   <line fill="none" x1="3.65713" y1="13.8214" x2="6.4744" y2="13.8214" id="svg_218" stroke="#000"/>
   <line fill="none" x1="6.15453" y1="9.34689" x2="9.79657" y2="13.09299" id="svg_219" stroke="#000"/>
   <path fill="none" opacity="undefined" d="m6.15453,12.46864l3.64204,3.7461" id="svg_220" stroke="#000" transform="rotate(90 7.97554 14.3418)"/>
  </g>
 </g>
</svg>