<svg width="16" height="16" xmlns="http://www.w3.org/2000/svg" data-name="图层 1">
 <defs>
  <clipPath id="clip-path">
   <path class="cls-3" d="m9.83406,7.78146l-1.38,0l-1.67,4.27l-1.68,-4.27l-1.38,0l-0.52,5.82l1.37,0l0.29,-3.2l1.35,3.09l1.14,0l1.34,-3.09l0.29,3.2l1.37,0l-0.52,-5.82zm-9.73,-0.92l0,0l0,0.9l0,0l0,7.25l2.28,0l0,-0.91l-1.37,0l0,-6.33l1.37,0l0,-0.9l-2.28,0l0,-0.01zm11.08,0l0,0l0,0.9l1.36,0l0,6.34l-1.36,0l0,0.91l2.28,0l0,-7.24l0,0l0,-0.9l-2.28,0l0,-0.01zm3.09,0.08a0.81,0.81 0 0 0 0.61,0.71c0.24,0.1 0.46,0.15 0.46,0.28s-0.07,0.14 -0.24,0.14a1,1 0 0 1 -0.59,-0.24l-0.41,0.52a1.6,1.6 0 0 0 0.93,0.34c0.67,0 1,-0.35 1,-0.8a0.77,0.77 0 0 0 -0.62,-0.72c-0.24,-0.09 -0.45,-0.13 -0.45,-0.26s0.07,-0.13 0.21,-0.13a0.89,0.89 0 0 1 0.49,0.2l0.44,-0.5a1.42,1.42 0 0 0 -0.88,-0.32c-0.57,0 -1,0.31 -1,0.78" fill="none" id="svg_1"/>
  </clipPath>
  <clipPath id="clip-path-2">
   <rect x="0.10406" class="cls-3" y="6.17146" width="16" height="8.87" fill="none" id="svg_2"/>
  </clipPath>
  <filter id="luminosity-invert" filterUnits="userSpaceOnUse" color-interpolation-filters="sRGB"/>
  <mask id="mask" x="-0.53" y="2.78" width="16.88" height="10.19" maskUnits="userSpaceOnUse">
   <g class="cls-1" isolation="isolate" filter="url(#luminosity-invert)" id="svg_3">
    <polygon class="cls-2" points="4.76 7.8 6.1 10.89 6.67 9.45 4.99 5.18 4.76 7.8" fill="#020202" id="svg_4"/>
    <polygon class="cls-2" points="9.72 5.18 8.59 7.81 8.88 10.99 10.25 10.99 9.72 5.18" fill="#020202" id="svg_5"/>
   </g>
  </mask>
  <clipPath id="clip-path-3">
   <rect class="cls-3" x="93.37834" y="60.8269" width="16.88" height="10.19" fill="none" id="svg_6"/>
  </clipPath>
 </defs>
 <title>画板 5</title>
 <g>
  <title>Layer 1</title>
  <g stroke="null" id="svg_180">
   <g stroke="null" class="cls-4" clip-path="url(#clip-path)" id="svg_7">
    <polygon stroke="null" class="cls-5" points="-2.2147116661071777,3.0789301320910454 -6.560671806335449,9.109993927180767 -6.560671806335449,3.0789301320910454 -2.2147116661071777,3.0789301320910454 " fill="#8ff4ff" id="svg_8"/>
    <polygon stroke="null" class="cls-5" points="-2.0238394737243652,3.0789301320910454 -6.560671806335449,9.369139663875103 -6.560671806335449,9.109993927180767 -2.2147116661071777,3.0789301320910454 -2.0238394737243652,3.0789301320910454 " fill="#8ff4ff" id="svg_9"/>
    <polygon stroke="null" class="cls-6" points="-1.8476526737213135,3.0789301320910454 -6.560671806335449,9.616509430110455 -6.560671806335449,9.369139663875103 -2.0238394737243652,3.0789301320910454 -1.8476526737213135,3.0789301320910454 " fill="#8ff3ff" id="svg_10"/>
    <polygon stroke="null" class="cls-7" points="-1.6567833423614502,3.0789301320910454 -6.560671806335449,9.87565516680479 -6.560671806335449,9.616509430110455 -1.8476526737213135,3.0789301320910454 -1.6567833423614502,3.0789301320910454 " fill="#8ef2ff" id="svg_11"/>
    <polygon stroke="null" class="cls-8" points="-1.4659132957458496,3.0789301320910454 -6.560671806335449,10.134804718196392 -6.560671806335449,9.87565516680479 -1.6567833423614502,3.0789301320910454 -1.4659132957458496,3.0789301320910454 " fill="#8ef1ff" id="svg_12"/>
    <polygon stroke="null" class="cls-9" points="-1.2897260189056396,3.0789301320910454 -6.560671806335449,10.393950454890728 -6.560671806335449,10.134804718196392 -1.4659132957458496,3.0789301320910454 -1.2897260189056396,3.0789301320910454 " fill="#8df0ff" id="svg_13"/>
    <polygon stroke="null" class="cls-10" points="-1.0988566875457764,3.0789301320910454 -6.560671806335449,10.641318313777447 -6.560671806335449,10.393950454890728 -1.2897260189056396,3.0789301320910454 -1.0988566875457764,3.0789301320910454 " fill="#8defff" id="svg_14"/>
    <polygon stroke="null" class="cls-11" points="-0.9226671457290649,3.0789301320910454 -6.560671806335449,10.900465957820415 -6.560671806335449,10.641318313777447 -1.0988566875457764,3.0789301320910454 -0.9226671457290649,3.0789301320910454 " fill="#8ceeff" id="svg_15"/>
    <polygon stroke="null" class="cls-12" points="-0.7317959070205688,3.0789301320910454 -6.560671806335449,11.159613601863384 -6.560671806335449,10.900465957820415 -0.9226671457290649,3.0789301320910454 -0.7317959070205688,3.0789301320910454 " fill="#8cedff" id="svg_16"/>
    <polygon stroke="null" class="cls-13" points="-0.5556080937385559,3.0789301320910454 -6.560671806335449,11.41875933855772 -6.560671806335449,11.159613601863384 -0.7317959070205688,3.0789301320910454 -0.5556080937385559,3.0789301320910454 " fill="#8cecff" id="svg_17"/>
    <polygon stroke="null" class="cls-14" points="-0.3647400140762329,3.0789301320910454 -6.560671806335449,11.677905075252056 -6.560671806335449,11.41875933855772 -0.5556080937385559,3.0789301320910454 -0.3647400140762329,3.0789301320910454 " fill="#8bebff" id="svg_18"/>
    <polygon stroke="null" class="cls-15" points="-0.188554048538208,3.0789301320910454 -6.560671806335449,11.92527674883604 -6.560671806335449,11.677905075252056 -0.3647400140762329,3.0789301320910454 -0.188554048538208,3.0789301320910454 " fill="#8beaff" id="svg_19"/>
    <polygon stroke="null" class="cls-16" points="0.0023181214928627014,3.0789301320910454 -6.560671806335449,12.184420578181744 -6.560671806335449,11.92527674883604 -0.188554048538208,3.0789301320910454 0.0023181214928627014,3.0789301320910454 " fill="#8ae9ff" id="svg_20"/>
    <polygon stroke="null" class="cls-17" points="0.19318822026252747,3.0789301320910454 -6.560671806335449,12.443568222224712 -6.560671806335449,12.184420578181744 0.0023181214928627014,3.0789301320910454 0.19318822026252747,3.0789301320910454 " fill="#8ae8ff" id="svg_21"/>
    <polygon stroke="null" class="cls-18" points="0.36937591433525085,3.0789301320910454 -6.560671806335449,12.702715866267681 -6.560671806335449,12.443568222224712 0.19318822026252747,3.0789301320910454 0.36937591433525085,3.0789301320910454 " fill="#89e7ff" id="svg_22"/>
    <polygon stroke="null" class="cls-19" points="0.5602441430091858,3.0789301320910454 -6.560671806335449,12.9500837251544 -6.560671806335449,12.702715866267681 0.36937591433525085,3.0789301320910454 0.5602441430091858,3.0789301320910454 " fill="#89e6ff" id="svg_23"/>
    <polygon stroke="null" class="cls-20" points="0.7364355325698853,3.0789301320910454 -6.560671806335449,13.209229461848736 -6.560671806335449,12.9500837251544 0.5602441430091858,3.0789301320910454 0.7364355325698853,3.0789301320910454 " fill="#88e5ff" id="svg_24"/>
    <polygon stroke="null" class="cls-21" points="0.9273040890693665,3.0789301320910454 -6.560671806335449,13.468379966914654 -6.560671806335449,13.209229461848736 0.7364355325698853,3.0789301320910454 0.9273040890693665,3.0789301320910454 " fill="#88e4ff" id="svg_25"/>
    <polygon stroke="null" class="cls-22" points="1.1181740760803223,3.0789301320910454 -6.560671806335449,13.72752570360899 -6.560671806335449,13.468379966914654 0.9273040890693665,3.0789301320910454 1.1181740760803223,3.0789301320910454 " fill="#88e3ff" id="svg_26"/>
    <polygon stroke="null" class="cls-23" points="1.2943634986877441,3.0789301320910454 -6.560671806335449,13.986677162349224 -6.560671806335449,13.72752570360899 1.1181740760803223,3.0789301320910454 1.2943634986877441,3.0789301320910454 " fill="#87e2ff" id="svg_27"/>
    <polygon stroke="null" class="cls-24" points="1.4852337837219238,3.0789301320910454 -6.560671806335449,14.23404311388731 -6.560671806335449,13.986677162349224 1.2943634986877441,3.0789301320910454 1.4852337837219238,3.0789301320910454 " fill="#87e1ff" id="svg_28"/>
    <polygon stroke="null" class="cls-25" points="1.6614196300506592,3.0789301320910454 -6.560671806335449,14.493188850581646 -6.560671806335449,14.23404311388731 1.4852337837219238,3.0789301320910454 1.6614196300506592,3.0789301320910454 " fill="#86e0ff" id="svg_29"/>
    <polygon stroke="null" class="cls-26" points="1.8522896766662598,3.0789301320910454 -6.560671806335449,14.752342216670513 -6.560671806335449,14.493188850581646 1.6614196300506592,3.0789301320910454 1.8522896766662598,3.0789301320910454 " fill="#86dfff" id="svg_30"/>
    <polygon stroke="null" class="cls-27" points="2.028477191925049,3.0789301320910454 -6.560671806335449,15.011484138667583 -6.560671806335449,14.752342216670513 1.8522896766662598,3.0789301320910454 2.028477191925049,3.0789301320910454 " fill="#85deff" id="svg_31"/>
    <polygon stroke="null" class="cls-28" points="2.2193474769592285,3.0789301320910454 -6.413847923278809,15.08216094225645 -6.560671806335449,15.08216094225645 -6.560671806335449,15.011484138667583 2.028477191925049,3.0789301320910454 2.2193474769592285,3.0789301320910454 " fill="#85ddff" id="svg_32"/>
    <polygon stroke="null" class="cls-29" points="2.4102158546447754,3.0789301320910454 -6.2376604080200195,15.08216094225645 -6.413847923278809,15.08216094225645 2.2193474769592285,3.0789301320910454 2.4102158546447754,3.0789301320910454 " fill="#85dcff" id="svg_33"/>
    <polygon stroke="null" class="cls-30" points="2.5864055156707764,3.0789301320910454 -6.046792030334473,15.08216094225645 -6.2376604080200195,15.08216094225645 2.4102158546447754,3.0789301320910454 2.5864055156707764,3.0789301320910454 " fill="#84dbff" id="svg_34"/>
    <polygon stroke="null" class="cls-31" points="2.777275562286377,3.0789301320910454 -5.870604515075684,15.08216094225645 -6.046792030334473,15.08216094225645 2.5864055156707764,3.0789301320910454 2.777275562286377,3.0789301320910454 " fill="#84daff" id="svg_35"/>
    <polygon stroke="null" class="cls-32" points="2.953461170196533,3.0789301320910454 -5.679734230041504,15.08216094225645 -5.870604515075684,15.08216094225645 2.777275562286377,3.0789301320910454 2.953461170196533,3.0789301320910454 " fill="#83d9ff" id="svg_36"/>
    <polygon stroke="null" class="cls-33" points="3.1443333625793457,3.0789301320910454 -5.488863945007324,15.08216094225645 -5.679734230041504,15.08216094225645 2.953461170196533,3.0789301320910454 3.1443333625793457,3.0789301320910454 " fill="#83d8ff" id="svg_37"/>
    <polygon stroke="null" class="cls-34" points="3.3205208778381348,3.0789301320910454 -5.312678813934326,15.08216094225645 -5.488863945007324,15.08216094225645 3.1443333625793457,3.0789301320910454 3.3205208778381348,3.0789301320910454 " fill="#82d7ff" id="svg_38"/>
    <polygon stroke="null" class="cls-35" points="3.5113892555236816,3.0789301320910454 -5.1218085289001465,15.08216094225645 -5.312678813934326,15.08216094225645 3.3205208778381348,3.0789301320910454 3.5113892555236816,3.0789301320910454 " fill="#82d6ff" id="svg_39"/>
    <polygon stroke="null" class="cls-36" points="3.702261447906494,3.0789301320910454 -4.945621013641357,15.08216094225645 -5.1218085289001465,15.08216094225645 3.5113892555236816,3.0789301320910454 3.702261447906494,3.0789301320910454 " fill="#82d5ff" id="svg_40"/>
    <polygon stroke="null" class="cls-37" points="3.878448963165283,3.0789301320910454 -4.754750728607178,15.08216094225645 -4.945621013641357,15.08216094225645 3.702261447906494,3.0789301320910454 3.878448963165283,3.0789301320910454 " fill="#81d4ff" id="svg_41"/>
    <polygon stroke="null" class="cls-38" points="4.069321155548096,3.0789301320910454 -4.578561305999756,15.08216094225645 -4.754750728607178,15.08216094225645 3.878448963165283,3.0789301320910454 4.069321155548096,3.0789301320910454 " fill="#81d3ff" id="svg_42"/>
    <polygon stroke="null" class="cls-39" points="4.245506763458252,3.0789301320910454 -4.387692928314209,15.08216094225645 -4.578561305999756,15.08216094225645 4.069321155548096,3.0789301320910454 4.245506763458252,3.0789301320910454 " fill="#80d2ff" id="svg_43"/>
    <polygon stroke="null" class="cls-40" points="4.4363789558410645,3.0789301320910454 -4.21150541305542,15.08216094225645 -4.387692928314209,15.08216094225645 4.245506763458252,3.0789301320910454 4.4363789558410645,3.0789301320910454 " fill="#80d1ff" id="svg_44"/>
    <polygon stroke="null" class="cls-41" points="4.6125664710998535,3.0789301320910454 -4.020632743835449,15.08216094225645 -4.21150541305542,15.08216094225645 4.4363789558410645,3.0789301320910454 4.6125664710998535,3.0789301320910454 " fill="#7fd0ff" id="svg_45"/>
    <polygon stroke="null" class="cls-42" points="4.8034348487854,3.0789301320910454 -3.8297648429870605,15.08216094225645 -4.020632743835449,15.08216094225645 4.6125664710998535,3.0789301320910454 4.8034348487854,3.0789301320910454 " fill="#7fcfff" id="svg_46"/>
    <polygon stroke="null" class="cls-43" points="4.994307041168213,3.0789301320910454 -3.6535773277282715,15.08216094225645 -3.8297648429870605,15.08216094225645 4.8034348487854,3.0789301320910454 4.994307041168213,3.0789301320910454 " fill="#7fceff" id="svg_47"/>
    <polygon stroke="null" class="cls-44" points="5.170494556427002,3.0789301320910454 -3.462704658508301,15.08216094225645 -3.6535773277282715,15.08216094225645 4.994307041168213,3.0789301320910454 5.170494556427002,3.0789301320910454 " fill="#7ecdff" id="svg_48"/>
    <polygon stroke="null" class="cls-45" points="5.361362934112549,3.0789301320910454 -3.2865171432495117,15.08216094225645 -3.462704658508301,15.08216094225645 5.170494556427002,3.0789301320910454 5.361362934112549,3.0789301320910454 " fill="#7eccff" id="svg_49"/>
    <polygon stroke="null" class="cls-46" points="5.537553310394287,3.0789301320910454 -3.095646858215332,15.08216094225645 -3.2865171432495117,15.08216094225645 5.361362934112549,3.0789301320910454 5.537553310394287,3.0789301320910454 " fill="#7dcbff" id="svg_50"/>
    <polygon stroke="null" class="cls-47" points="5.728423595428467,3.0789301320910454 -2.904778480529785,15.08216094225645 -3.095646858215332,15.08216094225645 5.537553310394287,3.0789301320910454 5.728423595428467,3.0789301320910454 " fill="#7dcaff" id="svg_51"/>
    <polygon stroke="null" class="cls-48" points="5.904613018035889,3.0789301320910454 -2.728590965270996,15.08216094225645 -2.904778480529785,15.08216094225645 5.728423595428467,3.0789301320910454 5.904613018035889,3.0789301320910454 " fill="#7cc9ff" id="svg_52"/>
    <polygon stroke="null" class="cls-49" points="6.0954813957214355,3.0789301320910454 -2.5377211570739746,15.08216094225645 -2.728590965270996,15.08216094225645 5.904613018035889,3.0789301320910454 6.0954813957214355,3.0789301320910454 " fill="#7cc8ff" id="svg_53"/>
    <polygon stroke="null" class="cls-50" points="6.286351680755615,3.0789301320910454 -2.3615336418151855,15.08216094225645 -2.5377211570739746,15.08216094225645 6.0954813957214355,3.0789301320910454 6.286351680755615,3.0789301320910454 " fill="#7bc7ff" id="svg_54"/>
    <polygon stroke="null" class="cls-51" points="6.4625349044799805,3.0789301320910454 -2.1706628799438477,15.08216094225645 -2.3615336418151855,15.08216094225645 6.286351680755615,3.0789301320910454 6.4625349044799805,3.0789301320910454 " fill="#7bc6ff" id="svg_55"/>
    <polygon stroke="null" class="cls-52" points="6.653407096862793,3.0789301320910454 -1.994476079940796,15.08216094225645 -2.1706628799438477,15.08216094225645 6.4625349044799805,3.0789301320910454 6.653407096862793,3.0789301320910454 " fill="#7bc5ff" id="svg_56"/>
    <polygon stroke="null" class="cls-53" points="6.829592704772949,3.0789301320910454 -1.8036072254180908,15.08216094225645 -1.994476079940796,15.08216094225645 6.653407096862793,3.0789301320910454 6.829592704772949,3.0789301320910454 " fill="#7ac4ff" id="svg_57"/>
    <polygon stroke="null" class="cls-54" points="7.020462989807129,3.0789301320910454 -1.6127369403839111,15.08216094225645 -1.8036072254180908,15.08216094225645 6.829592704772949,3.0789301320910454 7.020462989807129,3.0789301320910454 " fill="#7ac3ff" id="svg_58"/>
    <polygon stroke="null" class="cls-55" points="7.196648597717285,3.0789301320910454 -1.4365476369857788,15.08216094225645 -1.6127369403839111,15.08216094225645 7.020462989807129,3.0789301320910454 7.196648597717285,3.0789301320910454 " fill="#79c2ff" id="svg_59"/>
    <polygon stroke="null" class="cls-56" points="7.3875226974487305,3.0789301320910454 -1.2456775903701782,15.08216094225645 -1.4365476369857788,15.08216094225645 7.196648597717285,3.0789301320910454 7.3875226974487305,3.0789301320910454 " fill="#79c1ff" id="svg_60"/>
    <polygon stroke="null" class="cls-57" points="7.578392028808594,3.0789301320910454 -1.06948983669281,15.08216094225645 -1.2456775903701782,15.08216094225645 7.3875226974487305,3.0789301320910454 7.578392028808594,3.0789301320910454 " fill="#78c0ff" id="svg_61"/>
    <polygon stroke="null" class="cls-58" points="7.754578590393066,3.0789301320910454 -0.878621518611908,15.08216094225645 -1.06948983669281,15.08216094225645 7.578392028808594,3.0789301320910454 7.754578590393066,3.0789301320910454 " fill="#78beff" id="svg_62"/>
    <polygon stroke="null" class="cls-59" points="7.945448875427246,3.0789301320910454 -0.7024317979812622,15.08216094225645 -0.878621518611908,15.08216094225645 7.754578590393066,3.0789301320910454 7.945448875427246,3.0789301320910454 " fill="#78bdff" id="svg_63"/>
    <polygon stroke="null" class="cls-60" points="8.121639251708984,3.0789301320910454 -0.511559784412384,15.08216094225645 -0.7024317979812622,15.08216094225645 7.945448875427246,3.0789301320910454 8.121639251708984,3.0789301320910454 " fill="#77bcff" id="svg_64"/>
    <polygon stroke="null" class="cls-61" points="8.312506675720215,3.0789301320910454 -0.3206937909126282,15.08216094225645 -0.511559784412384,15.08216094225645 8.121639251708984,3.0789301320910454 8.312506675720215,3.0789301320910454 " fill="#7bf" id="svg_65"/>
    <polygon stroke="null" class="cls-62" points="8.488699913024902,3.0789301320910454 -0.14450591802597046,15.08216094225645 -0.3206937909126282,15.08216094225645 8.312506675720215,3.0789301320910454 8.488699913024902,3.0789301320910454 " fill="#76baff" id="svg_66"/>
    <polygon stroke="null" class="cls-63" points="8.679567337036133,3.0789301320910454 0.0463644377887249,15.08216094225645 -0.14450591802597046,15.08216094225645 8.488699913024902,3.0789301320910454 8.679567337036133,3.0789301320910454 " fill="#76b9ff" id="svg_67"/>
    <polygon stroke="null" class="cls-64" points="8.870437622070312,3.0789301320910454 0.22255384922027588,15.08216094225645 0.0463644377887249,15.08216094225645 8.679567337036133,3.0789301320910454 8.870437622070312,3.0789301320910454 " fill="#75b8ff" id="svg_68"/>
    <polygon stroke="null" class="cls-65" points="9.046624183654785,3.0789301320910454 0.41342222690582275,15.08216094225645 0.22255384922027588,15.08216094225645 8.870437622070312,3.0789301320910454 9.046624183654785,3.0789301320910454 " fill="#75b7ff" id="svg_69"/>
    <polygon stroke="null" class="cls-66" points="9.237496376037598,3.0789301320910454 0.5896116495132446,15.08216094225645 0.41342222690582275,15.08216094225645 9.046624183654785,3.0789301320910454 9.237496376037598,3.0789301320910454 " fill="#75b6ff" id="svg_70"/>
    <polygon stroke="null" class="cls-67" points="9.413680076599121,3.0789301320910454 0.7804821133613586,15.08216094225645 0.5896116495132446,15.08216094225645 9.237496376037598,3.0789301320910454 9.413680076599121,3.0789301320910454 " fill="#74b5ff" id="svg_71"/>
    <polygon stroke="null" class="cls-68" points="9.604549407958984,3.0789301320910454 0.9713502526283264,15.08216094225645 0.7804821133613586,15.08216094225645 9.413680076599121,3.0789301320910454 9.604549407958984,3.0789301320910454 " fill="#74b4ff" id="svg_72"/>
    <polygon stroke="null" class="cls-69" points="9.795421600341797,3.0789301320910454 1.147536039352417,15.08216094225645 0.9713502526283264,15.08216094225645 9.604549407958984,3.0789301320910454 9.795421600341797,3.0789301320910454 " fill="#73b3ff" id="svg_73"/>
    <polygon stroke="null" class="cls-70" points="9.971606254577637,3.0789301320910454 1.3384082317352295,15.08216094225645 1.147536039352417,15.08216094225645 9.795421600341797,3.0789301320910454 9.971606254577637,3.0789301320910454 " fill="#73b2ff" id="svg_74"/>
    <polygon stroke="null" class="cls-71" points="10.162480354309082,3.0789301320910454 1.5145974159240723,15.08216094225645 1.3384082317352295,15.08216094225645 9.971606254577637,3.0789301320910454 10.162480354309082,3.0789301320910454 " fill="#72b1ff" id="svg_75"/>
    <polygon stroke="null" class="cls-72" points="10.33867073059082,3.0789301320910454 1.7054660320281982,15.08216094225645 1.5145974159240723,15.08216094225645 10.162480354309082,3.0789301320910454 10.33867073059082,3.0789301320910454 " fill="#72b0ff" id="svg_76"/>
    <polygon stroke="null" class="cls-73" points="10.529536247253418,3.0789301320910454 1.8816514015197754,15.08216094225645 1.7054660320281982,15.08216094225645 10.33867073059082,3.0789301320910454 10.529536247253418,3.0789301320910454 " fill="#71afff" id="svg_77"/>
    <polygon stroke="null" class="cls-74" points="10.705721855163574,3.0789301320910454 2.072523593902588,15.08216094225645 1.8816514015197754,15.08216094225645 10.529536247253418,3.0789301320910454 10.705721855163574,3.0789301320910454 " fill="#71aeff" id="svg_78"/>
    <polygon stroke="null" class="cls-75" points="10.89659595489502,3.0789301320910454 2.2633919715881348,15.08216094225645 2.072523593902588,15.08216094225645 10.705721855163574,3.0789301320910454 10.89659595489502,3.0789301320910454 " fill="#71adff" id="svg_79"/>
    <polygon stroke="null" class="cls-76" points="11.07278060913086,3.0789301320910454 2.4395813941955566,15.08216094225645 2.2633919715881348,15.08216094225645 10.89659595489502,3.0789301320910454 11.07278060913086,3.0789301320910454 " fill="#70acff" id="svg_80"/>
    <polygon stroke="null" class="cls-77" points="11.263657569885254,3.0789301320910454 2.6304516792297363,15.08216094225645 2.4395813941955566,15.08216094225645 11.07278060913086,3.0789301320910454 11.263657569885254,3.0789301320910454 " fill="#70abff" id="svg_81"/>
    <polygon stroke="null" class="cls-78" points="11.4545259475708,3.0789301320910454 2.8066372871398926,15.08216094225645 2.6304516792297363,15.08216094225645 11.263657569885254,3.0789301320910454 11.4545259475708,3.0789301320910454 " fill="#6faaff" id="svg_82"/>
    <polygon stroke="null" class="cls-79" points="11.630708694458008,3.0789301320910454 2.997511386871338,15.08216094225645 2.8066372871398926,15.08216094225645 11.4545259475708,3.0789301320910454 11.630708694458008,3.0789301320910454 " fill="#6fa9ff" id="svg_83"/>
    <polygon stroke="null" class="cls-80" points="11.82158088684082,3.0789301320910454 3.188377857208252,15.08216094225645 2.997511386871338,15.08216094225645 11.630708694458008,3.0789301320910454 11.82158088684082,3.0789301320910454 " fill="#6ea8ff" id="svg_84"/>
    <polygon stroke="null" class="cls-81" points="11.997770309448242,3.0789301320910454 3.3645691871643066,15.08216094225645 3.188377857208252,15.08216094225645 11.82158088684082,3.0789301320910454 11.997770309448242,3.0789301320910454 " fill="#6ea7ff" id="svg_85"/>
    <polygon stroke="null" class="cls-82" points="12.18863582611084,3.0789301320910454 3.5554394721984863,15.08216094225645 3.3645691871643066,15.08216094225645 11.997770309448242,3.0789301320910454 12.18863582611084,3.0789301320910454 " fill="#6ea6ff" id="svg_86"/>
    <polygon stroke="null" class="cls-83" points="12.379502296447754,3.0789301320910454 3.7316269874572754,15.08216094225645 3.5554394721984863,15.08216094225645 12.18863582611084,3.0789301320910454 12.379502296447754,3.0789301320910454 " fill="#6da5ff" id="svg_87"/>
    <polygon stroke="null" class="cls-84" points="12.555696487426758,3.0789301320910454 3.922497272491455,15.08216094225645 3.7316269874572754,15.08216094225645 12.379502296447754,3.0789301320910454 12.555696487426758,3.0789301320910454 " fill="#6da4ff" id="svg_88"/>
    <polygon stroke="null" class="cls-85" points="12.746562957763672,3.0789301320910454 4.098684787750244,15.08216094225645 3.922497272491455,15.08216094225645 12.555696487426758,3.0789301320910454 12.746562957763672,3.0789301320910454 " fill="#6ca3ff" id="svg_89"/>
    <polygon stroke="null" class="cls-86" points="12.922751426696777,3.0789301320910454 4.289555072784424,15.08216094225645 4.098684787750244,15.08216094225645 12.746562957763672,3.0789301320910454 12.922751426696777,3.0789301320910454 " fill="#6ca2ff" id="svg_90"/>
    <polygon stroke="null" class="cls-87" points="13.113619804382324,3.0789301320910454 4.480423450469971,15.08216094225645 4.289555072784424,15.08216094225645 12.922751426696777,3.0789301320910454 13.113619804382324,3.0789301320910454 " fill="#6ba1ff" id="svg_91"/>
    <polygon stroke="null" class="cls-88" points="13.289810180664062,3.0789301320910454 4.65661096572876,15.08216094225645 4.480423450469971,15.08216094225645 13.113619804382324,3.0789301320910454 13.289810180664062,3.0789301320910454 " fill="#6ba0ff" id="svg_92"/>
    <polygon stroke="null" class="cls-89" points="13.48067855834961,3.0789301320910454 4.8474812507629395,15.08216094225645 4.65661096572876,15.08216094225645 13.289810180664062,3.0789301320910454 13.48067855834961,3.0789301320910454 " fill="#6b9fff" id="svg_93"/>
    <polygon stroke="null" class="cls-90" points="13.656867980957031,3.0789301320910454 5.0236687660217285,15.08216094225645 4.8474812507629395,15.08216094225645 13.48067855834961,3.0789301320910454 13.656867980957031,3.0789301320910454 " fill="#6a9eff" id="svg_94"/>
    <polygon stroke="null" class="cls-91" points="13.847735404968262,3.0789301320910454 5.214537143707275,15.08216094225645 5.0236687660217285,15.08216094225645 13.656867980957031,3.0789301320910454 13.847735404968262,3.0789301320910454 " fill="#6a9dff" id="svg_95"/>
    <polygon stroke="null" class="cls-92" points="14.038614273071289,3.0789301320910454 5.390726566314697,15.08216094225645 5.214537143707275,15.08216094225645 13.847735404968262,3.0789301320910454 14.038614273071289,3.0789301320910454 " fill="#699cff" id="svg_96"/>
    <polygon stroke="null" class="cls-93" points="14.214794158935547,3.0789301320910454 5.5815958976745605,15.08216094225645 5.390726566314697,15.08216094225645 14.038614273071289,3.0789301320910454 14.214794158935547,3.0789301320910454 " fill="#699bff" id="svg_97"/>
    <polygon stroke="null" class="cls-94" points="14.405665397644043,3.0789301320910454 5.772471904754639,15.08216094225645 5.5815958976745605,15.08216094225645 14.214794158935547,3.0789301320910454 14.405665397644043,3.0789301320910454 " fill="#689aff" id="svg_98"/>
    <polygon stroke="null" class="cls-95" points="14.581851959228516,3.0789301320910454 5.948653697967529,15.08216094225645 5.772471904754639,15.08216094225645 14.405665397644043,3.0789301320910454 14.581851959228516,3.0789301320910454 " fill="#6899ff" id="svg_99"/>
    <polygon stroke="null" class="cls-96" points="14.772724151611328,3.0789301320910454 6.139529705047607,15.08216094225645 5.948653697967529,15.08216094225645 14.581851959228516,3.0789301320910454 14.772724151611328,3.0789301320910454 " fill="#6898ff" id="svg_100"/>
    <polygon stroke="null" class="cls-97" points="14.963594436645508,3.0789301320910454 6.315715312957764,15.08216094225645 6.139529705047607,15.08216094225645 14.772724151611328,3.0789301320910454 14.963594436645508,3.0789301320910454 " fill="#6797ff" id="svg_101"/>
    <polygon stroke="null" class="cls-98" points="15.139788627624512,3.0789301320910454 6.506579399108887,15.08216094225645 6.315715312957764,15.08216094225645 14.963594436645508,3.0789301320910454 15.139788627624512,3.0789301320910454 " fill="#6796ff" id="svg_102"/>
    <polygon stroke="null" class="cls-99" points="15.330655097961426,3.0789301320910454 6.682767868041992,15.08216094225645 6.506579399108887,15.08216094225645 15.139788627624512,3.0789301320910454 15.330655097961426,3.0789301320910454 " fill="#6695ff" id="svg_103"/>
    <polygon stroke="null" class="cls-100" points="15.506854057312012,3.0789301320910454 6.873641014099121,15.08216094225645 6.682767868041992,15.08216094225645 15.330655097961426,3.0789301320910454 15.506854057312012,3.0789301320910454 " fill="#6694ff" id="svg_104"/>
    <polygon stroke="null" class="cls-101" points="15.69771671295166,3.0789301320910454 7.049826622009277,15.08216094225645 6.873641014099121,15.08216094225645 15.506854057312012,3.0789301320910454 15.69771671295166,3.0789301320910454 " fill="#6593ff" id="svg_105"/>
    <polygon stroke="null" class="cls-102" points="15.873910903930664,3.0789301320910454 7.240699768066406,15.08216094225645 7.049826622009277,15.08216094225645 15.69771671295166,3.0789301320910454 15.873910903930664,3.0789301320910454 " fill="#6592ff" id="svg_106"/>
    <polygon stroke="null" class="cls-103" points="16.064788818359375,3.0789301320910454 7.431574821472168,15.08216094225645 7.240699768066406,15.08216094225645 15.873910903930664,3.0789301320910454 16.064788818359375,3.0789301320910454 " fill="#6491ff" id="svg_107"/>
    <polygon stroke="null" class="cls-104" points="16.25564956665039,3.0789301320910454 7.607757568359375,15.08216094225645 7.431574821472168,15.08216094225645 16.064788818359375,3.0789301320910454 16.25564956665039,3.0789301320910454 " fill="#6490ff" id="svg_108"/>
    <polygon stroke="null" class="cls-105" points="16.431842803955078,3.0789301320910454 7.798624038696289,15.08216094225645 7.607757568359375,15.08216094225645 16.25564956665039,3.0789301320910454 16.431842803955078,3.0789301320910454 " fill="#648fff" id="svg_109"/>
    <polygon stroke="null" class="cls-106" points="16.62271499633789,3.0789301320910454 7.974814414978027,15.08216094225645 7.798624038696289,15.08216094225645 16.431842803955078,3.0789301320910454 16.62271499633789,3.0789301320910454 " fill="#638eff" id="svg_110"/>
    <polygon stroke="null" class="cls-107" points="16.798906326293945,3.0789301320910454 8.165685653686523,15.08216094225645 7.974814414978027,15.08216094225645 16.62271499633789,3.0789301320910454 16.798906326293945,3.0789301320910454 " fill="#638dff" id="svg_111"/>
    <polygon stroke="null" class="cls-108" points="16.989776611328125,3.0789301320910454 8.356559753417969,15.08216094225645 8.165685653686523,15.08216094225645 16.798906326293945,3.0789301320910454 16.989776611328125,3.0789301320910454 " fill="#628cff" id="svg_112"/>
    <polygon stroke="null" class="cls-109" points="17.165958404541016,3.0789301320910454 8.532745361328125,15.08216094225645 8.356559753417969,15.08216094225645 16.989776611328125,3.0789301320910454 17.165958404541016,3.0789301320910454 " fill="#628bff" id="svg_113"/>
    <polygon stroke="null" class="cls-110" points="17.356826782226562,3.0789301320910454 8.723616600036621,15.08216094225645 8.532745361328125,15.08216094225645 17.165958404541016,3.0789301320910454 17.356826782226562,3.0789301320910454 " fill="#618aff" id="svg_114"/>
    <polygon stroke="null" class="cls-111" points="17.547714233398438,3.0789301320910454 8.899798393249512,15.08216094225645 8.723616600036621,15.08216094225645 17.356826782226562,3.0789301320910454 17.547714233398438,3.0789301320910454 " fill="#6189ff" id="svg_115"/>
    <polygon stroke="null" class="cls-111" points="8.899798393249512,15.08216094225645 17.547714233398438,3.0789301320910454 18.23778533935547,3.0789301320910454 18.23778533935547,15.08216094225645 8.899798393249512,15.08216094225645 " fill="#6189ff" id="svg_116"/>
   </g>
   <g stroke="null" class="cls-112" clip-path="url(#clip-path-2)" id="svg_117">
    <g stroke="null" class="cls-113" mask="url(#mask)" id="svg_118">
     <g stroke="null" class="cls-114" opacity="0.5" id="svg_119">
      <g stroke="null" class="cls-115" clip-path="url(#clip-path-3)" id="svg_120">
       <g stroke="null" class="cls-115" clip-path="url(#clip-path-3)" id="svg_121">
        <rect stroke="null" class="cls-116" x="-1.24677" y="3.07893" width="0.32982" height="12.00323" fill="#31c3bd" id="svg_122"/>
        <rect stroke="null" class="cls-117" x="-0.91695" y="3.07893" width="0.32982" height="12.00323" fill="#32c2be" id="svg_123"/>
        <rect stroke="null" class="cls-118" x="-0.58713" y="3.07893" width="0.32982" height="12.00323" fill="#32c1be" id="svg_124"/>
        <rect stroke="null" class="cls-119" x="-0.2573" y="3.07893" width="0.32982" height="12.00323" fill="#32c0be" id="svg_125"/>
        <rect stroke="null" class="cls-120" x="0.07252" y="3.07893" width="0.32982" height="12.00323" fill="#32bfbf" id="svg_126"/>
        <rect stroke="null" class="cls-121" x="0.40235" y="3.07893" width="0.32982" height="12.00323" fill="#33bebf" id="svg_127"/>
        <rect stroke="null" class="cls-122" x="0.73217" y="3.07893" width="0.32982" height="12.00323" fill="#33bdc0" id="svg_128"/>
        <rect stroke="null" class="cls-123" x="1.06199" y="3.07893" width="0.32982" height="12.00323" fill="#33bcc0" id="svg_129"/>
        <rect stroke="null" class="cls-124" x="1.39182" y="3.07893" width="0.32982" height="12.00323" fill="#33bbc1" id="svg_130"/>
        <rect stroke="null" class="cls-125" x="1.72164" y="3.07893" width="0.32982" height="12.00323" fill="#34bac1" id="svg_131"/>
        <rect stroke="null" class="cls-126" x="2.05146" y="3.07893" width="0.32982" height="12.00323" fill="#34b9c2" id="svg_132"/>
        <rect stroke="null" class="cls-127" x="2.38129" y="3.07893" width="0.32982" height="12.00323" fill="#34b8c2" id="svg_133"/>
        <rect stroke="null" class="cls-128" x="2.71111" y="3.07893" width="0.32982" height="12.00323" fill="#34b7c3" id="svg_134"/>
        <rect stroke="null" class="cls-129" x="3.04094" y="3.07893" width="0.32982" height="12.00323" fill="#35b6c3" id="svg_135"/>
        <rect stroke="null" class="cls-130" x="3.37076" y="3.07893" width="0.32982" height="12.00323" fill="#35b5c3" id="svg_136"/>
        <rect stroke="null" class="cls-131" x="3.70058" y="3.07893" width="0.32982" height="12.00323" fill="#35b4c4" id="svg_137"/>
        <rect stroke="null" class="cls-132" x="4.03041" y="3.07893" width="0.32982" height="12.00323" fill="#35b3c4" id="svg_138"/>
        <rect stroke="null" class="cls-133" x="4.36023" y="3.07893" width="0.32982" height="12.00323" fill="#36b2c5" id="svg_139"/>
        <rect stroke="null" class="cls-134" x="4.7621" y="3.07893" width="0.32982" height="12.00323" fill="#36b1c5" id="svg_140"/>
        <rect stroke="null" class="cls-135" x="5.09192" y="3.07893" width="0.32982" height="12.00323" fill="#36b0c6" id="svg_141"/>
        <rect stroke="null" class="cls-136" x="5.42175" y="3.07893" width="0.32982" height="12.00323" fill="#36afc6" id="svg_142"/>
        <rect stroke="null" class="cls-137" x="5.75157" y="3.07893" width="0.32982" height="12.00323" fill="#37aec7" id="svg_143"/>
        <rect stroke="null" class="cls-138" x="6.08139" y="3.07893" width="0.32982" height="12.00323" fill="#37adc7" id="svg_144"/>
        <rect stroke="null" class="cls-139" x="6.41122" y="3.07893" width="0.32982" height="12.00323" fill="#37acc8" id="svg_145"/>
        <rect stroke="null" class="cls-140" x="6.74104" y="3.07893" width="0.32982" height="12.00323" fill="#38abc8" id="svg_146"/>
        <rect stroke="null" class="cls-141" x="7.07086" y="3.07893" width="0.32982" height="12.00323" fill="#38aac8" id="svg_147"/>
        <rect stroke="null" class="cls-142" x="7.40069" y="3.07893" width="0.32982" height="12.00323" fill="#38a9c9" id="svg_148"/>
        <rect stroke="null" class="cls-143" x="7.73051" y="3.07893" width="0.32982" height="12.00323" fill="#38a8c9" id="svg_149"/>
        <rect stroke="null" class="cls-144" x="8.06034" y="3.07893" width="0.32982" height="12.00323" fill="#39a7ca" id="svg_150"/>
        <rect stroke="null" class="cls-145" x="8.39016" y="3.07893" width="0.32982" height="12.00323" fill="#39a6ca" id="svg_151"/>
        <rect stroke="null" class="cls-146" x="8.71998" y="3.07893" width="0.32982" height="12.00323" fill="#39a5cb" id="svg_152"/>
        <rect stroke="null" class="cls-147" x="9.04981" y="3.07893" width="0.32982" height="12.00323" fill="#39a4cb" id="svg_153"/>
        <rect stroke="null" class="cls-148" x="9.37963" y="3.07893" width="0.32982" height="12.00323" fill="#3aa3cc" id="svg_154"/>
        <rect stroke="null" class="cls-149" x="9.70945" y="3.07893" width="0.32982" height="12.00323" fill="#3aa2cc" id="svg_155"/>
        <rect stroke="null" class="cls-150" x="10.03928" y="3.07893" width="0.32982" height="12.00323" fill="#3aa1cd" id="svg_156"/>
        <rect stroke="null" class="cls-151" x="10.3691" y="3.07893" width="0.32982" height="12.00323" fill="#3aa0cd" id="svg_157"/>
        <rect stroke="null" class="cls-152" x="10.69893" y="3.07893" width="0.32982" height="12.00323" fill="#3b9fcd" id="svg_158"/>
        <rect stroke="null" class="cls-153" x="11.02875" y="3.07893" width="0.32982" height="12.00323" fill="#3b9ece" id="svg_159"/>
        <rect stroke="null" class="cls-154" x="11.35857" y="3.07893" width="0.32982" height="12.00323" fill="#3b9dce" id="svg_160"/>
        <rect stroke="null" class="cls-155" x="11.6884" y="3.07893" width="0.32982" height="12.00323" fill="#3b9ccf" id="svg_161"/>
        <rect stroke="null" class="cls-156" x="12.01822" y="3.07893" width="0.32982" height="12.00323" fill="#3c9acf" id="svg_162"/>
        <rect stroke="null" class="cls-157" x="12.34804" y="3.07893" width="0.32982" height="12.00323" fill="#3c99d0" id="svg_163"/>
        <rect stroke="null" class="cls-158" x="12.67787" y="3.07893" width="0.32982" height="12.00323" fill="#3c98d0" id="svg_164"/>
        <rect stroke="null" class="cls-159" x="13.00769" y="3.07893" width="0.32982" height="12.00323" fill="#3c97d1" id="svg_165"/>
        <rect stroke="null" class="cls-160" x="13.33752" y="3.07893" width="0.32982" height="12.00323" fill="#3d96d1" id="svg_166"/>
        <rect stroke="null" class="cls-161" x="13.66734" y="3.07893" width="0.32982" height="12.00323" fill="#3d95d1" id="svg_167"/>
        <rect stroke="null" class="cls-162" x="13.99716" y="3.07893" width="0.32982" height="12.00323" fill="#3d94d2" id="svg_168"/>
        <rect stroke="null" class="cls-163" x="14.32699" y="3.07893" width="0.32982" height="12.00323" fill="#3d93d2" id="svg_169"/>
        <rect stroke="null" class="cls-164" x="14.65681" y="3.07893" width="0.32982" height="12.00323" fill="#3e92d3" id="svg_170"/>
        <rect stroke="null" class="cls-165" x="14.98663" y="3.07893" width="0.32982" height="12.00323" fill="#3e91d3" id="svg_171"/>
        <rect stroke="null" class="cls-166" x="15.31646" y="3.07893" width="0.32982" height="12.00323" fill="#3e90d4" id="svg_172"/>
        <rect stroke="null" class="cls-167" x="15.64628" y="3.07893" width="0.32982" height="12.00323" fill="#3e8fd4" id="svg_173"/>
        <rect stroke="null" class="cls-168" x="15.97611" y="3.07893" width="0.32982" height="12.00323" fill="#3f8ed5" id="svg_174"/>
        <rect stroke="null" class="cls-169" x="16.30593" y="3.07893" width="0.32982" height="12.00323" fill="#3f8dd5" id="svg_175"/>
        <rect stroke="null" class="cls-170" x="16.63575" y="3.07893" width="0.32982" height="12.00323" fill="#3f8cd6" id="svg_176"/>
        <rect stroke="null" class="cls-171" x="16.96558" y="3.07893" width="0.32982" height="12.00323" fill="#3f8bd6" id="svg_177"/>
        <rect stroke="null" class="cls-172" x="17.2954" y="3.07893" width="0.32982" height="12.00323" fill="#408ad6" id="svg_178"/>
        <rect stroke="null" class="cls-173" x="17.62523" y="3.07893" width="0.32982" height="12.00323" fill="#4089d7" id="svg_179"/>
       </g>
      </g>
     </g>
    </g>
   </g>
   <path stroke="#000" fill="#fff" opacity="NaN" d="m-4.13204,8.06764" id="svg_181"/>
  </g>
  <g transform="rotate(90 7.50836 3.28553)" stroke-width="1.4" id="svg_223">
   <line id="svg_216" y2="2.37499" x2="7.22986" y1="2.37499" x1="4.41259" stroke="#000" fill="none"/>
   <line id="svg_217" y2="2.37499" x2="7.22986" y1="2.37499" x1="4.41259" stroke="#000" fill="none"/>
   <line id="svg_218" y2="4.35209" x2="7.22986" y1="4.35209" x1="4.41259" stroke="#000" fill="none"/>
   <line id="svg_219" y2="3.62369" x2="10.55203" y1="-0.12241" x1="6.90999" stroke="#000" fill="none"/>
   <path transform="rotate(90 8.73101 4.87245)" id="svg_220" d="m6.90999,2.99934l3.64204,3.7461" opacity="undefined" stroke="#000" fill="none"/>
  </g>
 </g>
</svg>