<svg id="图层_1" data-name="图层 1" xmlns="http://www.w3.org/2000/svg" xmlns:xlink="http://www.w3.org/1999/xlink" viewBox="0 0 12 12"><defs><style>.cls-1{isolation:isolate;filter:url(#luminosity-invert);}.cls-2{fill:#020202;}.cls-3{fill:none;}.cls-4{clip-path:url(#clip-path);}.cls-5{fill:#8ff4ff;}.cls-6{fill:#8ff3ff;}.cls-7{fill:#8ef2ff;}.cls-8{fill:#8ef1ff;}.cls-9{fill:#8df0ff;}.cls-10{fill:#8defff;}.cls-11{fill:#8ceeff;}.cls-12{fill:#8cedff;}.cls-13{fill:#8cecff;}.cls-14{fill:#8bebff;}.cls-15{fill:#8beaff;}.cls-16{fill:#8ae9ff;}.cls-17{fill:#8ae8ff;}.cls-18{fill:#89e7ff;}.cls-19{fill:#89e6ff;}.cls-20{fill:#88e5ff;}.cls-21{fill:#88e4ff;}.cls-22{fill:#88e3ff;}.cls-23{fill:#87e2ff;}.cls-24{fill:#87e1ff;}.cls-25{fill:#86e0ff;}.cls-26{fill:#86dfff;}.cls-27{fill:#85deff;}.cls-28{fill:#85ddff;}.cls-29{fill:#85dcff;}.cls-30{fill:#84dbff;}.cls-31{fill:#84daff;}.cls-32{fill:#83d9ff;}.cls-33{fill:#83d8ff;}.cls-34{fill:#82d7ff;}.cls-35{fill:#82d6ff;}.cls-36{fill:#82d5ff;}.cls-37{fill:#81d4ff;}.cls-38{fill:#81d3ff;}.cls-39{fill:#80d2ff;}.cls-40{fill:#80d1ff;}.cls-41{fill:#7fd0ff;}.cls-42{fill:#7fcfff;}.cls-43{fill:#7fceff;}.cls-44{fill:#7ecdff;}.cls-45{fill:#7eccff;}.cls-46{fill:#7dcbff;}.cls-47{fill:#7dcaff;}.cls-48{fill:#7cc9ff;}.cls-49{fill:#7cc8ff;}.cls-50{fill:#7bc7ff;}.cls-51{fill:#7bc6ff;}.cls-52{fill:#7bc5ff;}.cls-53{fill:#7ac4ff;}.cls-54{fill:#7ac3ff;}.cls-55{fill:#79c2ff;}.cls-56{fill:#79c1ff;}.cls-57{fill:#78c0ff;}.cls-58{fill:#78beff;}.cls-59{fill:#78bdff;}.cls-60{fill:#77bcff;}.cls-61{fill:#7bf;}.cls-62{fill:#76baff;}.cls-63{fill:#76b9ff;}.cls-64{fill:#75b8ff;}.cls-65{fill:#75b7ff;}.cls-66{fill:#75b6ff;}.cls-67{fill:#74b5ff;}.cls-68{fill:#74b4ff;}.cls-69{fill:#73b3ff;}.cls-70{fill:#73b2ff;}.cls-71{fill:#72b1ff;}.cls-72{fill:#72b0ff;}.cls-73{fill:#71afff;}.cls-74{fill:#71aeff;}.cls-75{fill:#71adff;}.cls-76{fill:#70acff;}.cls-77{fill:#70abff;}.cls-78{fill:#6faaff;}.cls-79{fill:#6fa9ff;}.cls-80{fill:#6ea8ff;}.cls-81{fill:#6ea7ff;}.cls-82{fill:#6ea6ff;}.cls-83{fill:#6da5ff;}.cls-84{fill:#6da4ff;}.cls-85{fill:#6ca3ff;}.cls-86{fill:#6ca2ff;}.cls-87{fill:#6ba1ff;}.cls-88{fill:#6ba0ff;}.cls-89{fill:#6b9fff;}.cls-90{fill:#6a9eff;}.cls-91{fill:#6a9dff;}.cls-92{fill:#699cff;}.cls-93{fill:#699bff;}.cls-94{fill:#689aff;}.cls-95{fill:#6899ff;}.cls-96{fill:#6898ff;}.cls-97{fill:#6797ff;}.cls-98{fill:#6796ff;}.cls-99{fill:#6695ff;}.cls-100{fill:#6694ff;}.cls-101{fill:#6593ff;}.cls-102{fill:#6592ff;}.cls-103{fill:#6491ff;}.cls-104{fill:#6490ff;}.cls-105{fill:#648fff;}.cls-106{fill:#638eff;}.cls-107{fill:#638dff;}.cls-108{fill:#628cff;}.cls-109{fill:#628bff;}.cls-110{fill:#618aff;}.cls-111{fill:#6189ff;}.cls-112{clip-path:url(#clip-path-2);}.cls-113{mask:url(#mask);}.cls-114{opacity:0.5;}.cls-115{clip-path:url(#clip-path-3);}.cls-116{fill:#31c3bd;}.cls-117{fill:#32c2be;}.cls-118{fill:#32c1be;}.cls-119{fill:#32c0be;}.cls-120{fill:#32bfbf;}.cls-121{fill:#33bebf;}.cls-122{fill:#33bdc0;}.cls-123{fill:#33bcc0;}.cls-124{fill:#33bbc1;}.cls-125{fill:#34bac1;}.cls-126{fill:#34b9c2;}.cls-127{fill:#34b8c2;}.cls-128{fill:#34b7c3;}.cls-129{fill:#35b6c3;}.cls-130{fill:#35b5c3;}.cls-131{fill:#35b4c4;}.cls-132{fill:#35b3c4;}.cls-133{fill:#36b2c5;}.cls-134{fill:#36b1c5;}.cls-135{fill:#36b0c6;}.cls-136{fill:#36afc6;}.cls-137{fill:#37aec7;}.cls-138{fill:#37adc7;}.cls-139{fill:#37acc8;}.cls-140{fill:#38abc8;}.cls-141{fill:#38aac8;}.cls-142{fill:#38a9c9;}.cls-143{fill:#38a8c9;}.cls-144{fill:#39a7ca;}.cls-145{fill:#39a6ca;}.cls-146{fill:#39a5cb;}.cls-147{fill:#39a4cb;}.cls-148{fill:#3aa3cc;}.cls-149{fill:#3aa2cc;}.cls-150{fill:#3aa1cd;}.cls-151{fill:#3aa0cd;}.cls-152{fill:#3b9fcd;}.cls-153{fill:#3b9ece;}.cls-154{fill:#3b9dce;}.cls-155{fill:#3b9ccf;}.cls-156{fill:#3c9acf;}.cls-157{fill:#3c99d0;}.cls-158{fill:#3c98d0;}.cls-159{fill:#3c97d1;}.cls-160{fill:#3d96d1;}.cls-161{fill:#3d95d1;}.cls-162{fill:#3d94d2;}.cls-163{fill:#3d93d2;}.cls-164{fill:#3e92d3;}.cls-165{fill:#3e91d3;}.cls-166{fill:#3e90d4;}.cls-167{fill:#3e8fd4;}.cls-168{fill:#3f8ed5;}.cls-169{fill:#3f8dd5;}.cls-170{fill:#3f8cd6;}.cls-171{fill:#3f8bd6;}.cls-172{fill:#408ad6;}.cls-173{fill:#4089d7;}</style><clipPath id="clip-path"><path class="cls-3" d="M7.3,3.89h-1L5,7.08,3.75,3.89h-1L2.32,8.25h1l.22-2.4,1,2.32h.85l1-2.32.22,2.4h1L7.3,3.89ZM0,3.2H0v.67H0V9.31H1.71V8.63h-1V3.88h1V3.2H0Zm8.31,0h0v.67h1V8.63h-1v.69H10V3.88h0V3.2H8.31Zm2.32.06a.61.61,0,0,0,.45.53c.18.07.35.12.35.21s-.05.11-.18.11a.77.77,0,0,1-.44-.18l-.27.38a1.2,1.2,0,0,0,.7.25c.5,0,.77-.26.77-.6a.58.58,0,0,0-.46-.54c-.18-.06-.34-.1-.34-.19s.05-.1.16-.1a.67.67,0,0,1,.37.15L12,2.91a1.07,1.07,0,0,0-.66-.24c-.43,0-.71.23-.71.58"/></clipPath><clipPath id="clip-path-2"><rect class="cls-3" y="2.68" width="12" height="6.65"/></clipPath><filter id="luminosity-invert" filterUnits="userSpaceOnUse" color-interpolation-filters="sRGB"><feColorMatrix values="-1 0 0 0 1 0 -1 0 0 1 0 0 -1 0 1 0 0 0 1 0"/></filter><mask id="mask" x="-0.4" y="2.08" width="12.66" height="7.64" maskUnits="userSpaceOnUse"><g class="cls-1"><polygon class="cls-2" points="3.57 5.85 4.58 8.17 5 7.09 3.74 3.89 3.57 5.85"/><polygon class="cls-2" points="7.29 3.89 6.44 5.86 6.66 8.24 7.69 8.24 7.29 3.89"/></g></mask><clipPath id="clip-path-3"><rect class="cls-3" x="-0.4" y="2.08" width="12.66" height="7.64"/></clipPath></defs><title>画板 9</title><g class="cls-4"><polygon class="cls-5" points="1.82 2.08 -0.39 5.92 -0.39 2.08 1.82 2.08"/><polygon class="cls-5" points="1.92 2.08 -0.39 6.09 -0.39 5.92 1.82 2.08 1.92 2.08"/><polygon class="cls-6" points="2.01 2.08 -0.39 6.25 -0.39 6.09 1.92 2.08 2.01 2.08"/><polygon class="cls-7" points="2.11 2.08 -0.39 6.41 -0.39 6.25 2.01 2.08 2.11 2.08"/><polygon class="cls-8" points="2.2 2.08 -0.39 6.58 -0.39 6.41 2.11 2.08 2.2 2.08"/><polygon class="cls-9" points="2.3 2.08 -0.39 6.74 -0.39 6.58 2.2 2.08 2.3 2.08"/><polygon class="cls-10" points="2.39 2.08 -0.39 6.9 -0.39 6.74 2.3 2.08 2.39 2.08"/><polygon class="cls-11" points="2.48 2.08 -0.39 7.07 -0.39 6.9 2.39 2.08 2.48 2.08"/><polygon class="cls-12" points="2.58 2.08 -0.39 7.23 -0.39 7.07 2.48 2.08 2.58 2.08"/><polygon class="cls-13" points="2.67 2.08 -0.39 7.39 -0.39 7.23 2.58 2.08 2.67 2.08"/><polygon class="cls-14" points="2.77 2.08 -0.39 7.56 -0.39 7.39 2.67 2.08 2.77 2.08"/><polygon class="cls-15" points="2.86 2.08 -0.39 7.72 -0.39 7.56 2.77 2.08 2.86 2.08"/><polygon class="cls-16" points="2.96 2.08 -0.39 7.88 -0.39 7.72 2.86 2.08 2.96 2.08"/><polygon class="cls-17" points="3.05 2.08 -0.39 8.05 -0.39 7.88 2.96 2.08 3.05 2.08"/><polygon class="cls-18" points="3.14 2.08 -0.39 8.21 -0.39 8.05 3.05 2.08 3.14 2.08"/><polygon class="cls-19" points="3.24 2.08 -0.39 8.37 -0.39 8.21 3.14 2.08 3.24 2.08"/><polygon class="cls-20" points="3.33 2.08 -0.39 8.54 -0.39 8.37 3.24 2.08 3.33 2.08"/><polygon class="cls-21" points="3.43 2.08 -0.39 8.7 -0.39 8.54 3.33 2.08 3.43 2.08"/><polygon class="cls-22" points="3.52 2.08 -0.39 8.86 -0.39 8.7 3.43 2.08 3.52 2.08"/><polygon class="cls-23" points="3.62 2.08 -0.39 9.03 -0.39 8.86 3.52 2.08 3.62 2.08"/><polygon class="cls-24" points="3.71 2.08 -0.39 9.19 -0.39 9.03 3.62 2.08 3.71 2.08"/><polygon class="cls-25" points="3.8 2.08 -0.39 9.35 -0.39 9.19 3.71 2.08 3.8 2.08"/><polygon class="cls-26" points="3.9 2.08 -0.39 9.52 -0.39 9.35 3.8 2.08 3.9 2.08"/><polygon class="cls-27" points="3.99 2.08 -0.39 9.68 -0.39 9.52 3.9 2.08 3.99 2.08"/><polygon class="cls-28" points="4.09 2.08 -0.33 9.72 -0.39 9.72 -0.39 9.68 3.99 2.08 4.09 2.08"/><polygon class="cls-29" points="4.18 2.08 -0.23 9.72 -0.33 9.72 4.09 2.08 4.18 2.08"/><polygon class="cls-30" points="4.28 2.08 -0.14 9.72 -0.23 9.72 4.18 2.08 4.28 2.08"/><polygon class="cls-31" points="4.37 2.08 -0.04 9.72 -0.14 9.72 4.28 2.08 4.37 2.08"/><polygon class="cls-32" points="4.46 2.08 0.05 9.72 -0.04 9.72 4.37 2.08 4.46 2.08"/><polygon class="cls-33" points="4.56 2.08 0.15 9.72 0.05 9.72 4.46 2.08 4.56 2.08"/><polygon class="cls-34" points="4.65 2.08 0.24 9.72 0.15 9.72 4.56 2.08 4.65 2.08"/><polygon class="cls-35" points="4.75 2.08 0.34 9.72 0.24 9.72 4.65 2.08 4.75 2.08"/><polygon class="cls-36" points="4.84 2.08 0.43 9.72 0.34 9.72 4.75 2.08 4.84 2.08"/><polygon class="cls-37" points="4.94 2.08 0.52 9.72 0.43 9.72 4.84 2.08 4.94 2.08"/><polygon class="cls-38" points="5.03 2.08 0.62 9.72 0.52 9.72 4.94 2.08 5.03 2.08"/><polygon class="cls-39" points="5.13 2.08 0.71 9.72 0.62 9.72 5.03 2.08 5.13 2.08"/><polygon class="cls-40" points="5.22 2.08 0.81 9.72 0.71 9.72 5.13 2.08 5.22 2.08"/><polygon class="cls-41" points="5.31 2.08 0.9 9.72 0.81 9.72 5.22 2.08 5.31 2.08"/><polygon class="cls-42" points="5.41 2.08 0.99 9.72 0.9 9.72 5.31 2.08 5.41 2.08"/><polygon class="cls-43" points="5.5 2.08 1.09 9.72 0.99 9.72 5.41 2.08 5.5 2.08"/><polygon class="cls-44" points="5.6 2.08 1.18 9.72 1.09 9.72 5.5 2.08 5.6 2.08"/><polygon class="cls-45" points="5.69 2.08 1.28 9.72 1.18 9.72 5.6 2.08 5.69 2.08"/><polygon class="cls-46" points="5.79 2.08 1.37 9.72 1.28 9.72 5.69 2.08 5.79 2.08"/><polygon class="cls-47" points="5.88 2.08 1.47 9.72 1.37 9.72 5.79 2.08 5.88 2.08"/><polygon class="cls-48" points="5.97 2.08 1.56 9.72 1.47 9.72 5.88 2.08 5.97 2.08"/><polygon class="cls-49" points="6.07 2.08 1.66 9.72 1.56 9.72 5.97 2.08 6.07 2.08"/><polygon class="cls-50" points="6.16 2.08 1.75 9.72 1.66 9.72 6.07 2.08 6.16 2.08"/><polygon class="cls-51" points="6.26 2.08 1.84 9.72 1.75 9.72 6.16 2.08 6.26 2.08"/><polygon class="cls-52" points="6.35 2.08 1.94 9.72 1.84 9.72 6.26 2.08 6.35 2.08"/><polygon class="cls-53" points="6.45 2.08 2.03 9.72 1.94 9.72 6.35 2.08 6.45 2.08"/><polygon class="cls-54" points="6.54 2.08 2.13 9.72 2.03 9.72 6.45 2.08 6.54 2.08"/><polygon class="cls-55" points="6.63 2.08 2.22 9.72 2.13 9.72 6.54 2.08 6.63 2.08"/><polygon class="cls-56" points="6.73 2.08 2.31 9.72 2.22 9.72 6.63 2.08 6.73 2.08"/><polygon class="cls-57" points="6.82 2.08 2.41 9.72 2.31 9.72 6.73 2.08 6.82 2.08"/><polygon class="cls-58" points="6.92 2.08 2.5 9.72 2.41 9.72 6.82 2.08 6.92 2.08"/><polygon class="cls-59" points="7.01 2.08 2.6 9.72 2.5 9.72 6.92 2.08 7.01 2.08"/><polygon class="cls-60" points="7.11 2.08 2.69 9.72 2.6 9.72 7.01 2.08 7.11 2.08"/><polygon class="cls-61" points="7.2 2.08 2.79 9.72 2.69 9.72 7.11 2.08 7.2 2.08"/><polygon class="cls-62" points="7.29 2.08 2.88 9.72 2.79 9.72 7.2 2.08 7.29 2.08"/><polygon class="cls-63" points="7.39 2.08 2.98 9.72 2.88 9.72 7.29 2.08 7.39 2.08"/><polygon class="cls-64" points="7.48 2.08 3.07 9.72 2.98 9.72 7.39 2.08 7.48 2.08"/><polygon class="cls-65" points="7.58 2.08 3.16 9.72 3.07 9.72 7.48 2.08 7.58 2.08"/><polygon class="cls-66" points="7.67 2.08 3.26 9.72 3.16 9.72 7.58 2.08 7.67 2.08"/><polygon class="cls-67" points="7.76 2.08 3.35 9.72 3.26 9.72 7.67 2.08 7.76 2.08"/><polygon class="cls-68" points="7.86 2.08 3.45 9.72 3.35 9.72 7.76 2.08 7.86 2.08"/><polygon class="cls-69" points="7.95 2.08 3.54 9.72 3.45 9.72 7.86 2.08 7.95 2.08"/><polygon class="cls-70" points="8.05 2.08 3.64 9.72 3.54 9.72 7.95 2.08 8.05 2.08"/><polygon class="cls-71" points="8.14 2.08 3.73 9.72 3.64 9.72 8.05 2.08 8.14 2.08"/><polygon class="cls-72" points="8.24 2.08 3.82 9.72 3.73 9.72 8.14 2.08 8.24 2.08"/><polygon class="cls-73" points="8.33 2.08 3.92 9.72 3.82 9.72 8.24 2.08 8.33 2.08"/><polygon class="cls-74" points="8.43 2.08 4.01 9.72 3.92 9.72 8.33 2.08 8.43 2.08"/><polygon class="cls-75" points="8.52 2.08 4.11 9.72 4.01 9.72 8.43 2.08 8.52 2.08"/><polygon class="cls-76" points="8.61 2.08 4.2 9.72 4.11 9.72 8.52 2.08 8.61 2.08"/><polygon class="cls-77" points="8.71 2.08 4.3 9.72 4.2 9.72 8.61 2.08 8.71 2.08"/><polygon class="cls-78" points="8.8 2.08 4.39 9.72 4.3 9.72 8.71 2.08 8.8 2.08"/><polygon class="cls-79" points="8.9 2.08 4.48 9.72 4.39 9.72 8.8 2.08 8.9 2.08"/><polygon class="cls-80" points="8.99 2.08 4.58 9.72 4.48 9.72 8.9 2.08 8.99 2.08"/><polygon class="cls-81" points="9.09 2.08 4.67 9.72 4.58 9.72 8.99 2.08 9.09 2.08"/><polygon class="cls-82" points="9.18 2.08 4.77 9.72 4.67 9.72 9.09 2.08 9.18 2.08"/><polygon class="cls-83" points="9.27 2.08 4.86 9.72 4.77 9.72 9.18 2.08 9.27 2.08"/><polygon class="cls-84" points="9.37 2.08 4.96 9.72 4.86 9.72 9.27 2.08 9.37 2.08"/><polygon class="cls-85" points="9.46 2.08 5.05 9.72 4.96 9.72 9.37 2.08 9.46 2.08"/><polygon class="cls-86" points="9.56 2.08 5.14 9.72 5.05 9.72 9.46 2.08 9.56 2.08"/><polygon class="cls-87" points="9.65 2.08 5.24 9.72 5.14 9.72 9.56 2.08 9.65 2.08"/><polygon class="cls-88" points="9.74 2.08 5.33 9.72 5.24 9.72 9.65 2.08 9.74 2.08"/><polygon class="cls-89" points="9.84 2.08 5.43 9.72 5.33 9.72 9.74 2.08 9.84 2.08"/><polygon class="cls-90" points="9.93 2.08 5.52 9.72 5.43 9.72 9.84 2.08 9.93 2.08"/><polygon class="cls-91" points="10.03 2.08 5.62 9.72 5.52 9.72 9.93 2.08 10.03 2.08"/><polygon class="cls-92" points="10.12 2.08 5.71 9.72 5.62 9.72 10.03 2.08 10.12 2.08"/><polygon class="cls-93" points="10.22 2.08 5.8 9.72 5.71 9.72 10.12 2.08 10.22 2.08"/><polygon class="cls-94" points="10.31 2.08 5.9 9.72 5.8 9.72 10.22 2.08 10.31 2.08"/><polygon class="cls-95" points="10.4 2.08 5.99 9.72 5.9 9.72 10.31 2.08 10.4 2.08"/><polygon class="cls-96" points="10.5 2.08 6.09 9.72 5.99 9.72 10.4 2.08 10.5 2.08"/><polygon class="cls-97" points="10.59 2.08 6.18 9.72 6.09 9.72 10.5 2.08 10.59 2.08"/><polygon class="cls-98" points="10.69 2.08 6.28 9.72 6.18 9.72 10.59 2.08 10.69 2.08"/><polygon class="cls-99" points="10.78 2.08 6.37 9.72 6.28 9.72 10.69 2.08 10.78 2.08"/><polygon class="cls-100" points="10.88 2.08 6.46 9.72 6.37 9.72 10.78 2.08 10.88 2.08"/><polygon class="cls-101" points="10.97 2.08 6.56 9.72 6.46 9.72 10.88 2.08 10.97 2.08"/><polygon class="cls-102" points="11.06 2.08 6.65 9.72 6.56 9.72 10.97 2.08 11.06 2.08"/><polygon class="cls-103" points="11.16 2.08 6.75 9.72 6.65 9.72 11.06 2.08 11.16 2.08"/><polygon class="cls-104" points="11.25 2.08 6.84 9.72 6.75 9.72 11.16 2.08 11.25 2.08"/><polygon class="cls-105" points="11.35 2.08 6.94 9.72 6.84 9.72 11.25 2.08 11.35 2.08"/><polygon class="cls-106" points="11.44 2.08 7.03 9.72 6.94 9.72 11.35 2.08 11.44 2.08"/><polygon class="cls-107" points="11.54 2.08 7.13 9.72 7.03 9.72 11.44 2.08 11.54 2.08"/><polygon class="cls-108" points="11.63 2.08 7.22 9.72 7.13 9.72 11.54 2.08 11.63 2.08"/><polygon class="cls-109" points="11.73 2.08 7.31 9.72 7.22 9.72 11.63 2.08 11.73 2.08"/><polygon class="cls-110" points="11.82 2.08 7.41 9.72 7.31 9.72 11.73 2.08 11.82 2.08"/><polygon class="cls-111" points="11.91 2.08 7.5 9.72 7.41 9.72 11.82 2.08 11.91 2.08"/><polygon class="cls-111" points="7.5 9.72 11.91 2.08 12.27 2.08 12.27 9.72 7.5 9.72"/></g><g class="cls-112"><g class="cls-113"><g class="cls-114"><g class="cls-115"><g class="cls-115"><rect class="cls-116" x="-0.09" y="2.08" width="0.21" height="7.64"/><rect class="cls-117" x="0.12" y="2.08" width="0.21" height="7.64"/><rect class="cls-118" x="0.33" y="2.08" width="0.21" height="7.64"/><rect class="cls-119" x="0.54" y="2.08" width="0.21" height="7.64"/><rect class="cls-120" x="0.75" y="2.08" width="0.21" height="7.64"/><rect class="cls-121" x="0.96" y="2.08" width="0.21" height="7.64"/><rect class="cls-122" x="1.17" y="2.08" width="0.21" height="7.64"/><rect class="cls-123" x="1.38" y="2.08" width="0.21" height="7.64"/><rect class="cls-124" x="1.59" y="2.08" width="0.21" height="7.64"/><rect class="cls-125" x="1.8" y="2.08" width="0.21" height="7.64"/><rect class="cls-126" x="2.01" y="2.08" width="0.21" height="7.64"/><rect class="cls-127" x="2.22" y="2.08" width="0.21" height="7.64"/><rect class="cls-128" x="2.43" y="2.08" width="0.21" height="7.64"/><rect class="cls-129" x="2.64" y="2.08" width="0.21" height="7.64"/><rect class="cls-130" x="2.85" y="2.08" width="0.21" height="7.64"/><rect class="cls-131" x="3.06" y="2.08" width="0.21" height="7.64"/><rect class="cls-132" x="3.27" y="2.08" width="0.21" height="7.64"/><rect class="cls-133" x="3.48" y="2.08" width="0.21" height="7.64"/><rect class="cls-134" x="3.69" y="2.08" width="0.21" height="7.64"/><rect class="cls-135" x="3.9" y="2.08" width="0.21" height="7.64"/><rect class="cls-136" x="4.11" y="2.08" width="0.21" height="7.64"/><rect class="cls-137" x="4.32" y="2.08" width="0.21" height="7.64"/><rect class="cls-138" x="4.53" y="2.08" width="0.21" height="7.64"/><rect class="cls-139" x="4.74" y="2.08" width="0.21" height="7.64"/><rect class="cls-140" x="4.95" y="2.08" width="0.21" height="7.64"/><rect class="cls-141" x="5.16" y="2.08" width="0.21" height="7.64"/><rect class="cls-142" x="5.37" y="2.08" width="0.21" height="7.64"/><rect class="cls-143" x="5.58" y="2.08" width="0.21" height="7.64"/><rect class="cls-144" x="5.79" y="2.08" width="0.21" height="7.64"/><rect class="cls-145" x="6" y="2.08" width="0.21" height="7.64"/><rect class="cls-146" x="6.21" y="2.08" width="0.21" height="7.64"/><rect class="cls-147" x="6.42" y="2.08" width="0.21" height="7.64"/><rect class="cls-148" x="6.63" y="2.08" width="0.21" height="7.64"/><rect class="cls-149" x="6.84" y="2.08" width="0.21" height="7.64"/><rect class="cls-150" x="7.05" y="2.08" width="0.21" height="7.64"/><rect class="cls-151" x="7.26" y="2.08" width="0.21" height="7.64"/><rect class="cls-152" x="7.47" y="2.08" width="0.21" height="7.64"/><rect class="cls-153" x="7.68" y="2.08" width="0.21" height="7.64"/><rect class="cls-154" x="7.89" y="2.08" width="0.21" height="7.64"/><rect class="cls-155" x="8.1" y="2.08" width="0.21" height="7.64"/><rect class="cls-156" x="8.31" y="2.08" width="0.21" height="7.64"/><rect class="cls-157" x="8.52" y="2.08" width="0.21" height="7.64"/><rect class="cls-158" x="8.73" y="2.08" width="0.21" height="7.64"/><rect class="cls-159" x="8.94" y="2.08" width="0.21" height="7.64"/><rect class="cls-160" x="9.15" y="2.08" width="0.21" height="7.64"/><rect class="cls-161" x="9.36" y="2.08" width="0.21" height="7.64"/><rect class="cls-162" x="9.57" y="2.08" width="0.21" height="7.64"/><rect class="cls-163" x="9.78" y="2.08" width="0.21" height="7.64"/><rect class="cls-164" x="9.99" y="2.08" width="0.21" height="7.64"/><rect class="cls-165" x="10.2" y="2.08" width="0.21" height="7.64"/><rect class="cls-166" x="10.41" y="2.08" width="0.21" height="7.64"/><rect class="cls-167" x="10.62" y="2.08" width="0.21" height="7.64"/><rect class="cls-168" x="10.83" y="2.08" width="0.21" height="7.64"/><rect class="cls-169" x="11.04" y="2.08" width="0.21" height="7.64"/><rect class="cls-170" x="11.25" y="2.08" width="0.21" height="7.64"/><rect class="cls-171" x="11.46" y="2.08" width="0.21" height="7.64"/><rect class="cls-172" x="11.67" y="2.08" width="0.21" height="7.64"/><rect class="cls-173" x="11.88" y="2.08" width="0.21" height="7.64"/></g></g></g></g></g></svg>