<svg id="图层_1" data-name="图层 1" xmlns="http://www.w3.org/2000/svg" xmlns:xlink="http://www.w3.org/1999/xlink" viewBox="0 0 13 13"><defs><style>.cls-1{isolation:isolate;filter:url(#luminosity-invert);}.cls-2{fill:#020202;}.cls-3{fill:none;}.cls-4{clip-path:url(#clip-path);}.cls-5{fill:#8ff4ff;}.cls-6{fill:#8ff3ff;}.cls-7{fill:#8ef2ff;}.cls-8{fill:#8ef1ff;}.cls-9{fill:#8df0ff;}.cls-10{fill:#8defff;}.cls-11{fill:#8ceeff;}.cls-12{fill:#8cedff;}.cls-13{fill:#8cecff;}.cls-14{fill:#8bebff;}.cls-15{fill:#8beaff;}.cls-16{fill:#8ae9ff;}.cls-17{fill:#8ae8ff;}.cls-18{fill:#89e7ff;}.cls-19{fill:#89e6ff;}.cls-20{fill:#88e5ff;}.cls-21{fill:#88e4ff;}.cls-22{fill:#88e3ff;}.cls-23{fill:#87e2ff;}.cls-24{fill:#87e1ff;}.cls-25{fill:#86e0ff;}.cls-26{fill:#86dfff;}.cls-27{fill:#85deff;}.cls-28{fill:#85ddff;}.cls-29{fill:#85dcff;}.cls-30{fill:#84dbff;}.cls-31{fill:#84daff;}.cls-32{fill:#83d9ff;}.cls-33{fill:#83d8ff;}.cls-34{fill:#82d7ff;}.cls-35{fill:#82d6ff;}.cls-36{fill:#82d5ff;}.cls-37{fill:#81d4ff;}.cls-38{fill:#81d3ff;}.cls-39{fill:#80d2ff;}.cls-40{fill:#80d1ff;}.cls-41{fill:#7fd0ff;}.cls-42{fill:#7fcfff;}.cls-43{fill:#7fceff;}.cls-44{fill:#7ecdff;}.cls-45{fill:#7eccff;}.cls-46{fill:#7dcbff;}.cls-47{fill:#7dcaff;}.cls-48{fill:#7cc9ff;}.cls-49{fill:#7cc8ff;}.cls-50{fill:#7bc7ff;}.cls-51{fill:#7bc6ff;}.cls-52{fill:#7bc5ff;}.cls-53{fill:#7ac4ff;}.cls-54{fill:#7ac3ff;}.cls-55{fill:#79c2ff;}.cls-56{fill:#79c1ff;}.cls-57{fill:#78c0ff;}.cls-58{fill:#78beff;}.cls-59{fill:#78bdff;}.cls-60{fill:#77bcff;}.cls-61{fill:#7bf;}.cls-62{fill:#76baff;}.cls-63{fill:#76b9ff;}.cls-64{fill:#75b8ff;}.cls-65{fill:#75b7ff;}.cls-66{fill:#75b6ff;}.cls-67{fill:#74b5ff;}.cls-68{fill:#74b4ff;}.cls-69{fill:#73b3ff;}.cls-70{fill:#73b2ff;}.cls-71{fill:#72b1ff;}.cls-72{fill:#72b0ff;}.cls-73{fill:#71afff;}.cls-74{fill:#71aeff;}.cls-75{fill:#71adff;}.cls-76{fill:#70acff;}.cls-77{fill:#70abff;}.cls-78{fill:#6faaff;}.cls-79{fill:#6fa9ff;}.cls-80{fill:#6ea8ff;}.cls-81{fill:#6ea7ff;}.cls-82{fill:#6ea6ff;}.cls-83{fill:#6da5ff;}.cls-84{fill:#6da4ff;}.cls-85{fill:#6ca3ff;}.cls-86{fill:#6ca2ff;}.cls-87{fill:#6ba1ff;}.cls-88{fill:#6ba0ff;}.cls-89{fill:#6b9fff;}.cls-90{fill:#6a9eff;}.cls-91{fill:#6a9dff;}.cls-92{fill:#699cff;}.cls-93{fill:#699bff;}.cls-94{fill:#689aff;}.cls-95{fill:#6899ff;}.cls-96{fill:#6898ff;}.cls-97{fill:#6797ff;}.cls-98{fill:#6796ff;}.cls-99{fill:#6695ff;}.cls-100{fill:#6694ff;}.cls-101{fill:#6593ff;}.cls-102{fill:#6592ff;}.cls-103{fill:#6491ff;}.cls-104{fill:#6490ff;}.cls-105{fill:#648fff;}.cls-106{fill:#638eff;}.cls-107{fill:#638dff;}.cls-108{fill:#628cff;}.cls-109{fill:#628bff;}.cls-110{fill:#618aff;}.cls-111{fill:#6189ff;}.cls-112{clip-path:url(#clip-path-2);}.cls-113{mask:url(#mask);}.cls-114{opacity:0.5;}.cls-115{clip-path:url(#clip-path-3);}.cls-116{fill:#31c3bd;}.cls-117{fill:#32c2be;}.cls-118{fill:#32c1be;}.cls-119{fill:#32c0be;}.cls-120{fill:#32bfbf;}.cls-121{fill:#33bebf;}.cls-122{fill:#33bdc0;}.cls-123{fill:#33bcc0;}.cls-124{fill:#33bbc1;}.cls-125{fill:#34bac1;}.cls-126{fill:#34b9c2;}.cls-127{fill:#34b8c2;}.cls-128{fill:#34b7c3;}.cls-129{fill:#35b6c3;}.cls-130{fill:#35b5c3;}.cls-131{fill:#35b4c4;}.cls-132{fill:#35b3c4;}.cls-133{fill:#36b2c5;}.cls-134{fill:#36b1c5;}.cls-135{fill:#36b0c6;}.cls-136{fill:#36afc6;}.cls-137{fill:#37aec7;}.cls-138{fill:#37adc7;}.cls-139{fill:#37acc8;}.cls-140{fill:#38abc8;}.cls-141{fill:#38aac8;}.cls-142{fill:#38a9c9;}.cls-143{fill:#38a8c9;}.cls-144{fill:#39a7ca;}.cls-145{fill:#39a6ca;}.cls-146{fill:#39a5cb;}.cls-147{fill:#39a4cb;}.cls-148{fill:#3aa3cc;}.cls-149{fill:#3aa2cc;}.cls-150{fill:#3aa1cd;}.cls-151{fill:#3aa0cd;}.cls-152{fill:#3b9fcd;}.cls-153{fill:#3b9ece;}.cls-154{fill:#3b9dce;}.cls-155{fill:#3b9ccf;}.cls-156{fill:#3c9acf;}.cls-157{fill:#3c99d0;}.cls-158{fill:#3c98d0;}.cls-159{fill:#3c97d1;}.cls-160{fill:#3d96d1;}.cls-161{fill:#3d95d1;}.cls-162{fill:#3d94d2;}.cls-163{fill:#3d93d2;}.cls-164{fill:#3e92d3;}.cls-165{fill:#3e91d3;}.cls-166{fill:#3e90d4;}.cls-167{fill:#3e8fd4;}.cls-168{fill:#3f8ed5;}.cls-169{fill:#3f8dd5;}.cls-170{fill:#3f8cd6;}.cls-171{fill:#3f8bd6;}.cls-172{fill:#408ad6;}.cls-173{fill:#4089d7;}</style><clipPath id="clip-path"><path class="cls-3" d="M7.9,4.21H6.79L5.42,7.67,4.06,4.21H2.94L2.52,8.93H3.63l.23-2.6L5,8.85h.93L7,6.33l.23,2.6H8.33L7.9,4.21ZM0,3.46H0v.73H0v5.89H1.85V9.35H.74V4.2H1.85V3.47H0Zm9,0H9v.73h1.11V9.35H9v.74h1.85V4.2h0V3.47H9Zm2.51.07a.66.66,0,0,0,.49.58c.2.08.38.13.38.23s-.05.12-.2.12a.84.84,0,0,1-.48-.2l-.3.41a1.3,1.3,0,0,0,.76.27c.55,0,.84-.28.84-.65a.63.63,0,0,0-.5-.59c-.2-.07-.37-.11-.37-.21s.06-.11.17-.11a.73.73,0,0,1,.4.16l.3-.4a1.16,1.16,0,0,0-.72-.26c-.46,0-.77.25-.77.63"/></clipPath><clipPath id="clip-path-2"><rect class="cls-3" y="2.9" width="13" height="7.2"/></clipPath><filter id="luminosity-invert" filterUnits="userSpaceOnUse" color-interpolation-filters="sRGB"><feColorMatrix values="-1 0 0 0 1 0 -1 0 0 1 0 0 -1 0 1 0 0 0 1 0"/></filter><mask id="mask" x="-0.43" y="2.26" width="13.72" height="8.28" maskUnits="userSpaceOnUse"><g class="cls-1"><polygon class="cls-2" points="3.87 6.34 4.96 8.85 5.42 7.68 4.06 4.21 3.87 6.34"/><polygon class="cls-2" points="7.9 4.21 6.98 6.35 7.21 8.93 8.33 8.93 7.9 4.21"/></g></mask><clipPath id="clip-path-3"><rect class="cls-3" x="-0.43" y="2.26" width="13.72" height="8.28"/></clipPath></defs><title>画板 5 副本</title><g class="cls-4"><polygon class="cls-5" points="1.98 2.26 -0.43 6.42 -0.43 2.26 1.98 2.26"/><polygon class="cls-5" points="2.08 2.26 -0.43 6.59 -0.43 6.42 1.98 2.26 2.08 2.26"/><polygon class="cls-6" points="2.18 2.26 -0.43 6.77 -0.43 6.59 2.08 2.26 2.18 2.26"/><polygon class="cls-7" points="2.28 2.26 -0.43 6.95 -0.43 6.77 2.18 2.26 2.28 2.26"/><polygon class="cls-8" points="2.38 2.26 -0.43 7.13 -0.43 6.95 2.28 2.26 2.38 2.26"/><polygon class="cls-9" points="2.49 2.26 -0.43 7.3 -0.43 7.13 2.38 2.26 2.49 2.26"/><polygon class="cls-10" points="2.59 2.26 -0.43 7.48 -0.43 7.3 2.49 2.26 2.59 2.26"/><polygon class="cls-11" points="2.69 2.26 -0.43 7.66 -0.43 7.48 2.59 2.26 2.69 2.26"/><polygon class="cls-12" points="2.79 2.26 -0.43 7.83 -0.43 7.66 2.69 2.26 2.79 2.26"/><polygon class="cls-13" points="2.9 2.26 -0.43 8.01 -0.43 7.83 2.79 2.26 2.9 2.26"/><polygon class="cls-14" points="3 2.26 -0.43 8.19 -0.43 8.01 2.9 2.26 3 2.26"/><polygon class="cls-15" points="3.1 2.26 -0.43 8.36 -0.43 8.19 3 2.26 3.1 2.26"/><polygon class="cls-16" points="3.2 2.26 -0.43 8.54 -0.43 8.36 3.1 2.26 3.2 2.26"/><polygon class="cls-17" points="3.3 2.26 -0.43 8.72 -0.43 8.54 3.2 2.26 3.3 2.26"/><polygon class="cls-18" points="3.41 2.26 -0.43 8.89 -0.43 8.72 3.3 2.26 3.41 2.26"/><polygon class="cls-19" points="3.51 2.26 -0.43 9.07 -0.43 8.89 3.41 2.26 3.51 2.26"/><polygon class="cls-20" points="3.61 2.26 -0.43 9.25 -0.43 9.07 3.51 2.26 3.61 2.26"/><polygon class="cls-21" points="3.71 2.26 -0.43 9.43 -0.43 9.25 3.61 2.26 3.71 2.26"/><polygon class="cls-22" points="3.81 2.26 -0.43 9.6 -0.43 9.43 3.71 2.26 3.81 2.26"/><polygon class="cls-23" points="3.92 2.26 -0.43 9.78 -0.43 9.6 3.81 2.26 3.92 2.26"/><polygon class="cls-24" points="4.02 2.26 -0.43 9.96 -0.43 9.78 3.92 2.26 4.02 2.26"/><polygon class="cls-25" points="4.12 2.26 -0.43 10.13 -0.43 9.96 4.02 2.26 4.12 2.26"/><polygon class="cls-26" points="4.22 2.26 -0.43 10.31 -0.43 10.13 4.12 2.26 4.22 2.26"/><polygon class="cls-27" points="4.33 2.26 -0.43 10.49 -0.43 10.31 4.22 2.26 4.33 2.26"/><polygon class="cls-28" points="4.43 2.26 -0.35 10.54 -0.43 10.54 -0.43 10.49 4.33 2.26 4.43 2.26"/><polygon class="cls-29" points="4.53 2.26 -0.25 10.54 -0.35 10.54 4.43 2.26 4.53 2.26"/><polygon class="cls-30" points="4.63 2.26 -0.15 10.54 -0.25 10.54 4.53 2.26 4.63 2.26"/><polygon class="cls-31" points="4.73 2.26 -0.05 10.54 -0.15 10.54 4.63 2.26 4.73 2.26"/><polygon class="cls-32" points="4.84 2.26 0.06 10.54 -0.05 10.54 4.73 2.26 4.84 2.26"/><polygon class="cls-33" points="4.94 2.26 0.16 10.54 0.06 10.54 4.84 2.26 4.94 2.26"/><polygon class="cls-34" points="5.04 2.26 0.26 10.54 0.16 10.54 4.94 2.26 5.04 2.26"/><polygon class="cls-35" points="5.14 2.26 0.36 10.54 0.26 10.54 5.04 2.26 5.14 2.26"/><polygon class="cls-36" points="5.25 2.26 0.47 10.54 0.36 10.54 5.14 2.26 5.25 2.26"/><polygon class="cls-37" points="5.35 2.26 0.57 10.54 0.47 10.54 5.25 2.26 5.35 2.26"/><polygon class="cls-38" points="5.45 2.26 0.67 10.54 0.57 10.54 5.35 2.26 5.45 2.26"/><polygon class="cls-39" points="5.55 2.26 0.77 10.54 0.67 10.54 5.45 2.26 5.55 2.26"/><polygon class="cls-40" points="5.65 2.26 0.87 10.54 0.77 10.54 5.55 2.26 5.65 2.26"/><polygon class="cls-41" points="5.76 2.26 0.98 10.54 0.87 10.54 5.65 2.26 5.76 2.26"/><polygon class="cls-42" points="5.86 2.26 1.08 10.54 0.98 10.54 5.76 2.26 5.86 2.26"/><polygon class="cls-43" points="5.96 2.26 1.18 10.54 1.08 10.54 5.86 2.26 5.96 2.26"/><polygon class="cls-44" points="6.06 2.26 1.28 10.54 1.18 10.54 5.96 2.26 6.06 2.26"/><polygon class="cls-45" points="6.17 2.26 1.39 10.54 1.28 10.54 6.06 2.26 6.17 2.26"/><polygon class="cls-46" points="6.27 2.26 1.49 10.54 1.39 10.54 6.17 2.26 6.27 2.26"/><polygon class="cls-47" points="6.37 2.26 1.59 10.54 1.49 10.54 6.27 2.26 6.37 2.26"/><polygon class="cls-48" points="6.47 2.26 1.69 10.54 1.59 10.54 6.37 2.26 6.47 2.26"/><polygon class="cls-49" points="6.57 2.26 1.79 10.54 1.69 10.54 6.47 2.26 6.57 2.26"/><polygon class="cls-50" points="6.67 2.26 1.9 10.54 1.79 10.54 6.57 2.26 6.67 2.26"/><polygon class="cls-51" points="6.78 2.26 2 10.54 1.9 10.54 6.67 2.26 6.78 2.26"/><polygon class="cls-52" points="6.88 2.26 2.1 10.54 2 10.54 6.78 2.26 6.88 2.26"/><polygon class="cls-53" points="6.98 2.26 2.2 10.54 2.1 10.54 6.88 2.26 6.98 2.26"/><polygon class="cls-54" points="7.08 2.26 2.3 10.54 2.2 10.54 6.98 2.26 7.08 2.26"/><polygon class="cls-55" points="7.19 2.26 2.41 10.54 2.3 10.54 7.08 2.26 7.19 2.26"/><polygon class="cls-56" points="7.29 2.26 2.51 10.54 2.41 10.54 7.19 2.26 7.29 2.26"/><polygon class="cls-57" points="7.39 2.26 2.61 10.54 2.51 10.54 7.29 2.26 7.39 2.26"/><polygon class="cls-58" points="7.49 2.26 2.71 10.54 2.61 10.54 7.39 2.26 7.49 2.26"/><polygon class="cls-59" points="7.59 2.26 2.81 10.54 2.71 10.54 7.49 2.26 7.59 2.26"/><polygon class="cls-60" points="7.7 2.26 2.92 10.54 2.81 10.54 7.59 2.26 7.7 2.26"/><polygon class="cls-61" points="7.8 2.26 3.02 10.54 2.92 10.54 7.7 2.26 7.8 2.26"/><polygon class="cls-62" points="7.9 2.26 3.12 10.54 3.02 10.54 7.8 2.26 7.9 2.26"/><polygon class="cls-63" points="8 2.26 3.22 10.54 3.12 10.54 7.9 2.26 8 2.26"/><polygon class="cls-64" points="8.11 2.26 3.33 10.54 3.22 10.54 8 2.26 8.11 2.26"/><polygon class="cls-65" points="8.21 2.26 3.43 10.54 3.33 10.54 8.11 2.26 8.21 2.26"/><polygon class="cls-66" points="8.31 2.26 3.53 10.54 3.43 10.54 8.21 2.26 8.31 2.26"/><polygon class="cls-67" points="8.41 2.26 3.63 10.54 3.53 10.54 8.31 2.26 8.41 2.26"/><polygon class="cls-68" points="8.51 2.26 3.73 10.54 3.63 10.54 8.41 2.26 8.51 2.26"/><polygon class="cls-69" points="8.62 2.26 3.84 10.54 3.73 10.54 8.51 2.26 8.62 2.26"/><polygon class="cls-70" points="8.72 2.26 3.94 10.54 3.84 10.54 8.62 2.26 8.72 2.26"/><polygon class="cls-71" points="8.82 2.26 4.04 10.54 3.94 10.54 8.72 2.26 8.82 2.26"/><polygon class="cls-72" points="8.92 2.26 4.14 10.54 4.04 10.54 8.82 2.26 8.92 2.26"/><polygon class="cls-73" points="9.03 2.26 4.25 10.54 4.14 10.54 8.92 2.26 9.03 2.26"/><polygon class="cls-74" points="9.13 2.26 4.35 10.54 4.25 10.54 9.03 2.26 9.13 2.26"/><polygon class="cls-75" points="9.23 2.26 4.45 10.54 4.35 10.54 9.13 2.26 9.23 2.26"/><polygon class="cls-76" points="9.33 2.26 4.55 10.54 4.45 10.54 9.23 2.26 9.33 2.26"/><polygon class="cls-77" points="9.43 2.26 4.65 10.54 4.55 10.54 9.33 2.26 9.43 2.26"/><polygon class="cls-78" points="9.54 2.26 4.76 10.54 4.65 10.54 9.43 2.26 9.54 2.26"/><polygon class="cls-79" points="9.64 2.26 4.86 10.54 4.76 10.54 9.54 2.26 9.64 2.26"/><polygon class="cls-80" points="9.74 2.26 4.96 10.54 4.86 10.54 9.64 2.26 9.74 2.26"/><polygon class="cls-81" points="9.84 2.26 5.06 10.54 4.96 10.54 9.74 2.26 9.84 2.26"/><polygon class="cls-82" points="9.94 2.26 5.16 10.54 5.06 10.54 9.84 2.26 9.94 2.26"/><polygon class="cls-83" points="10.05 2.26 5.27 10.54 5.16 10.54 9.94 2.26 10.05 2.26"/><polygon class="cls-84" points="10.15 2.26 5.37 10.54 5.27 10.54 10.05 2.26 10.15 2.26"/><polygon class="cls-85" points="10.25 2.26 5.47 10.54 5.37 10.54 10.15 2.26 10.25 2.26"/><polygon class="cls-86" points="10.35 2.26 5.57 10.54 5.47 10.54 10.25 2.26 10.35 2.26"/><polygon class="cls-87" points="10.46 2.26 5.67 10.54 5.57 10.54 10.35 2.26 10.46 2.26"/><polygon class="cls-88" points="10.56 2.26 5.78 10.54 5.67 10.54 10.46 2.26 10.56 2.26"/><polygon class="cls-89" points="10.66 2.26 5.88 10.54 5.78 10.54 10.56 2.26 10.66 2.26"/><polygon class="cls-90" points="10.76 2.26 5.98 10.54 5.88 10.54 10.66 2.26 10.76 2.26"/><polygon class="cls-91" points="10.86 2.26 6.08 10.54 5.98 10.54 10.76 2.26 10.86 2.26"/><polygon class="cls-92" points="10.97 2.26 6.19 10.54 6.08 10.54 10.86 2.26 10.97 2.26"/><polygon class="cls-93" points="11.07 2.26 6.29 10.54 6.19 10.54 10.97 2.26 11.07 2.26"/><polygon class="cls-94" points="11.17 2.26 6.39 10.54 6.29 10.54 11.07 2.26 11.17 2.26"/><polygon class="cls-95" points="11.27 2.26 6.49 10.54 6.39 10.54 11.17 2.26 11.27 2.26"/><polygon class="cls-96" points="11.38 2.26 6.59 10.54 6.49 10.54 11.27 2.26 11.38 2.26"/><polygon class="cls-97" points="11.48 2.26 6.7 10.54 6.59 10.54 11.38 2.26 11.48 2.26"/><polygon class="cls-98" points="11.58 2.26 6.8 10.54 6.7 10.54 11.48 2.26 11.58 2.26"/><polygon class="cls-99" points="11.68 2.26 6.9 10.54 6.8 10.54 11.58 2.26 11.68 2.26"/><polygon class="cls-100" points="11.78 2.26 7 10.54 6.9 10.54 11.68 2.26 11.78 2.26"/><polygon class="cls-101" points="11.88 2.26 7.11 10.54 7 10.54 11.78 2.26 11.88 2.26"/><polygon class="cls-102" points="11.99 2.26 7.21 10.54 7.11 10.54 11.88 2.26 11.99 2.26"/><polygon class="cls-103" points="12.09 2.26 7.31 10.54 7.21 10.54 11.99 2.26 12.09 2.26"/><polygon class="cls-104" points="12.19 2.26 7.41 10.54 7.31 10.54 12.09 2.26 12.19 2.26"/><polygon class="cls-105" points="12.29 2.26 7.51 10.54 7.41 10.54 12.19 2.26 12.29 2.26"/><polygon class="cls-106" points="12.4 2.26 7.62 10.54 7.51 10.54 12.29 2.26 12.4 2.26"/><polygon class="cls-107" points="12.5 2.26 7.72 10.54 7.62 10.54 12.4 2.26 12.5 2.26"/><polygon class="cls-108" points="12.6 2.26 7.82 10.54 7.72 10.54 12.5 2.26 12.6 2.26"/><polygon class="cls-109" points="12.7 2.26 7.92 10.54 7.82 10.54 12.6 2.26 12.7 2.26"/><polygon class="cls-110" points="12.8 2.26 8.03 10.54 7.92 10.54 12.7 2.26 12.8 2.26"/><polygon class="cls-111" points="12.91 2.26 8.13 10.54 8.03 10.54 12.8 2.26 12.91 2.26"/><polygon class="cls-111" points="8.13 10.54 12.91 2.26 13.29 2.26 13.29 10.54 8.13 10.54"/></g><g class="cls-112"><g class="cls-113"><g class="cls-114"><g class="cls-115"><g class="cls-115"><rect class="cls-116" x="-0.1" y="2.26" width="0.23" height="8.28"/><rect class="cls-117" x="0.13" y="2.26" width="0.23" height="8.28"/><rect class="cls-118" x="0.36" y="2.26" width="0.23" height="8.28"/><rect class="cls-119" x="0.59" y="2.26" width="0.23" height="8.28"/><rect class="cls-120" x="0.81" y="2.26" width="0.23" height="8.28"/><rect class="cls-121" x="1.04" y="2.26" width="0.23" height="8.28"/><rect class="cls-122" x="1.27" y="2.26" width="0.23" height="8.28"/><rect class="cls-123" x="1.5" y="2.26" width="0.23" height="8.28"/><rect class="cls-124" x="1.72" y="2.26" width="0.23" height="8.28"/><rect class="cls-125" x="1.95" y="2.26" width="0.23" height="8.28"/><rect class="cls-126" x="2.18" y="2.26" width="0.23" height="8.28"/><rect class="cls-127" x="2.41" y="2.26" width="0.23" height="8.28"/><rect class="cls-128" x="2.63" y="2.26" width="0.23" height="8.28"/><rect class="cls-129" x="2.86" y="2.26" width="0.23" height="8.28"/><rect class="cls-130" x="3.09" y="2.26" width="0.23" height="8.28"/><rect class="cls-131" x="3.32" y="2.26" width="0.23" height="8.28"/><rect class="cls-132" x="3.54" y="2.26" width="0.23" height="8.28"/><rect class="cls-133" x="3.77" y="2.26" width="0.23" height="8.28"/><rect class="cls-134" x="4" y="2.26" width="0.23" height="8.28"/><rect class="cls-135" x="4.23" y="2.26" width="0.23" height="8.28"/><rect class="cls-136" x="4.45" y="2.26" width="0.23" height="8.28"/><rect class="cls-137" x="4.68" y="2.26" width="0.23" height="8.28"/><rect class="cls-138" x="4.91" y="2.26" width="0.23" height="8.28"/><rect class="cls-139" x="5.14" y="2.26" width="0.23" height="8.28"/><rect class="cls-140" x="5.36" y="2.26" width="0.23" height="8.28"/><rect class="cls-141" x="5.59" y="2.26" width="0.23" height="8.28"/><rect class="cls-142" x="5.82" y="2.26" width="0.23" height="8.28"/><rect class="cls-143" x="6.05" y="2.26" width="0.23" height="8.28"/><rect class="cls-144" x="6.27" y="2.26" width="0.23" height="8.28"/><rect class="cls-145" x="6.5" y="2.26" width="0.23" height="8.28"/><rect class="cls-146" x="6.73" y="2.26" width="0.23" height="8.28"/><rect class="cls-147" x="6.96" y="2.26" width="0.23" height="8.28"/><rect class="cls-148" x="7.18" y="2.26" width="0.23" height="8.28"/><rect class="cls-149" x="7.41" y="2.26" width="0.23" height="8.28"/><rect class="cls-150" x="7.64" y="2.26" width="0.23" height="8.28"/><rect class="cls-151" x="7.87" y="2.26" width="0.23" height="8.28"/><rect class="cls-152" x="8.09" y="2.26" width="0.23" height="8.28"/><rect class="cls-153" x="8.32" y="2.26" width="0.23" height="8.28"/><rect class="cls-154" x="8.55" y="2.26" width="0.23" height="8.28"/><rect class="cls-155" x="8.78" y="2.26" width="0.23" height="8.28"/><rect class="cls-156" x="9" y="2.26" width="0.23" height="8.28"/><rect class="cls-157" x="9.23" y="2.26" width="0.23" height="8.28"/><rect class="cls-158" x="9.46" y="2.26" width="0.23" height="8.28"/><rect class="cls-159" x="9.69" y="2.26" width="0.23" height="8.28"/><rect class="cls-160" x="9.91" y="2.26" width="0.23" height="8.28"/><rect class="cls-161" x="10.14" y="2.26" width="0.23" height="8.28"/><rect class="cls-162" x="10.37" y="2.26" width="0.23" height="8.28"/><rect class="cls-163" x="10.6" y="2.26" width="0.23" height="8.28"/><rect class="cls-164" x="10.83" y="2.26" width="0.23" height="8.28"/><rect class="cls-165" x="11.05" y="2.26" width="0.23" height="8.28"/><rect class="cls-166" x="11.28" y="2.26" width="0.23" height="8.28"/><rect class="cls-167" x="11.51" y="2.26" width="0.23" height="8.28"/><rect class="cls-168" x="11.74" y="2.26" width="0.23" height="8.28"/><rect class="cls-169" x="11.96" y="2.26" width="0.23" height="8.28"/><rect class="cls-170" x="12.19" y="2.26" width="0.23" height="8.28"/><rect class="cls-171" x="12.42" y="2.26" width="0.23" height="8.28"/><rect class="cls-172" x="12.65" y="2.26" width="0.23" height="8.28"/><rect class="cls-173" x="12.87" y="2.26" width="0.23" height="8.28"/></g></g></g></g></g></svg>