<svg id="图层_1" data-name="图层 1" xmlns="http://www.w3.org/2000/svg" xmlns:xlink="http://www.w3.org/1999/xlink" viewBox="0 0 40 40"><defs><style>.cls-1{isolation:isolate;filter:url(#luminosity-invert);}.cls-2{fill:#020202;}.cls-3{fill:none;}.cls-4{clip-path:url(#clip-path);}.cls-5{fill:#8ff4ff;}.cls-6{fill:#8ff3ff;}.cls-7{fill:#8ef2ff;}.cls-8{fill:#8ef1ff;}.cls-9{fill:#8df0ff;}.cls-10{fill:#8defff;}.cls-11{fill:#8ceeff;}.cls-12{fill:#8cedff;}.cls-13{fill:#8cecff;}.cls-14{fill:#8bebff;}.cls-15{fill:#8beaff;}.cls-16{fill:#8ae9ff;}.cls-17{fill:#8ae8ff;}.cls-18{fill:#89e7ff;}.cls-19{fill:#89e6ff;}.cls-20{fill:#88e5ff;}.cls-21{fill:#88e4ff;}.cls-22{fill:#88e3ff;}.cls-23{fill:#87e2ff;}.cls-24{fill:#87e1ff;}.cls-25{fill:#86e0ff;}.cls-26{fill:#86dfff;}.cls-27{fill:#85deff;}.cls-28{fill:#85ddff;}.cls-29{fill:#85dcff;}.cls-30{fill:#84dbff;}.cls-31{fill:#84daff;}.cls-32{fill:#83d9ff;}.cls-33{fill:#83d8ff;}.cls-34{fill:#82d7ff;}.cls-35{fill:#82d6ff;}.cls-36{fill:#82d5ff;}.cls-37{fill:#81d4ff;}.cls-38{fill:#81d3ff;}.cls-39{fill:#80d2ff;}.cls-40{fill:#80d1ff;}.cls-41{fill:#7fd0ff;}.cls-42{fill:#7fcfff;}.cls-43{fill:#7fceff;}.cls-44{fill:#7ecdff;}.cls-45{fill:#7eccff;}.cls-46{fill:#7dcbff;}.cls-47{fill:#7dcaff;}.cls-48{fill:#7cc9ff;}.cls-49{fill:#7cc8ff;}.cls-50{fill:#7bc7ff;}.cls-51{fill:#7bc6ff;}.cls-52{fill:#7bc5ff;}.cls-53{fill:#7ac4ff;}.cls-54{fill:#7ac3ff;}.cls-55{fill:#79c2ff;}.cls-56{fill:#79c1ff;}.cls-57{fill:#78c0ff;}.cls-58{fill:#78beff;}.cls-59{fill:#78bdff;}.cls-60{fill:#77bcff;}.cls-61{fill:#7bf;}.cls-62{fill:#76baff;}.cls-63{fill:#76b9ff;}.cls-64{fill:#75b8ff;}.cls-65{fill:#75b7ff;}.cls-66{fill:#75b6ff;}.cls-67{fill:#74b5ff;}.cls-68{fill:#74b4ff;}.cls-69{fill:#73b3ff;}.cls-70{fill:#73b2ff;}.cls-71{fill:#72b1ff;}.cls-72{fill:#72b0ff;}.cls-73{fill:#71afff;}.cls-74{fill:#71aeff;}.cls-75{fill:#71adff;}.cls-76{fill:#70acff;}.cls-77{fill:#70abff;}.cls-78{fill:#6faaff;}.cls-79{fill:#6fa9ff;}.cls-80{fill:#6ea8ff;}.cls-81{fill:#6ea7ff;}.cls-82{fill:#6ea6ff;}.cls-83{fill:#6da5ff;}.cls-84{fill:#6da4ff;}.cls-85{fill:#6ca3ff;}.cls-86{fill:#6ca2ff;}.cls-87{fill:#6ba1ff;}.cls-88{fill:#6ba0ff;}.cls-89{fill:#6b9fff;}.cls-90{fill:#6a9eff;}.cls-91{fill:#6a9dff;}.cls-92{fill:#699cff;}.cls-93{fill:#699bff;}.cls-94{fill:#689aff;}.cls-95{fill:#6899ff;}.cls-96{fill:#6898ff;}.cls-97{fill:#6797ff;}.cls-98{fill:#6796ff;}.cls-99{fill:#6695ff;}.cls-100{fill:#6694ff;}.cls-101{fill:#6593ff;}.cls-102{fill:#6592ff;}.cls-103{fill:#6491ff;}.cls-104{fill:#6490ff;}.cls-105{fill:#648fff;}.cls-106{fill:#638eff;}.cls-107{fill:#638dff;}.cls-108{fill:#628cff;}.cls-109{fill:#628bff;}.cls-110{fill:#618aff;}.cls-111{fill:#6189ff;}.cls-112{clip-path:url(#clip-path-2);}.cls-113{mask:url(#mask);}.cls-114{opacity:0.5;}.cls-115{clip-path:url(#clip-path-3);}.cls-116{clip-path:url(#clip-path-4);}.cls-117{fill:#31c5bc;}.cls-118{fill:#31c4bd;}.cls-119{fill:#31c3bd;}.cls-120{fill:#32c2be;}.cls-121{fill:#32c1be;}.cls-122{fill:#32c0be;}.cls-123{fill:#32bfbf;}.cls-124{fill:#33bebf;}.cls-125{fill:#33bdc0;}.cls-126{fill:#33bcc0;}.cls-127{fill:#33bbc1;}.cls-128{fill:#34bac1;}.cls-129{fill:#34b9c2;}.cls-130{fill:#34b8c2;}.cls-131{fill:#34b7c3;}.cls-132{fill:#35b6c3;}.cls-133{fill:#35b5c3;}.cls-134{fill:#35b4c4;}.cls-135{fill:#35b3c4;}.cls-136{fill:#36b2c5;}.cls-137{fill:#36b1c5;}.cls-138{fill:#36b0c6;}.cls-139{fill:#36afc6;}.cls-140{fill:#37aec7;}.cls-141{fill:#37adc7;}.cls-142{fill:#37acc8;}.cls-143{fill:#38abc8;}.cls-144{fill:#38aac8;}.cls-145{fill:#38a9c9;}.cls-146{fill:#38a8c9;}.cls-147{fill:#39a7ca;}.cls-148{fill:#39a6ca;}.cls-149{fill:#39a5cb;}.cls-150{fill:#39a4cb;}.cls-151{fill:#3aa3cc;}.cls-152{fill:#3aa2cc;}.cls-153{fill:#3aa1cd;}.cls-154{fill:#3aa0cd;}.cls-155{fill:#3b9fcd;}.cls-156{fill:#3b9ece;}.cls-157{fill:#3b9dce;}.cls-158{fill:#3b9ccf;}.cls-159{fill:#3c9acf;}.cls-160{fill:#3c99d0;}.cls-161{fill:#3c98d0;}.cls-162{fill:#3c97d1;}.cls-163{fill:#3d96d1;}.cls-164{fill:#3d95d1;}.cls-165{fill:#3d94d2;}.cls-166{fill:#3d93d2;}.cls-167{fill:#3e92d3;}.cls-168{fill:#3e91d3;}.cls-169{fill:#3e90d4;}.cls-170{fill:#3e8fd4;}.cls-171{fill:#3f8ed5;}.cls-172{fill:#3f8dd5;}.cls-173{fill:#3f8cd6;}.cls-174{fill:#3f8bd6;}.cls-175{fill:#408ad6;}.cls-176{fill:#4089d7;}.cls-177{fill:#4088d7;}</style><clipPath id="clip-path"><path class="cls-3" d="M23.89,13.66H20.8L17,23.25l-3.78-9.59H10.15L9,26.74h3.09l.65-7.19,3,7H18.3l3-7L22,26.74h3.09L23.89,13.66ZM2,11.59H2V29.94H7.12V27.88H4.05V13.63H7.12v-2H2Zm24.92,0h0v2H30V27.88H26.92v2.06H32V11.6H26.92Zm6.95.19a1.82,1.82,0,0,0,1.36,1.6c.54.22,1,.35,1,.63s-.15.32-.54.32a2.31,2.31,0,0,1-1.32-.54l-.82,1.15a3.61,3.61,0,0,0,2.1.76c1.51,0,2.32-.78,2.32-1.8a1.74,1.74,0,0,0-1.38-1.62c-.54-.19-1-.3-1-.58s.16-.3.48-.3a2,2,0,0,1,1.1.45l.82-1.1A3.2,3.2,0,0,0,36,10c-1.28,0-2.14.69-2.14,1.75"/></clipPath><clipPath id="clip-path-2"><rect class="cls-3" x="2" y="10.03" width="36" height="19.95"/></clipPath><filter id="luminosity-invert" filterUnits="userSpaceOnUse" color-interpolation-filters="sRGB"><feColorMatrix values="-1 0 0 0 1 0 -1 0 0 1 0 0 -1 0 1 0 0 0 1 0"/></filter><mask id="mask" x="0.81" y="8.25" width="37.99" height="22.93" maskUnits="userSpaceOnUse"><g class="cls-1"><polygon class="cls-2" points="12.7 19.55 15.73 26.51 17.01 23.26 13.23 13.66 12.7 19.55"/><polygon class="cls-2" points="23.88 13.66 21.32 19.58 21.97 26.74 25.06 26.74 23.88 13.66"/></g></mask><clipPath id="clip-path-3"><rect class="cls-3" x="0.81" y="8.25" width="37.99" height="22.93"/></clipPath><clipPath id="clip-path-4"><rect class="cls-3" x="0.81" y="8.25" width="37.99" height="22.93"/></clipPath></defs><title>画板 3</title><g class="cls-4"><polygon class="cls-5" points="7.47 8.25 0.82 19.77 0.82 8.25 7.47 8.25"/><polygon class="cls-5" points="7.75 8.25 0.82 20.26 0.82 19.77 7.47 8.25 7.75 8.25"/><polygon class="cls-6" points="8.04 8.25 0.82 20.75 0.82 20.26 7.75 8.25 8.04 8.25"/><polygon class="cls-7" points="8.32 8.25 0.82 21.24 0.82 20.75 8.04 8.25 8.32 8.25"/><polygon class="cls-8" points="8.6 8.25 0.82 21.73 0.82 21.24 8.32 8.25 8.6 8.25"/><polygon class="cls-9" points="8.89 8.25 0.82 22.22 0.82 21.73 8.6 8.25 8.89 8.25"/><polygon class="cls-10" points="9.17 8.25 0.82 22.71 0.82 22.22 8.89 8.25 9.17 8.25"/><polygon class="cls-11" points="9.45 8.25 0.82 23.2 0.82 22.71 9.17 8.25 9.45 8.25"/><polygon class="cls-12" points="9.73 8.25 0.82 23.69 0.82 23.2 9.45 8.25 9.73 8.25"/><polygon class="cls-13" points="10.02 8.25 0.82 24.18 0.82 23.69 9.73 8.25 10.02 8.25"/><polygon class="cls-14" points="10.3 8.25 0.82 24.67 0.82 24.18 10.02 8.25 10.3 8.25"/><polygon class="cls-15" points="10.58 8.25 0.82 25.16 0.82 24.67 10.3 8.25 10.58 8.25"/><polygon class="cls-16" points="10.87 8.25 0.82 25.65 0.82 25.16 10.58 8.25 10.87 8.25"/><polygon class="cls-17" points="11.15 8.25 0.82 26.14 0.82 25.65 10.87 8.25 11.15 8.25"/><polygon class="cls-18" points="11.43 8.25 0.82 26.63 0.82 26.14 11.15 8.25 11.43 8.25"/><polygon class="cls-19" points="11.72 8.25 0.82 27.12 0.82 26.63 11.43 8.25 11.72 8.25"/><polygon class="cls-20" points="12 8.25 0.82 27.61 0.82 27.12 11.72 8.25 12 8.25"/><polygon class="cls-21" points="12.28 8.25 0.82 28.1 0.82 27.61 12 8.25 12.28 8.25"/><polygon class="cls-22" points="12.56 8.25 0.82 28.59 0.82 28.1 12.28 8.25 12.56 8.25"/><polygon class="cls-23" points="12.85 8.25 0.82 29.08 0.82 28.59 12.56 8.25 12.85 8.25"/><polygon class="cls-24" points="13.13 8.25 0.82 29.57 0.82 29.08 12.85 8.25 13.13 8.25"/><polygon class="cls-25" points="13.41 8.25 0.82 30.06 0.82 29.57 13.13 8.25 13.41 8.25"/><polygon class="cls-26" points="13.7 8.25 0.82 30.55 0.82 30.06 13.41 8.25 13.7 8.25"/><polygon class="cls-27" points="13.98 8.25 0.82 31.04 0.82 30.55 13.7 8.25 13.98 8.25"/><polygon class="cls-28" points="14.26 8.25 1.02 31.17 0.82 31.17 0.82 31.04 13.98 8.25 14.26 8.25"/><polygon class="cls-29" points="14.54 8.25 1.31 31.17 1.02 31.17 14.26 8.25 14.54 8.25"/><polygon class="cls-30" points="14.83 8.25 1.59 31.17 1.31 31.17 14.54 8.25 14.83 8.25"/><polygon class="cls-31" points="15.11 8.25 1.87 31.17 1.59 31.17 14.83 8.25 15.11 8.25"/><polygon class="cls-32" points="15.39 8.25 2.16 31.17 1.87 31.17 15.11 8.25 15.39 8.25"/><polygon class="cls-33" points="15.68 8.25 2.44 31.17 2.16 31.17 15.39 8.25 15.68 8.25"/><polygon class="cls-34" points="15.96 8.25 2.72 31.17 2.44 31.17 15.68 8.25 15.96 8.25"/><polygon class="cls-35" points="16.24 8.25 3 31.17 2.72 31.17 15.96 8.25 16.24 8.25"/><polygon class="cls-36" points="16.52 8.25 3.29 31.17 3 31.17 16.24 8.25 16.52 8.25"/><polygon class="cls-37" points="16.81 8.25 3.57 31.17 3.29 31.17 16.52 8.25 16.81 8.25"/><polygon class="cls-38" points="17.09 8.25 3.85 31.17 3.57 31.17 16.81 8.25 17.09 8.25"/><polygon class="cls-39" points="17.37 8.25 4.14 31.17 3.85 31.17 17.09 8.25 17.37 8.25"/><polygon class="cls-40" points="17.66 8.25 4.42 31.17 4.14 31.17 17.37 8.25 17.66 8.25"/><polygon class="cls-41" points="17.94 8.25 4.7 31.17 4.42 31.17 17.66 8.25 17.94 8.25"/><polygon class="cls-42" points="18.22 8.25 4.99 31.17 4.7 31.17 17.94 8.25 18.22 8.25"/><polygon class="cls-43" points="18.5 8.25 5.27 31.17 4.99 31.17 18.22 8.25 18.5 8.25"/><polygon class="cls-44" points="18.79 8.25 5.55 31.17 5.27 31.17 18.5 8.25 18.79 8.25"/><polygon class="cls-45" points="19.07 8.25 5.83 31.17 5.55 31.17 18.79 8.25 19.07 8.25"/><polygon class="cls-46" points="19.35 8.25 6.12 31.17 5.83 31.17 19.07 8.25 19.35 8.25"/><polygon class="cls-47" points="19.64 8.25 6.4 31.17 6.12 31.17 19.35 8.25 19.64 8.25"/><polygon class="cls-48" points="19.92 8.25 6.68 31.17 6.4 31.17 19.64 8.25 19.92 8.25"/><polygon class="cls-49" points="20.2 8.25 6.97 31.17 6.68 31.17 19.92 8.25 20.2 8.25"/><polygon class="cls-50" points="20.49 8.25 7.25 31.17 6.97 31.17 20.2 8.25 20.49 8.25"/><polygon class="cls-51" points="20.77 8.25 7.53 31.17 7.25 31.17 20.49 8.25 20.77 8.25"/><polygon class="cls-52" points="21.05 8.25 7.81 31.17 7.53 31.17 20.77 8.25 21.05 8.25"/><polygon class="cls-53" points="21.33 8.25 8.1 31.17 7.81 31.17 21.05 8.25 21.33 8.25"/><polygon class="cls-54" points="21.62 8.25 8.38 31.17 8.1 31.17 21.33 8.25 21.62 8.25"/><polygon class="cls-55" points="21.9 8.25 8.66 31.17 8.38 31.17 21.62 8.25 21.9 8.25"/><polygon class="cls-56" points="22.18 8.25 8.95 31.17 8.66 31.17 21.9 8.25 22.18 8.25"/><polygon class="cls-57" points="22.47 8.25 9.23 31.17 8.95 31.17 22.18 8.25 22.47 8.25"/><polygon class="cls-58" points="22.75 8.25 9.51 31.17 9.23 31.17 22.47 8.25 22.75 8.25"/><polygon class="cls-59" points="23.03 8.25 9.79 31.17 9.51 31.17 22.75 8.25 23.03 8.25"/><polygon class="cls-60" points="23.32 8.25 10.08 31.17 9.79 31.17 23.03 8.25 23.32 8.25"/><polygon class="cls-61" points="23.6 8.25 10.36 31.17 10.08 31.17 23.31 8.25 23.6 8.25"/><polygon class="cls-62" points="23.88 8.25 10.64 31.17 10.36 31.17 23.6 8.25 23.88 8.25"/><polygon class="cls-63" points="24.16 8.25 10.93 31.17 10.64 31.17 23.88 8.25 24.16 8.25"/><polygon class="cls-64" points="24.45 8.25 11.21 31.17 10.93 31.17 24.16 8.25 24.45 8.25"/><polygon class="cls-65" points="24.73 8.25 11.49 31.17 11.21 31.17 24.45 8.25 24.73 8.25"/><polygon class="cls-66" points="25.01 8.25 11.78 31.17 11.49 31.17 24.73 8.25 25.01 8.25"/><polygon class="cls-67" points="25.3 8.25 12.06 31.17 11.78 31.17 25.01 8.25 25.3 8.25"/><polygon class="cls-68" points="25.58 8.25 12.34 31.17 12.06 31.17 25.3 8.25 25.58 8.25"/><polygon class="cls-69" points="25.86 8.25 12.62 31.17 12.34 31.17 25.58 8.25 25.86 8.25"/><polygon class="cls-70" points="26.14 8.25 12.91 31.17 12.62 31.17 25.86 8.25 26.14 8.25"/><polygon class="cls-71" points="26.43 8.25 13.19 31.17 12.91 31.17 26.14 8.25 26.43 8.25"/><polygon class="cls-72" points="26.71 8.25 13.47 31.17 13.19 31.17 26.43 8.25 26.71 8.25"/><polygon class="cls-73" points="26.99 8.25 13.76 31.17 13.47 31.17 26.71 8.25 26.99 8.25"/><polygon class="cls-74" points="27.27 8.25 14.04 31.17 13.76 31.17 26.99 8.25 27.27 8.25"/><polygon class="cls-75" points="27.56 8.25 14.32 31.17 14.04 31.17 27.27 8.25 27.56 8.25"/><polygon class="cls-76" points="27.84 8.25 14.6 31.17 14.32 31.17 27.56 8.25 27.84 8.25"/><polygon class="cls-77" points="28.12 8.25 14.89 31.17 14.6 31.17 27.84 8.25 28.12 8.25"/><polygon class="cls-78" points="28.41 8.25 15.17 31.17 14.89 31.17 28.12 8.25 28.41 8.25"/><polygon class="cls-79" points="28.69 8.25 15.45 31.17 15.17 31.17 28.41 8.25 28.69 8.25"/><polygon class="cls-80" points="28.97 8.25 15.74 31.17 15.45 31.17 28.69 8.25 28.97 8.25"/><polygon class="cls-81" points="29.25 8.25 16.02 31.17 15.74 31.17 28.97 8.25 29.25 8.25"/><polygon class="cls-82" points="29.54 8.25 16.3 31.17 16.02 31.17 29.25 8.25 29.54 8.25"/><polygon class="cls-83" points="29.82 8.25 16.58 31.17 16.3 31.17 29.54 8.25 29.82 8.25"/><polygon class="cls-84" points="30.1 8.25 16.87 31.17 16.58 31.17 29.82 8.25 30.1 8.25"/><polygon class="cls-85" points="30.39 8.25 17.15 31.17 16.87 31.17 30.1 8.25 30.39 8.25"/><polygon class="cls-86" points="30.67 8.25 17.43 31.17 17.15 31.17 30.39 8.25 30.67 8.25"/><polygon class="cls-87" points="30.95 8.25 17.72 31.17 17.43 31.17 30.67 8.25 30.95 8.25"/><polygon class="cls-88" points="31.24 8.25 18 31.17 17.72 31.17 30.95 8.25 31.24 8.25"/><polygon class="cls-89" points="31.52 8.25 18.28 31.17 18 31.17 31.24 8.25 31.52 8.25"/><polygon class="cls-90" points="31.8 8.25 18.57 31.17 18.28 31.17 31.52 8.25 31.8 8.25"/><polygon class="cls-91" points="32.08 8.25 18.85 31.17 18.57 31.17 31.8 8.25 32.08 8.25"/><polygon class="cls-92" points="32.37 8.25 19.13 31.17 18.85 31.17 32.08 8.25 32.37 8.25"/><polygon class="cls-93" points="32.65 8.25 19.41 31.17 19.13 31.17 32.37 8.25 32.65 8.25"/><polygon class="cls-94" points="32.93 8.25 19.7 31.17 19.41 31.17 32.65 8.25 32.93 8.25"/><polygon class="cls-95" points="33.22 8.25 19.98 31.17 19.7 31.17 32.93 8.25 33.22 8.25"/><polygon class="cls-96" points="33.5 8.25 20.26 31.17 19.98 31.17 33.22 8.25 33.5 8.25"/><polygon class="cls-97" points="33.78 8.25 20.55 31.17 20.26 31.17 33.5 8.25 33.78 8.25"/><polygon class="cls-98" points="34.06 8.25 20.83 31.17 20.55 31.17 33.78 8.25 34.06 8.25"/><polygon class="cls-99" points="34.35 8.25 21.11 31.17 20.83 31.17 34.06 8.25 34.35 8.25"/><polygon class="cls-100" points="34.63 8.25 21.39 31.17 21.11 31.17 34.35 8.25 34.63 8.25"/><polygon class="cls-101" points="34.91 8.25 21.68 31.17 21.39 31.17 34.63 8.25 34.91 8.25"/><polygon class="cls-102" points="35.2 8.25 21.96 31.17 21.68 31.17 34.91 8.25 35.2 8.25"/><polygon class="cls-103" points="35.48 8.25 22.24 31.17 21.96 31.17 35.2 8.25 35.48 8.25"/><polygon class="cls-104" points="35.76 8.25 22.52 31.17 22.24 31.17 35.48 8.25 35.76 8.25"/><polygon class="cls-105" points="36.05 8.25 22.81 31.17 22.52 31.17 35.76 8.25 36.05 8.25"/><polygon class="cls-106" points="36.33 8.25 23.09 31.17 22.81 31.17 36.05 8.25 36.33 8.25"/><polygon class="cls-107" points="36.61 8.25 23.37 31.17 23.09 31.17 36.33 8.25 36.61 8.25"/><polygon class="cls-108" points="36.89 8.25 23.66 31.17 23.37 31.17 36.61 8.25 36.89 8.25"/><polygon class="cls-109" points="37.18 8.25 23.94 31.17 23.66 31.17 36.89 8.25 37.18 8.25"/><polygon class="cls-110" points="37.46 8.25 24.22 31.17 23.94 31.17 37.18 8.25 37.46 8.25"/><polygon class="cls-111" points="37.74 8.25 24.51 31.17 24.22 31.17 37.46 8.25 37.74 8.25"/><polygon class="cls-111" points="24.51 31.17 37.74 8.25 38.81 8.25 38.81 31.17 24.51 31.17"/></g><g class="cls-112"><g class="cls-113"><g class="cls-114"><g class="cls-115"><g class="cls-116"><rect class="cls-117" x="0.81" y="8.25" width="0.3" height="22.93"/><rect class="cls-118" x="1.1" y="8.25" width="0.63" height="22.93"/><rect class="cls-119" x="1.73" y="8.25" width="0.63" height="22.93"/><rect class="cls-120" x="2.36" y="8.25" width="0.63" height="22.93"/><rect class="cls-121" x="2.99" y="8.25" width="0.63" height="22.93"/><rect class="cls-122" x="3.62" y="8.25" width="0.63" height="22.93"/><rect class="cls-123" x="4.25" y="8.25" width="0.63" height="22.93"/><rect class="cls-124" x="4.88" y="8.25" width="0.63" height="22.93"/><rect class="cls-125" x="5.51" y="8.25" width="0.63" height="22.93"/><rect class="cls-126" x="6.14" y="8.25" width="0.63" height="22.93"/><rect class="cls-127" x="6.77" y="8.25" width="0.63" height="22.93"/><rect class="cls-128" x="7.4" y="8.25" width="0.63" height="22.93"/><rect class="cls-129" x="8.03" y="8.25" width="0.63" height="22.93"/><rect class="cls-130" x="8.67" y="8.25" width="0.63" height="22.93"/><rect class="cls-131" x="9.3" y="8.25" width="0.63" height="22.93"/><rect class="cls-132" x="9.93" y="8.25" width="0.63" height="22.93"/><rect class="cls-133" x="10.56" y="8.25" width="0.63" height="22.93"/><rect class="cls-134" x="11.19" y="8.25" width="0.63" height="22.93"/><rect class="cls-135" x="11.82" y="8.25" width="0.63" height="22.93"/><rect class="cls-136" x="12.45" y="8.25" width="0.63" height="22.93"/><rect class="cls-137" x="13.08" y="8.25" width="0.63" height="22.93"/><rect class="cls-138" x="13.71" y="8.25" width="0.63" height="22.93"/><rect class="cls-139" x="14.34" y="8.25" width="0.63" height="22.93"/><rect class="cls-140" x="14.97" y="8.25" width="0.63" height="22.93"/><rect class="cls-141" x="15.6" y="8.25" width="0.63" height="22.93"/><rect class="cls-142" x="16.23" y="8.25" width="0.63" height="22.93"/><rect class="cls-143" x="16.86" y="8.25" width="0.63" height="22.93"/><rect class="cls-144" x="17.49" y="8.25" width="0.63" height="22.93"/><rect class="cls-145" x="18.12" y="8.25" width="0.63" height="22.93"/><rect class="cls-146" x="18.75" y="8.25" width="0.63" height="22.93"/><rect class="cls-147" x="19.38" y="8.25" width="0.63" height="22.93"/><rect class="cls-148" x="20.01" y="8.25" width="0.63" height="22.93"/><rect class="cls-149" x="20.64" y="8.25" width="0.63" height="22.93"/><rect class="cls-150" x="21.27" y="8.25" width="0.63" height="22.93"/><rect class="cls-151" x="21.9" y="8.25" width="0.63" height="22.93"/><rect class="cls-152" x="22.53" y="8.25" width="0.63" height="22.93"/><rect class="cls-153" x="23.16" y="8.25" width="0.63" height="22.93"/><rect class="cls-154" x="23.79" y="8.25" width="0.63" height="22.93"/><rect class="cls-155" x="24.42" y="8.25" width="0.63" height="22.93"/><rect class="cls-156" x="25.05" y="8.25" width="0.63" height="22.93"/><rect class="cls-157" x="25.68" y="8.25" width="0.63" height="22.93"/><rect class="cls-158" x="26.31" y="8.25" width="0.63" height="22.93"/><rect class="cls-159" x="26.94" y="8.25" width="0.63" height="22.93"/><rect class="cls-160" x="27.57" y="8.25" width="0.63" height="22.93"/><rect class="cls-161" x="28.2" y="8.25" width="0.63" height="22.93"/><rect class="cls-162" x="28.83" y="8.25" width="0.63" height="22.93"/><rect class="cls-163" x="29.46" y="8.25" width="0.63" height="22.93"/><rect class="cls-164" x="30.09" y="8.25" width="0.63" height="22.93"/><rect class="cls-165" x="30.72" y="8.25" width="0.63" height="22.93"/><rect class="cls-166" x="31.35" y="8.25" width="0.63" height="22.93"/><rect class="cls-167" x="31.98" y="8.25" width="0.63" height="22.93"/><rect class="cls-168" x="32.61" y="8.25" width="0.63" height="22.93"/><rect class="cls-169" x="33.24" y="8.25" width="0.63" height="22.93"/><rect class="cls-170" x="33.87" y="8.25" width="0.63" height="22.93"/><rect class="cls-171" x="34.5" y="8.25" width="0.63" height="22.93"/><rect class="cls-172" x="35.13" y="8.25" width="0.63" height="22.93"/><rect class="cls-173" x="35.76" y="8.25" width="0.63" height="22.93"/><rect class="cls-174" x="36.39" y="8.25" width="0.63" height="22.93"/><rect class="cls-175" x="37.02" y="8.25" width="0.63" height="22.93"/><rect class="cls-176" x="37.65" y="8.25" width="0.63" height="22.93"/><rect class="cls-177" x="38.28" y="8.25" width="0.52" height="22.93"/></g></g></g></g></g></svg>