<svg id="图层_1" data-name="图层 1" xmlns="http://www.w3.org/2000/svg" xmlns:xlink="http://www.w3.org/1999/xlink" viewBox="0 0 16 16"><defs><style>.cls-1{isolation:isolate;filter:url(#luminosity-invert);}.cls-2{fill:#020202;}.cls-3{fill:none;}.cls-4{clip-path:url(#clip-path);}.cls-5{fill:#8ff4ff;}.cls-6{fill:#8ff3ff;}.cls-7{fill:#8ef2ff;}.cls-8{fill:#8ef1ff;}.cls-9{fill:#8df0ff;}.cls-10{fill:#8defff;}.cls-11{fill:#8ceeff;}.cls-12{fill:#8cedff;}.cls-13{fill:#8cecff;}.cls-14{fill:#8bebff;}.cls-15{fill:#8beaff;}.cls-16{fill:#8ae9ff;}.cls-17{fill:#8ae8ff;}.cls-18{fill:#89e7ff;}.cls-19{fill:#89e6ff;}.cls-20{fill:#88e5ff;}.cls-21{fill:#88e4ff;}.cls-22{fill:#88e3ff;}.cls-23{fill:#87e2ff;}.cls-24{fill:#87e1ff;}.cls-25{fill:#86e0ff;}.cls-26{fill:#86dfff;}.cls-27{fill:#85deff;}.cls-28{fill:#85ddff;}.cls-29{fill:#85dcff;}.cls-30{fill:#84dbff;}.cls-31{fill:#84daff;}.cls-32{fill:#83d9ff;}.cls-33{fill:#83d8ff;}.cls-34{fill:#82d7ff;}.cls-35{fill:#82d6ff;}.cls-36{fill:#82d5ff;}.cls-37{fill:#81d4ff;}.cls-38{fill:#81d3ff;}.cls-39{fill:#80d2ff;}.cls-40{fill:#80d1ff;}.cls-41{fill:#7fd0ff;}.cls-42{fill:#7fcfff;}.cls-43{fill:#7fceff;}.cls-44{fill:#7ecdff;}.cls-45{fill:#7eccff;}.cls-46{fill:#7dcbff;}.cls-47{fill:#7dcaff;}.cls-48{fill:#7cc9ff;}.cls-49{fill:#7cc8ff;}.cls-50{fill:#7bc7ff;}.cls-51{fill:#7bc6ff;}.cls-52{fill:#7bc5ff;}.cls-53{fill:#7ac4ff;}.cls-54{fill:#7ac3ff;}.cls-55{fill:#79c2ff;}.cls-56{fill:#79c1ff;}.cls-57{fill:#78c0ff;}.cls-58{fill:#78beff;}.cls-59{fill:#78bdff;}.cls-60{fill:#77bcff;}.cls-61{fill:#7bf;}.cls-62{fill:#76baff;}.cls-63{fill:#76b9ff;}.cls-64{fill:#75b8ff;}.cls-65{fill:#75b7ff;}.cls-66{fill:#75b6ff;}.cls-67{fill:#74b5ff;}.cls-68{fill:#74b4ff;}.cls-69{fill:#73b3ff;}.cls-70{fill:#73b2ff;}.cls-71{fill:#72b1ff;}.cls-72{fill:#72b0ff;}.cls-73{fill:#71afff;}.cls-74{fill:#71aeff;}.cls-75{fill:#71adff;}.cls-76{fill:#70acff;}.cls-77{fill:#70abff;}.cls-78{fill:#6faaff;}.cls-79{fill:#6fa9ff;}.cls-80{fill:#6ea8ff;}.cls-81{fill:#6ea7ff;}.cls-82{fill:#6ea6ff;}.cls-83{fill:#6da5ff;}.cls-84{fill:#6da4ff;}.cls-85{fill:#6ca3ff;}.cls-86{fill:#6ca2ff;}.cls-87{fill:#6ba1ff;}.cls-88{fill:#6ba0ff;}.cls-89{fill:#6b9fff;}.cls-90{fill:#6a9eff;}.cls-91{fill:#6a9dff;}.cls-92{fill:#699cff;}.cls-93{fill:#699bff;}.cls-94{fill:#689aff;}.cls-95{fill:#6899ff;}.cls-96{fill:#6898ff;}.cls-97{fill:#6797ff;}.cls-98{fill:#6796ff;}.cls-99{fill:#6695ff;}.cls-100{fill:#6694ff;}.cls-101{fill:#6593ff;}.cls-102{fill:#6592ff;}.cls-103{fill:#6491ff;}.cls-104{fill:#6490ff;}.cls-105{fill:#648fff;}.cls-106{fill:#638eff;}.cls-107{fill:#638dff;}.cls-108{fill:#628cff;}.cls-109{fill:#628bff;}.cls-110{fill:#618aff;}.cls-111{fill:#6189ff;}.cls-112{clip-path:url(#clip-path-2);}.cls-113{mask:url(#mask);}.cls-114{opacity:0.5;}.cls-115{clip-path:url(#clip-path-3);}.cls-116{fill:#31c5bc;}.cls-117{fill:#31c4bd;}.cls-118{fill:#31c3bd;}.cls-119{fill:#32c2be;}.cls-120{fill:#32c1be;}.cls-121{fill:#32c0be;}.cls-122{fill:#32bfbf;}.cls-123{fill:#33bebf;}.cls-124{fill:#33bdc0;}.cls-125{fill:#33bcc0;}.cls-126{fill:#33bbc1;}.cls-127{fill:#34bac1;}.cls-128{fill:#34b9c2;}.cls-129{fill:#34b8c2;}.cls-130{fill:#34b7c3;}.cls-131{fill:#35b6c3;}.cls-132{fill:#35b5c3;}.cls-133{fill:#35b4c4;}.cls-134{fill:#35b3c4;}.cls-135{fill:#36b2c5;}.cls-136{fill:#36b1c5;}.cls-137{fill:#36b0c6;}.cls-138{fill:#36afc6;}.cls-139{fill:#37aec7;}.cls-140{fill:#37adc7;}.cls-141{fill:#37acc8;}.cls-142{fill:#38abc8;}.cls-143{fill:#38aac8;}.cls-144{fill:#38a9c9;}.cls-145{fill:#38a8c9;}.cls-146{fill:#39a7ca;}.cls-147{fill:#39a6ca;}.cls-148{fill:#39a5cb;}.cls-149{fill:#39a4cb;}.cls-150{fill:#3aa3cc;}.cls-151{fill:#3aa2cc;}.cls-152{fill:#3aa1cd;}.cls-153{fill:#3aa0cd;}.cls-154{fill:#3b9fcd;}.cls-155{fill:#3b9ece;}.cls-156{fill:#3b9dce;}.cls-157{fill:#3b9ccf;}.cls-158{fill:#3c9acf;}.cls-159{fill:#3c99d0;}.cls-160{fill:#3c98d0;}.cls-161{fill:#3c97d1;}.cls-162{fill:#3d96d1;}.cls-163{fill:#3d95d1;}.cls-164{fill:#3d94d2;}.cls-165{fill:#3d93d2;}.cls-166{fill:#3e92d3;}.cls-167{fill:#3e91d3;}.cls-168{fill:#3e90d4;}.cls-169{fill:#3e8fd4;}.cls-170{fill:#3f8ed5;}.cls-171{fill:#3f8dd5;}.cls-172{fill:#3f8cd6;}.cls-173{fill:#3f8bd6;}.cls-174{fill:#408ad6;}.cls-175{fill:#4089d7;}.cls-176{fill:#4088d7;}</style><clipPath id="clip-path"><path class="cls-3" d="M9.51,5.53H8.31L6.84,9.26,5.37,5.53H4.17l-.46,5.09h1.2l.25-2.8,1.18,2.71h1L8.52,7.82l.25,2.8H10L9.51,5.53ZM1,4.73H1v.78H1v6.34H3v-.8H1.8V5.52H3V4.73H1Zm9.69,0h0v.78h1.19v5.54H10.69v.8h2V5.52h0V4.73h-2Zm2.7.07a.71.71,0,0,0,.53.62c.21.08.4.13.4.24s-.06.13-.21.13a.9.9,0,0,1-.51-.21L13.28,6a1.4,1.4,0,0,0,.82.29c.59,0,.9-.3.9-.7A.68.68,0,0,0,14.46,5c-.21-.08-.4-.12-.4-.23s.06-.12.19-.12a.78.78,0,0,1,.43.18L15,4.4a1.25,1.25,0,0,0-.77-.28c-.5,0-.83.27-.83.68"/></clipPath><clipPath id="clip-path-2"><rect class="cls-3" x="1" y="4.12" width="14" height="7.76"/></clipPath><filter id="luminosity-invert" filterUnits="userSpaceOnUse" color-interpolation-filters="sRGB"><feColorMatrix values="-1 0 0 0 1 0 -1 0 0 1 0 0 -1 0 1 0 0 0 1 0"/></filter><mask id="mask" x="0.54" y="3.43" width="14.77" height="8.92" maskUnits="userSpaceOnUse"><g class="cls-1"><polygon class="cls-2" points="5.16 7.83 6.34 10.53 6.84 9.27 5.37 5.53 5.16 7.83"/><polygon class="cls-2" points="9.51 5.53 8.51 7.84 8.77 10.62 9.97 10.62 9.51 5.53"/></g></mask><clipPath id="clip-path-3"><rect class="cls-3" x="0.54" y="3.43" width="14.77" height="8.92"/></clipPath></defs><title>画板 5</title><g class="cls-4"><polygon class="cls-5" points="3.13 3.43 0.54 7.91 0.54 3.43 3.13 3.43"/><polygon class="cls-5" points="3.24 3.43 0.54 8.1 0.54 7.91 3.13 3.43 3.24 3.43"/><polygon class="cls-6" points="3.35 3.43 0.54 8.29 0.54 8.1 3.24 3.43 3.35 3.43"/><polygon class="cls-7" points="3.46 3.43 0.54 8.48 0.54 8.29 3.35 3.43 3.46 3.43"/><polygon class="cls-8" points="3.57 3.43 0.54 8.67 0.54 8.48 3.46 3.43 3.57 3.43"/><polygon class="cls-9" points="3.68 3.43 0.54 8.86 0.54 8.67 3.57 3.43 3.68 3.43"/><polygon class="cls-10" points="3.79 3.43 0.54 9.05 0.54 8.86 3.68 3.43 3.79 3.43"/><polygon class="cls-11" points="3.9 3.43 0.54 9.24 0.54 9.05 3.79 3.43 3.9 3.43"/><polygon class="cls-12" points="4.01 3.43 0.54 9.44 0.54 9.24 3.9 3.43 4.01 3.43"/><polygon class="cls-13" points="4.12 3.43 0.54 9.63 0.54 9.44 4.01 3.43 4.12 3.43"/><polygon class="cls-14" points="4.23 3.43 0.54 9.82 0.54 9.63 4.12 3.43 4.23 3.43"/><polygon class="cls-15" points="4.34 3.43 0.54 10.01 0.54 9.82 4.23 3.43 4.34 3.43"/><polygon class="cls-16" points="4.45 3.43 0.54 10.2 0.54 10.01 4.34 3.43 4.45 3.43"/><polygon class="cls-17" points="4.56 3.43 0.54 10.39 0.54 10.2 4.45 3.43 4.56 3.43"/><polygon class="cls-18" points="4.67 3.43 0.54 10.58 0.54 10.39 4.56 3.43 4.67 3.43"/><polygon class="cls-19" points="4.78 3.43 0.54 10.77 0.54 10.58 4.67 3.43 4.78 3.43"/><polygon class="cls-20" points="4.89 3.43 0.54 10.96 0.54 10.77 4.78 3.43 4.89 3.43"/><polygon class="cls-21" points="5 3.43 0.54 11.15 0.54 10.96 4.89 3.43 5 3.43"/><polygon class="cls-22" points="5.11 3.43 0.54 11.34 0.54 11.15 5 3.43 5.11 3.43"/><polygon class="cls-23" points="5.22 3.43 0.54 11.53 0.54 11.34 5.11 3.43 5.22 3.43"/><polygon class="cls-24" points="5.33 3.43 0.54 11.72 0.54 11.53 5.22 3.43 5.33 3.43"/><polygon class="cls-25" points="5.44 3.43 0.54 11.91 0.54 11.72 5.33 3.43 5.44 3.43"/><polygon class="cls-26" points="5.55 3.43 0.54 12.1 0.54 11.91 5.44 3.43 5.55 3.43"/><polygon class="cls-27" points="5.66 3.43 0.54 12.29 0.54 12.1 5.55 3.43 5.66 3.43"/><polygon class="cls-28" points="5.77 3.43 0.62 12.35 0.54 12.35 0.54 12.29 5.66 3.43 5.77 3.43"/><polygon class="cls-29" points="5.88 3.43 0.73 12.35 0.62 12.35 5.77 3.43 5.88 3.43"/><polygon class="cls-30" points="5.99 3.43 0.84 12.35 0.73 12.35 5.88 3.43 5.99 3.43"/><polygon class="cls-31" points="6.1 3.43 0.95 12.35 0.84 12.35 5.99 3.43 6.1 3.43"/><polygon class="cls-32" points="6.21 3.43 1.06 12.35 0.95 12.35 6.1 3.43 6.21 3.43"/><polygon class="cls-33" points="6.32 3.43 1.17 12.35 1.06 12.35 6.21 3.43 6.32 3.43"/><polygon class="cls-34" points="6.43 3.43 1.28 12.35 1.17 12.35 6.32 3.43 6.43 3.43"/><polygon class="cls-35" points="6.54 3.43 1.39 12.35 1.28 12.35 6.43 3.43 6.54 3.43"/><polygon class="cls-36" points="6.65 3.43 1.5 12.35 1.39 12.35 6.54 3.43 6.65 3.43"/><polygon class="cls-37" points="6.76 3.43 1.61 12.35 1.5 12.35 6.65 3.43 6.76 3.43"/><polygon class="cls-38" points="6.87 3.43 1.72 12.35 1.61 12.35 6.76 3.43 6.87 3.43"/><polygon class="cls-39" points="6.98 3.43 1.83 12.35 1.72 12.35 6.87 3.43 6.98 3.43"/><polygon class="cls-40" points="7.09 3.43 1.94 12.35 1.83 12.35 6.98 3.43 7.09 3.43"/><polygon class="cls-41" points="7.2 3.43 2.05 12.35 1.94 12.35 7.09 3.43 7.2 3.43"/><polygon class="cls-42" points="7.31 3.43 2.16 12.35 2.05 12.35 7.2 3.43 7.31 3.43"/><polygon class="cls-43" points="7.42 3.43 2.27 12.35 2.16 12.35 7.31 3.43 7.42 3.43"/><polygon class="cls-44" points="7.53 3.43 2.38 12.35 2.27 12.35 7.42 3.43 7.53 3.43"/><polygon class="cls-45" points="7.64 3.43 2.49 12.35 2.38 12.35 7.53 3.43 7.64 3.43"/><polygon class="cls-46" points="7.75 3.43 2.6 12.35 2.49 12.35 7.64 3.43 7.75 3.43"/><polygon class="cls-47" points="7.86 3.43 2.71 12.35 2.6 12.35 7.75 3.43 7.86 3.43"/><polygon class="cls-48" points="7.97 3.43 2.82 12.35 2.71 12.35 7.86 3.43 7.97 3.43"/><polygon class="cls-49" points="8.08 3.43 2.93 12.35 2.82 12.35 7.97 3.43 8.08 3.43"/><polygon class="cls-50" points="8.19 3.43 3.04 12.35 2.93 12.35 8.08 3.43 8.19 3.43"/><polygon class="cls-51" points="8.3 3.43 3.15 12.35 3.04 12.35 8.19 3.43 8.3 3.43"/><polygon class="cls-52" points="8.41 3.43 3.26 12.35 3.15 12.35 8.3 3.43 8.41 3.43"/><polygon class="cls-53" points="8.52 3.43 3.37 12.35 3.26 12.35 8.41 3.43 8.52 3.43"/><polygon class="cls-54" points="8.63 3.43 3.48 12.35 3.37 12.35 8.52 3.43 8.63 3.43"/><polygon class="cls-55" points="8.74 3.43 3.59 12.35 3.48 12.35 8.63 3.43 8.74 3.43"/><polygon class="cls-56" points="8.85 3.43 3.7 12.35 3.59 12.35 8.74 3.43 8.85 3.43"/><polygon class="cls-57" points="8.96 3.43 3.81 12.35 3.7 12.35 8.85 3.43 8.96 3.43"/><polygon class="cls-58" points="9.07 3.43 3.92 12.35 3.81 12.35 8.96 3.43 9.07 3.43"/><polygon class="cls-59" points="9.18 3.43 4.03 12.35 3.92 12.35 9.07 3.43 9.18 3.43"/><polygon class="cls-60" points="9.29 3.43 4.14 12.35 4.03 12.35 9.18 3.43 9.29 3.43"/><polygon class="cls-61" points="9.4 3.43 4.25 12.35 4.14 12.35 9.29 3.43 9.4 3.43"/><polygon class="cls-62" points="9.51 3.43 4.36 12.35 4.25 12.35 9.4 3.43 9.51 3.43"/><polygon class="cls-63" points="9.62 3.43 4.47 12.35 4.36 12.35 9.51 3.43 9.62 3.43"/><polygon class="cls-64" points="9.73 3.43 4.58 12.35 4.47 12.35 9.62 3.43 9.73 3.43"/><polygon class="cls-65" points="9.84 3.43 4.69 12.35 4.58 12.35 9.73 3.43 9.84 3.43"/><polygon class="cls-66" points="9.95 3.43 4.8 12.35 4.69 12.35 9.84 3.43 9.95 3.43"/><polygon class="cls-67" points="10.06 3.43 4.91 12.35 4.8 12.35 9.95 3.43 10.06 3.43"/><polygon class="cls-68" points="10.17 3.43 5.02 12.35 4.91 12.35 10.06 3.43 10.17 3.43"/><polygon class="cls-69" points="10.28 3.43 5.13 12.35 5.02 12.35 10.17 3.43 10.28 3.43"/><polygon class="cls-70" points="10.39 3.43 5.24 12.35 5.13 12.35 10.28 3.43 10.39 3.43"/><polygon class="cls-71" points="10.5 3.43 5.35 12.35 5.24 12.35 10.39 3.43 10.5 3.43"/><polygon class="cls-72" points="10.61 3.43 5.46 12.35 5.35 12.35 10.5 3.43 10.61 3.43"/><polygon class="cls-73" points="10.72 3.43 5.57 12.35 5.46 12.35 10.61 3.43 10.72 3.43"/><polygon class="cls-74" points="10.83 3.43 5.68 12.35 5.57 12.35 10.72 3.43 10.83 3.43"/><polygon class="cls-75" points="10.94 3.43 5.79 12.35 5.68 12.35 10.83 3.43 10.94 3.43"/><polygon class="cls-76" points="11.05 3.43 5.9 12.35 5.79 12.35 10.94 3.43 11.05 3.43"/><polygon class="cls-77" points="11.16 3.43 6.01 12.35 5.9 12.35 11.05 3.43 11.16 3.43"/><polygon class="cls-78" points="11.27 3.43 6.12 12.35 6.01 12.35 11.16 3.43 11.27 3.43"/><polygon class="cls-79" points="11.38 3.43 6.23 12.35 6.12 12.35 11.27 3.43 11.38 3.43"/><polygon class="cls-80" points="11.49 3.43 6.34 12.35 6.23 12.35 11.38 3.43 11.49 3.43"/><polygon class="cls-81" points="11.6 3.43 6.45 12.35 6.34 12.35 11.49 3.43 11.6 3.43"/><polygon class="cls-82" points="11.71 3.43 6.56 12.35 6.45 12.35 11.6 3.43 11.71 3.43"/><polygon class="cls-83" points="11.82 3.43 6.67 12.35 6.56 12.35 11.71 3.43 11.82 3.43"/><polygon class="cls-84" points="11.93 3.43 6.78 12.35 6.67 12.35 11.82 3.43 11.93 3.43"/><polygon class="cls-85" points="12.04 3.43 6.89 12.35 6.78 12.35 11.93 3.43 12.04 3.43"/><polygon class="cls-86" points="12.15 3.43 7 12.35 6.89 12.35 12.04 3.43 12.15 3.43"/><polygon class="cls-87" points="12.26 3.43 7.11 12.35 7 12.35 12.15 3.43 12.26 3.43"/><polygon class="cls-88" points="12.37 3.43 7.22 12.35 7.11 12.35 12.26 3.43 12.37 3.43"/><polygon class="cls-89" points="12.48 3.43 7.33 12.35 7.22 12.35 12.37 3.43 12.48 3.43"/><polygon class="cls-90" points="12.59 3.43 7.44 12.35 7.33 12.35 12.48 3.43 12.59 3.43"/><polygon class="cls-91" points="12.7 3.43 7.55 12.35 7.44 12.35 12.59 3.43 12.7 3.43"/><polygon class="cls-92" points="12.81 3.43 7.66 12.35 7.55 12.35 12.7 3.43 12.81 3.43"/><polygon class="cls-93" points="12.92 3.43 7.77 12.35 7.66 12.35 12.81 3.43 12.92 3.43"/><polygon class="cls-94" points="13.03 3.43 7.88 12.35 7.77 12.35 12.92 3.43 13.03 3.43"/><polygon class="cls-95" points="13.14 3.43 7.99 12.35 7.88 12.35 13.03 3.43 13.14 3.43"/><polygon class="cls-96" points="13.25 3.43 8.1 12.35 7.99 12.35 13.14 3.43 13.25 3.43"/><polygon class="cls-97" points="13.36 3.43 8.21 12.35 8.1 12.35 13.25 3.43 13.36 3.43"/><polygon class="cls-98" points="13.47 3.43 8.32 12.35 8.21 12.35 13.36 3.43 13.47 3.43"/><polygon class="cls-99" points="13.58 3.43 8.43 12.35 8.32 12.35 13.47 3.43 13.58 3.43"/><polygon class="cls-100" points="13.69 3.43 8.54 12.35 8.43 12.35 13.58 3.43 13.69 3.43"/><polygon class="cls-101" points="13.8 3.43 8.65 12.35 8.54 12.35 13.69 3.43 13.8 3.43"/><polygon class="cls-102" points="13.91 3.43 8.76 12.35 8.65 12.35 13.8 3.43 13.91 3.43"/><polygon class="cls-103" points="14.02 3.43 8.87 12.35 8.76 12.35 13.91 3.43 14.02 3.43"/><polygon class="cls-104" points="14.13 3.43 8.98 12.35 8.87 12.35 14.02 3.43 14.13 3.43"/><polygon class="cls-105" points="14.24 3.43 9.09 12.35 8.98 12.35 14.13 3.43 14.24 3.43"/><polygon class="cls-106" points="14.35 3.43 9.2 12.35 9.09 12.35 14.24 3.43 14.35 3.43"/><polygon class="cls-107" points="14.46 3.43 9.31 12.35 9.2 12.35 14.35 3.43 14.46 3.43"/><polygon class="cls-108" points="14.57 3.43 9.42 12.35 9.31 12.35 14.46 3.43 14.57 3.43"/><polygon class="cls-109" points="14.68 3.43 9.53 12.35 9.42 12.35 14.57 3.43 14.68 3.43"/><polygon class="cls-110" points="14.79 3.43 9.64 12.35 9.53 12.35 14.68 3.43 14.79 3.43"/><polygon class="cls-111" points="14.9 3.43 9.75 12.35 9.64 12.35 14.79 3.43 14.9 3.43"/><polygon class="cls-111" points="9.75 12.35 14.9 3.43 15.31 3.43 15.31 12.35 9.75 12.35"/></g><g class="cls-112"><g class="cls-113"><g class="cls-114"><g class="cls-115"><g class="cls-115"><rect class="cls-116" x="0.54" y="3.43" width="0.12" height="8.92"/><rect class="cls-117" x="0.65" y="3.43" width="0.25" height="8.92"/><rect class="cls-118" x="0.9" y="3.43" width="0.25" height="8.92"/><rect class="cls-119" x="1.14" y="3.43" width="0.25" height="8.92"/><rect class="cls-120" x="1.39" y="3.43" width="0.25" height="8.92"/><rect class="cls-121" x="1.63" y="3.43" width="0.25" height="8.92"/><rect class="cls-122" x="1.88" y="3.43" width="0.25" height="8.92"/><rect class="cls-123" x="2.12" y="3.43" width="0.25" height="8.92"/><rect class="cls-124" x="2.37" y="3.43" width="0.25" height="8.92"/><rect class="cls-125" x="2.61" y="3.43" width="0.25" height="8.92"/><rect class="cls-126" x="2.86" y="3.43" width="0.25" height="8.92"/><rect class="cls-127" x="3.1" y="3.43" width="0.25" height="8.92"/><rect class="cls-128" x="3.35" y="3.43" width="0.25" height="8.92"/><rect class="cls-129" x="3.59" y="3.43" width="0.25" height="8.92"/><rect class="cls-130" x="3.84" y="3.43" width="0.25" height="8.92"/><rect class="cls-131" x="4.08" y="3.43" width="0.25" height="8.92"/><rect class="cls-132" x="4.33" y="3.43" width="0.25" height="8.92"/><rect class="cls-133" x="4.57" y="3.43" width="0.25" height="8.92"/><rect class="cls-134" x="4.82" y="3.43" width="0.25" height="8.92"/><rect class="cls-135" x="5.06" y="3.43" width="0.25" height="8.92"/><rect class="cls-136" x="5.31" y="3.43" width="0.25" height="8.92"/><rect class="cls-137" x="5.55" y="3.43" width="0.25" height="8.92"/><rect class="cls-138" x="5.8" y="3.43" width="0.25" height="8.92"/><rect class="cls-139" x="6.04" y="3.43" width="0.25" height="8.92"/><rect class="cls-140" x="6.29" y="3.43" width="0.25" height="8.92"/><rect class="cls-141" x="6.53" y="3.43" width="0.25" height="8.92"/><rect class="cls-142" x="6.78" y="3.43" width="0.25" height="8.92"/><rect class="cls-143" x="7.02" y="3.43" width="0.25" height="8.92"/><rect class="cls-144" x="7.27" y="3.43" width="0.25" height="8.92"/><rect class="cls-145" x="7.51" y="3.43" width="0.25" height="8.92"/><rect class="cls-146" x="7.76" y="3.43" width="0.25" height="8.92"/><rect class="cls-147" x="8" y="3.43" width="0.25" height="8.92"/><rect class="cls-148" x="8.25" y="3.43" width="0.25" height="8.92"/><rect class="cls-149" x="8.49" y="3.43" width="0.25" height="8.92"/><rect class="cls-150" x="8.74" y="3.43" width="0.25" height="8.92"/><rect class="cls-151" x="8.98" y="3.43" width="0.25" height="8.92"/><rect class="cls-152" x="9.23" y="3.43" width="0.25" height="8.92"/><rect class="cls-153" x="9.47" y="3.43" width="0.25" height="8.92"/><rect class="cls-154" x="9.72" y="3.43" width="0.25" height="8.92"/><rect class="cls-155" x="9.96" y="3.43" width="0.25" height="8.92"/><rect class="cls-156" x="10.21" y="3.43" width="0.25" height="8.92"/><rect class="cls-157" x="10.45" y="3.43" width="0.25" height="8.92"/><rect class="cls-158" x="10.7" y="3.43" width="0.25" height="8.92"/><rect class="cls-159" x="10.94" y="3.43" width="0.25" height="8.92"/><rect class="cls-160" x="11.19" y="3.43" width="0.25" height="8.92"/><rect class="cls-161" x="11.43" y="3.43" width="0.25" height="8.92"/><rect class="cls-162" x="11.68" y="3.43" width="0.25" height="8.92"/><rect class="cls-163" x="11.92" y="3.43" width="0.25" height="8.92"/><rect class="cls-164" x="12.17" y="3.43" width="0.25" height="8.92"/><rect class="cls-165" x="12.41" y="3.43" width="0.25" height="8.92"/><rect class="cls-166" x="12.66" y="3.43" width="0.25" height="8.92"/><rect class="cls-167" x="12.9" y="3.43" width="0.25" height="8.92"/><rect class="cls-168" x="13.15" y="3.43" width="0.25" height="8.92"/><rect class="cls-169" x="13.39" y="3.43" width="0.25" height="8.92"/><rect class="cls-170" x="13.64" y="3.43" width="0.25" height="8.92"/><rect class="cls-171" x="13.88" y="3.43" width="0.25" height="8.92"/><rect class="cls-172" x="14.13" y="3.43" width="0.25" height="8.92"/><rect class="cls-173" x="14.37" y="3.43" width="0.25" height="8.92"/><rect class="cls-174" x="14.62" y="3.43" width="0.25" height="8.92"/><rect class="cls-175" x="14.86" y="3.43" width="0.25" height="8.92"/><rect class="cls-176" x="15.11" y="3.43" width="0.2" height="8.92"/></g></g></g></g></g></svg>